<svg width="138" height="207" viewBox="0 0 138 207" fill="none" xmlns="http://www.w3.org/2000/svg">
<g clip-path="url(#clip0_1_110)">
<rect width="138" height="207" fill="#F5ECDA"/>
<path fill-rule="evenodd" clip-rule="evenodd" d="M55.5 52.2529C72.9415 38.2619 94.5939 56.7802 93.001 71.7022C93.4575 73.0722 92.8254 74.7997 91.6768 78.75C91.5185 79.5231 91.304 80.28 91.0352 81.0195C90.4274 83.2363 89.729 86.0011 89 89.5C95.4997 104.5 85.6108 122.484 79.0791 107.003C75.4426 107.003 73.0866 102.678 71.9053 96.0469C68.4463 96.9892 64.7516 97.5 61 97.5C57.9882 97.5 55.0837 97.1375 52.3525 96.4658C51.5293 98.4683 48.7002 100.985 40.9697 108C32.5003 119 31 97.6024 31 84.7774C31 79.9182 31.3706 75.4773 32.1289 71.835C33.1775 60.5963 40.6909 52.2529 55.5 52.2529Z" fill="black"/>
<path d="M138 215.003C138 198.456 136.215 182.072 132.748 166.785C129.28 151.498 124.198 137.607 117.79 125.907C111.383 114.207 103.777 104.926 95.4052 98.5939C87.0337 92.2618 78.0612 89.0027 69 89.0027C59.9388 89.0027 50.9663 92.2618 42.5948 98.5939C34.2234 104.926 26.6169 114.207 20.2096 125.907C13.8024 137.607 8.71988 151.498 5.25231 166.785C1.78474 182.072 -7.92156e-07 198.456 0 215.003L69 215.003H138Z" fill="#EE9A89"/>
<path fill-rule="evenodd" clip-rule="evenodd" d="M68.772 21.1109C73.1159 20.3041 76.6599 24.0423 76.5708 28.4596L76.3179 40.9508C76.5454 40.853 76.7797 40.7621 77.0201 40.6783C80.4809 39.4719 83.8967 40.2455 84.6499 42.4059C85.403 44.5663 83.2085 47.2961 79.7476 48.5025C78.5037 48.9361 77.2656 49.1115 76.1548 49.0611L76.1372 49.9439L75.7535 68.9176V93.4937H57.7535V74.6949C55.5117 73.4455 53.4384 71.9748 51.5816 70.3043C48.4675 67.5026 46.0185 64.2011 44.3755 60.5894C42.7327 56.9779 41.9272 53.126 42.0054 49.2545C42.0837 45.3829 43.0442 41.5672 44.8316 38.025C46.6191 34.4826 49.1987 31.2827 52.4234 28.609C55.648 25.9353 59.4547 23.84 63.6255 22.442C65.3009 21.8804 67.0219 21.436 68.772 21.1109Z" fill="#FFAA6C"/>
<path fill-rule="evenodd" clip-rule="evenodd" d="M66.0127 20C74.5552 20 81.4805 26.5958 81.4805 34.7324C82.9772 42.73 74.6673 45.583 74.667 38.5C65.6861 37.6581 64.5159 34.7319 60.0254 29.2598C60.0254 29.1096 60.0222 28.9618 60.0205 28.8164C58.7686 30.4892 56.6268 32.4529 53.1533 34.7295C44.6678 40.291 44.1831 53.1973 42.667 52C41.1509 50.8024 38.1679 37.9994 47.6631 30.3936C52.631 24.1227 57.8873 20.0098 59.4033 21.207C59.526 21.3039 59.6691 21.4208 59.8232 21.5566C60.262 20.2775 61.7658 20 66.0127 20Z" fill="black"/>
<path d="M52.2517 45.0647V45.0695" stroke="black" stroke-width="4" stroke-linecap="round"/>
<path d="M63.8707 44.0413H63.8666" stroke="black" stroke-width="4" stroke-linecap="round"/>
<line x1="53.7678" y1="54.5968" x2="59.0666" y2="46.2322" stroke="black" stroke-width="1.5" stroke-linecap="round"/>
<line x1="53.6238" y1="54.774" x2="56.1422" y2="54.3762" stroke="black" stroke-width="1.5" stroke-linecap="round"/>
<line x1="54.4872" y1="61.2291" x2="64.6724" y2="56.5128" stroke="white" stroke-width="2" stroke-linecap="round"/>
<path d="M65.729 56.2134C65.9877 56.7667 66.0881 57.3875 66.0243 58.0403C65.9605 58.6931 65.7339 59.3651 65.3573 60.0181C64.9807 60.671 64.4616 61.292 63.8295 61.8456C63.1975 62.3993 62.4648 62.8747 61.6735 63.2447C60.8822 63.6148 60.0477 63.8723 59.2175 64.0024C58.3874 64.1326 57.578 64.1329 56.8355 64.0033C56.093 63.8737 55.4319 63.6168 54.89 63.2472C54.3481 62.8777 53.9361 62.4027 53.6773 61.8494L59.7031 59.0314L65.729 56.2134Z" fill="black"/>
</g>
<defs>
<clipPath id="clip0_1_110">
<rect width="138" height="207" fill="white"/>
</clipPath>
</defs>
</svg>
