<svg width="138" height="207" viewBox="0 0 138 207" fill="none" xmlns="http://www.w3.org/2000/svg">
<g clip-path="url(#clip0_1_150)">
<rect width="138" height="207" fill="#F5ECDA"/>
<mask id="path-1-inside-1_1_150" fill="white">
<path d="M138 215.003C138 198.456 136.215 182.072 132.748 166.785C129.28 151.498 124.198 137.607 117.79 125.907C111.383 114.207 103.777 104.926 95.4052 98.5939C87.0337 92.2618 78.0612 89.0027 69 89.0027C59.9388 89.0027 50.9663 92.2618 42.5948 98.5939C34.2234 104.926 26.6169 114.207 20.2096 125.907C13.8024 137.607 8.71988 151.498 5.25231 166.785C1.78474 182.072 -7.92156e-07 198.456 0 215.003L69 215.003H138Z"/>
</mask>
<path d="M138 215.003C138 198.456 136.215 182.072 132.748 166.785C129.28 151.498 124.198 137.607 117.79 125.907C111.383 114.207 103.777 104.926 95.4052 98.5939C87.0337 92.2618 78.0612 89.0027 69 89.0027C59.9388 89.0027 50.9663 92.2618 42.5948 98.5939C34.2234 104.926 26.6169 114.207 20.2096 125.907C13.8024 137.607 8.71988 151.498 5.25231 166.785C1.78474 182.072 -7.92156e-07 198.456 0 215.003L69 215.003H138Z" fill="#7893A5" stroke="#364D2A" stroke-width="4" mask="url(#path-1-inside-1_1_150)"/>
<path fill-rule="evenodd" clip-rule="evenodd" d="M65.0259 17.1103C60.6819 16.3034 57.1389 20.0416 57.228 24.4589L57.481 36.9511C57.2531 36.8532 57.0185 36.7616 56.7778 36.6777C53.317 35.4713 49.901 36.2448 49.1479 38.4052C48.395 40.5656 50.5898 43.2944 54.0503 44.5009C55.2944 44.9346 56.5331 45.111 57.644 45.0605L57.6616 45.9433L58.0444 64.9111V89.4931H76.0444V70.6943C78.2863 69.4448 80.3603 67.9743 82.2173 66.3037C85.3313 63.5019 87.7794 60.2004 89.4224 56.5888C91.0653 52.9772 91.8707 49.1255 91.7925 45.2539C91.7142 41.3823 90.7537 37.5666 88.9663 34.0244C87.1788 30.482 84.5992 27.2821 81.3745 24.6083C78.1499 21.9347 74.3431 19.8393 70.1724 18.4414C68.497 17.8798 66.776 17.4354 65.0259 17.1103Z" fill="#FFAA6C"/>
<rect x="58" y="89" width="18" height="5" fill="#364D2A"/>
<path d="M83.4477 39.0234V39.0282" stroke="black" stroke-width="4" stroke-linecap="round"/>
<path d="M71.8286 38H71.8327" stroke="black" stroke-width="4" stroke-linecap="round"/>
<line x1="0.75" y1="-0.75" x2="10.6518" y2="-0.75" transform="matrix(-0.535138 -0.844765 -0.844765 0.535138 81.6993 49.5905)" stroke="black" stroke-width="1.5" stroke-linecap="round"/>
<line x1="0.75" y1="-0.75" x2="3.29959" y2="-0.75" transform="matrix(-0.987755 -0.15601 -0.15601 0.987755 82.6993 49.5905)" stroke="black" stroke-width="1.5" stroke-linecap="round"/>
<line x1="1" y1="-1" x2="12.2241" y2="-1" transform="matrix(-0.907434 -0.420195 -0.420195 0.907434 81.6993 56.5154)" stroke="white" stroke-width="2" stroke-linecap="round"/>
<path d="M69.9704 50.1721C69.7116 50.7254 69.6113 51.3462 69.675 51.999C69.7388 52.6518 69.9655 53.3238 70.342 53.9767C70.7186 54.6297 71.2378 55.2507 71.8698 55.8043C72.5019 56.3579 73.2345 56.8334 74.0258 57.2034C74.8172 57.5735 75.6517 57.8309 76.4818 57.9611C77.3119 58.0912 78.1213 58.0915 78.8639 57.962C79.6064 57.8324 80.2674 57.5755 80.8093 57.2059C81.3512 56.8363 81.7633 56.3613 82.022 55.808L75.9962 52.9901L69.9704 50.1721Z" fill="black"/>
<path fill-rule="evenodd" clip-rule="evenodd" d="M93.6726 3C104.718 3.00003 105.173 4.75334 105.173 10C105.173 15.2467 100.718 22.4999 89.6726 22.5C82.7276 22.5 72.6563 22.201 66.1354 20.6758C60.6628 29.9547 60.495 37.7166 57.6725 37.5C51.1726 36.9999 51.1726 36.9999 53.1725 26.5C53.1725 20.425 53.1726 20.4999 57.6725 15.5C59.9477 13.9832 61.6831 13.0033 63.0056 12.46C69.7772 7.83745 85.2156 3 93.6726 3Z" fill="black"/>
<path d="M6.5 165V206.5" stroke="#364D2A"/>
<path d="M16 137V207" stroke="#364D2A"/>
<path d="M24 121V207" stroke="#364D2A"/>
<path d="M32 109V207" stroke="#364D2A"/>
<path d="M40 101V207" stroke="#364D2A"/>
<path d="M47.5 95.9977V207.002" stroke="#364D2A"/>
<path d="M56 92V207" stroke="#364D2A"/>
<path d="M64 92V207" stroke="#364D2A"/>
<path d="M72 92V207" stroke="#364D2A"/>
<path d="M80 91V207" stroke="#364D2A"/>
<path d="M88 94V207" stroke="#364D2A"/>
<path d="M96 100V207" stroke="#364D2A"/>
<path d="M104 107V207" stroke="#364D2A"/>
<path d="M128 152V209" stroke="#364D2A"/>
<path d="M120 131V209" stroke="#364D2A"/>
<path d="M112 117V209" stroke="#364D2A"/>
</g>
<defs>
<clipPath id="clip0_1_150">
<rect width="138" height="207" fill="white"/>
</clipPath>
</defs>
</svg>
