<svg width="138" height="207" viewBox="0 0 138 207" fill="none" xmlns="http://www.w3.org/2000/svg">
<g clip-path="url(#clip0_1_111)">
<rect width="138" height="207" fill="#F5ECDA"/>
<mask id="path-1-inside-1_1_111" fill="white">
<path d="M138 215.003C138 198.456 136.215 182.072 132.748 166.785C129.28 151.498 124.198 137.607 117.79 125.907C111.383 114.207 103.777 104.926 95.4052 98.5939C87.0337 92.2618 78.0612 89.0027 69 89.0027C59.9388 89.0027 50.9663 92.2618 42.5948 98.5939C34.2234 104.926 26.6169 114.207 20.2096 125.907C13.8024 137.607 8.71988 151.498 5.25231 166.785C1.78474 182.072 -7.92156e-07 198.456 0 215.003L69 215.003H138Z"/>
</mask>
<path d="M138 215.003C138 198.456 136.215 182.072 132.748 166.785C129.28 151.498 124.198 137.607 117.79 125.907C111.383 114.207 103.777 104.926 95.4052 98.5939C87.0337 92.2618 78.0612 89.0027 69 89.0027C59.9388 89.0027 50.9663 92.2618 42.5948 98.5939C34.2234 104.926 26.6169 114.207 20.2096 125.907C13.8024 137.607 8.71988 151.498 5.25231 166.785C1.78474 182.072 -7.92156e-07 198.456 0 215.003L69 215.003H138Z" fill="#E38800" stroke="#463EA3" stroke-width="2" mask="url(#path-1-inside-1_1_111)"/>
<path fill-rule="evenodd" clip-rule="evenodd" d="M68.7727 21.111C73.1165 20.3043 76.6596 24.0424 76.5705 28.4596L76.3176 40.9508C76.5453 40.853 76.7803 40.7622 77.0207 40.6784C80.4815 39.4722 83.8975 40.2455 84.6506 42.4059C85.4036 44.5664 83.2081 47.2962 79.7473 48.5026C78.5034 48.9361 77.2653 49.1116 76.1545 49.0612L76.1369 49.944L75.7541 68.9118V93.4938H57.7541V74.6959C55.512 73.4464 53.4384 71.9752 51.5813 70.3043C48.4672 67.5026 46.0192 64.2012 44.3762 60.5895C42.7332 56.9779 41.9279 53.1262 42.0061 49.2545C42.0843 45.3831 43.0439 41.5672 44.8313 38.0251C46.6188 34.4827 49.1984 31.2827 52.4231 28.609C55.6477 25.9354 59.4544 23.8401 63.6252 22.442C65.3007 21.8804 67.0224 21.4361 68.7727 21.111Z" fill="#FFAA6C"/>
<path d="M52.2517 45.0647V45.0695" stroke="black" stroke-width="4" stroke-linecap="round"/>
<path d="M63.8707 44.0413H63.8666" stroke="black" stroke-width="4" stroke-linecap="round"/>
<line x1="53.7678" y1="54.5968" x2="59.0666" y2="46.2322" stroke="black" stroke-width="1.5" stroke-linecap="round"/>
<line x1="53.6238" y1="54.774" x2="56.1422" y2="54.3762" stroke="black" stroke-width="1.5" stroke-linecap="round"/>
<line x1="54.4872" y1="61.2291" x2="64.6724" y2="56.5128" stroke="white" stroke-width="2" stroke-linecap="round"/>
<path d="M65.729 56.2134C65.9877 56.7667 66.0881 57.3875 66.0243 58.0403C65.9605 58.6931 65.7339 59.3651 65.3573 60.0181C64.9807 60.671 64.4616 61.292 63.8295 61.8456C63.1975 62.3993 62.4648 62.8747 61.6735 63.2447C60.8822 63.6148 60.0477 63.8723 59.2175 64.0024C58.3874 64.1326 57.578 64.1329 56.8355 64.0033C56.093 63.8737 55.4319 63.6168 54.89 63.2472C54.3481 62.8777 53.9361 62.4027 53.6773 61.8494L59.7031 59.0314L65.729 56.2134Z" fill="black"/>
<path fill-rule="evenodd" clip-rule="evenodd" d="M54.3068 12C55.5533 12 60.182 15.4227 64.1447 19.2061C65.1583 17.3447 66.467 16.0002 67.6223 16C68.8773 16 71.4017 18.2686 73.4289 20.9971C73.4317 20.9971 73.4349 20.9971 73.4377 20.9971C75.6468 20.9969 78.9377 19.676 78.9377 25.8896C78.9374 32.1034 72.6471 43.4989 70.4377 43.5C68.3795 43.5 65.8154 36.5794 65.4748 30.6084C64.4171 30.6986 63.3033 30.7053 62.2629 30.6777C61.1389 30.756 58.8909 30.5 54.4377 30.5C52.1467 30.5 52.9372 30.4999 49.3186 25.4072C35.4374 16.0001 45.1468 16 47.4377 16C48.4529 16.0003 51.6843 17.484 54.9699 19.4941C53.686 14.7102 52.6204 12 54.3068 12Z" fill="#010302"/>
<rect x="58" y="89" width="18" height="5" fill="#463EA3"/>
<circle cx="67.5" cy="101.5" r="2.5" fill="#463EA3"/>
<circle cx="67.5" cy="109.5" r="2.5" fill="#463EA3"/>
</g>
<defs>
<clipPath id="clip0_1_111">
<rect width="138" height="207" fill="white"/>
</clipPath>
</defs>
</svg>
