<svg width="138" height="207" viewBox="0 0 138 207" fill="none" xmlns="http://www.w3.org/2000/svg">
<g clip-path="url(#clip0_1_223)">
<rect width="138" height="207" fill="#F5ECDA"/>
<mask id="path-1-inside-1_1_223" fill="white">
<path d="M138 215.003C138 198.456 136.215 182.072 132.748 166.785C129.28 151.498 124.198 137.607 117.79 125.907C111.383 114.207 103.777 104.926 95.4052 98.5939C87.0337 92.2618 78.0612 89.0027 69 89.0027C59.9388 89.0027 50.9663 92.2618 42.5948 98.5939C34.2234 104.926 26.6169 114.207 20.2096 125.907C13.8024 137.607 8.71988 151.498 5.25231 166.785C1.78474 182.072 -7.92156e-07 198.456 0 215.003L69 215.003H138Z"/>
</mask>
<path d="M138 215.003C138 198.456 136.215 182.072 132.748 166.785C129.28 151.498 124.198 137.607 117.79 125.907C111.383 114.207 103.777 104.926 95.4052 98.5939C87.0337 92.2618 78.0612 89.0027 69 89.0027C59.9388 89.0027 50.9663 92.2618 42.5948 98.5939C34.2234 104.926 26.6169 114.207 20.2096 125.907C13.8024 137.607 8.71988 151.498 5.25231 166.785C1.78474 182.072 -7.92156e-07 198.456 0 215.003L69 215.003H138Z" fill="#F12800" stroke="#7893A5" stroke-width="4" mask="url(#path-1-inside-1_1_223)"/>
<path fill-rule="evenodd" clip-rule="evenodd" d="M65.0262 17.1094C60.6822 16.3025 57.1382 20.0416 57.2274 24.459L57.4803 36.9502C57.2528 36.8524 57.0185 36.7615 56.7782 36.6777C53.3173 35.4713 49.9014 36.2448 49.1483 38.4053C48.3953 40.5657 50.5899 43.2945 54.0506 44.501C55.2949 44.9347 56.5334 45.1111 57.6444 45.0606L57.662 45.9434L58.0448 64.9111V89.4932H76.0448V70.6944C78.2865 69.445 80.3598 67.9743 82.2166 66.3037C85.3307 63.502 87.7797 60.2005 89.4227 56.5889C91.0656 52.9773 91.871 49.1255 91.7928 45.2539C91.7146 41.3824 90.754 37.5667 88.9666 34.0244C87.1791 30.4821 84.5995 27.2821 81.3748 24.6084C78.1502 21.9347 74.3436 19.8394 70.1727 18.4414C68.4973 17.8798 66.7764 17.4345 65.0262 17.1094Z" fill="#FFAA6C"/>
<rect x="58" y="89" width="18" height="5" fill="#008353"/>
<path d="M83.4477 39.0234V39.0282" stroke="black" stroke-width="4" stroke-linecap="round"/>
<path d="M71.8286 38H71.8327" stroke="black" stroke-width="4" stroke-linecap="round"/>
<line x1="0.75" y1="-0.75" x2="10.6518" y2="-0.75" transform="matrix(-0.535138 -0.844765 -0.844765 0.535138 81.6993 49.5905)" stroke="black" stroke-width="1.5" stroke-linecap="round"/>
<line x1="0.75" y1="-0.75" x2="3.29959" y2="-0.75" transform="matrix(-0.987755 -0.15601 -0.15601 0.987755 82.6993 49.5905)" stroke="black" stroke-width="1.5" stroke-linecap="round"/>
<line x1="1" y1="-1" x2="12.2241" y2="-1" transform="matrix(-0.907434 -0.420195 -0.420195 0.907434 81.6993 56.5154)" stroke="white" stroke-width="2" stroke-linecap="round"/>
<path d="M69.9704 50.1721C69.7116 50.7254 69.6113 51.3462 69.675 51.999C69.7388 52.6518 69.9655 53.3238 70.342 53.9767C70.7186 54.6297 71.2378 55.2507 71.8698 55.8043C72.5019 56.3579 73.2345 56.8334 74.0258 57.2034C74.8172 57.5735 75.6517 57.8309 76.4818 57.9611C77.3119 58.0912 78.1213 58.0915 78.8639 57.962C79.6064 57.8324 80.2674 57.5755 80.8093 57.2059C81.3512 56.8363 81.7633 56.3613 82.022 55.808L75.9962 52.9901L69.9704 50.1721Z" fill="black"/>
<path d="M80.2143 2C87.6928 2 88.0005 3.7785 88.0005 9.10059C88.0004 14.4227 84.9848 21.7803 77.5063 21.7803C72.8093 21.7803 66.0007 21.4773 61.5854 19.9346C58.0489 29.3447 59.4106 37.219 57.5005 37C53.0996 36.4927 51.4403 36.4885 52.7944 25.8379C52.7944 19.6755 52.7945 19.7514 55.8413 14.6797C57.3826 13.1402 58.558 12.1457 59.4536 11.5947C64.039 6.90641 74.4891 2.00026 80.2143 2Z" fill="#76291C"/>
<circle cx="68" cy="37" r="7.5" stroke="black"/>
<circle cx="87" cy="37" r="7.5" stroke="black"/>
<rect x="75" y="37" width="5" height="1" fill="black"/>
<path d="M45 90C45 86.6863 47.6863 84 51 84H89.342C93.5312 84 96.4309 88.1842 94.96 92.1067L92.0168 99.9551C91.1108 102.371 88.7615 103.937 86.1828 103.844L50.784 102.569C47.5564 102.453 45 99.8026 45 96.5729V90Z" fill="#7893A5"/>
</g>
<defs>
<clipPath id="clip0_1_223">
<rect width="138" height="207" fill="white"/>
</clipPath>
</defs>
</svg>
