<svg width="302" height="86" viewBox="0 0 302 86" fill="none" xmlns="http://www.w3.org/2000/svg">
<path d="M12.5038 59.4846C12.5038 59.8524 12.6877 60.1282 12.9635 60.3121C13.4232 60.5879 13.4232 60.8637 13.1474 61.2315C13.0554 61.3234 12.8715 61.5073 12.6877 61.5992C12.136 62.0589 11.9522 62.7944 12.3199 63.438C12.4118 63.5299 12.5038 63.8058 12.4118 63.8977C12.0441 64.1735 11.5844 64.2654 11.3086 64.5413C10.9408 64.8171 10.5731 64.8171 10.2053 64.7251C9.37786 64.5413 8.55041 64.5413 7.72296 64.7251C6.89551 64.909 5.97612 64.909 5.14867 64.7251C4.41316 64.6332 3.58571 64.5413 2.8502 64.5413C1.37917 64.5413 1.1953 64.4493 0.919479 62.9783C0.82754 62.7944 0.82754 62.6105 0.735601 62.6105C8.95446e-05 62.1509 0.459785 61.5073 0.735601 61.2315C1.01142 60.9556 1.1953 60.5879 1.1953 60.2201C1.1953 59.7604 1.10336 59.3927 0.82754 59.1169C0.551723 58.7491 0.551723 58.2894 0.643662 57.8297C0.919479 57.0023 0.919479 56.1748 0.643662 55.3474C0.551723 55.1635 0.551723 54.8877 0.643662 54.7957C1.10336 54.336 0.82754 53.6925 0.919479 53.2328C1.01142 52.2214 0.643662 51.3021 1.1953 50.2907C1.28723 50.0149 1.28723 49.6472 1.1953 49.3713C0.82754 48.1761 0.82754 46.889 0.919479 45.6938C1.47111 44.8663 1.10336 44.0389 1.1953 43.2114C0.735601 42.7517 0.919479 42.1082 0.919479 41.4646C1.01142 40.5452 1.10336 39.6258 1.1953 38.6145C1.28723 38.1548 1.1953 37.6032 0.919479 37.2354C0.643662 36.8676 0.551723 36.4079 0.735601 35.9483C0.919479 35.4886 1.10336 35.0289 1.1953 34.5692C1.1953 34.2934 1.28723 33.9256 1.10336 33.7417C0.82754 33.4659 0.919479 33.0981 0.919479 32.7304C0.919479 32.2707 1.28723 31.9029 0.919479 31.3513C0.735601 31.0755 0.919479 30.5239 0.643662 30.0642C0.459785 29.6045 0.459785 29.1448 0.82754 28.777C1.10336 28.5012 1.28723 28.2254 1.28723 27.8576C1.28723 27.4899 1.10336 27.2141 0.82754 26.9382C0.459785 26.5705 0.551723 26.0188 0.643662 25.6511C0.82754 24.7317 0.82754 23.9042 0.643662 22.9849C0.551723 22.709 0.735601 22.4332 0.919479 22.1574C1.01142 21.6977 1.37917 21.33 1.01142 20.7783C0.735601 20.3186 0.919479 19.5831 0.919479 18.9395C0.919479 18.8476 1.01142 18.7557 1.10336 18.6637C1.65499 18.3879 2.29856 18.0202 2.8502 17.7443C3.12601 17.4685 3.49377 17.3766 3.86153 17.5605C4.41316 18.0202 4.96479 17.7443 5.42449 17.8363C5.7003 17.8363 5.88418 17.7443 6.06806 17.5605C6.80357 17.1008 6.80357 17.1008 7.44714 17.7443C7.8149 18.0202 8.09072 18.296 8.64235 17.9282C8.82623 17.7443 9.19398 17.6524 9.4698 17.5605C9.83756 17.4685 10.2973 17.4685 10.665 17.5605C11.2166 17.9282 11.7683 18.296 12.228 18.7557C12.228 18.8476 12.228 18.9395 12.228 19.0315C12.228 20.3186 12.4118 21.6058 12.5957 22.8929C12.5038 23.6284 12.4118 24.3639 12.228 25.0075C12.0441 25.835 12.5038 26.6624 12.5038 27.4899C12.5038 27.6737 12.7796 27.8576 12.9635 28.0415C13.5151 28.4093 13.5151 28.5012 13.1474 28.9609C12.9635 29.2367 12.6877 29.3286 12.5038 29.6045C12.0441 30.1561 12.136 30.7077 12.7796 31.1674C12.8715 31.1674 13.0554 31.2594 13.1474 31.3513C13.4232 31.5352 13.5151 31.7191 13.2393 31.9949C12.7796 32.3626 12.5038 33.0062 12.5038 33.5578C12.5038 33.8337 12.5957 34.2014 12.7796 34.4772C13.2393 34.9369 13.1474 35.3047 12.6877 35.8563C12.4118 36.1321 12.228 36.4999 12.228 36.9596C12.228 37.3273 12.4118 37.787 12.6877 37.9709C13.0554 38.3387 13.3312 38.6145 12.8715 39.0742C12.4118 39.6258 12.228 40.5452 12.5957 41.2807C12.7796 41.6485 12.7796 42.1082 12.5957 42.5679C12.4118 43.2114 12.3199 44.0389 12.5957 44.6825C12.7796 45.2341 12.6877 45.8777 12.4118 46.3374C12.228 46.7051 12.136 47.1648 12.228 47.6245C12.5038 48.9116 12.5038 50.1988 12.228 51.394C12.136 52.2214 12.136 53.0489 12.4118 53.8763C12.5957 54.7038 12.5957 55.6232 12.4118 56.4506C12.136 57.462 12.136 58.5652 12.5038 59.4846ZM1.56305 63.438C1.65499 63.3461 1.65499 63.2541 1.65499 63.2541C1.65499 63.1622 1.65499 63.1622 1.56305 63.1622L1.47111 63.3461L1.56305 63.438ZM1.56305 35.1208L1.74693 34.9369L1.56305 34.845C1.56305 34.845 1.56305 34.9369 1.47111 35.0289C1.47111 35.0289 1.56305 35.0289 1.56305 35.1208ZM1.83887 59.4846C1.93081 59.3927 1.93081 59.3927 1.93081 59.3927C1.93081 59.3007 1.93081 59.2088 1.83887 59.1169C1.83887 59.2088 1.83887 59.2088 1.83887 59.2088C1.83887 59.3007 1.83887 59.3927 1.83887 59.4846ZM1.83887 20.1348V20.0428C1.93081 20.0428 1.93081 20.0428 1.93081 20.0428C1.93081 19.9509 1.93081 19.8589 1.83887 19.8589C1.83887 19.8589 1.83887 19.8589 1.83887 19.9509C1.83887 19.9509 1.83887 20.0428 1.83887 20.1348ZM4.68898 31.9949L4.78091 31.811L4.68898 31.7191C4.68898 31.811 4.68898 31.811 4.59704 31.9029L4.68898 31.9949ZM4.68898 31.3513L4.87285 31.2594C4.87285 31.1674 4.87285 30.9835 4.78091 30.8916C4.68898 30.8916 4.59704 30.9835 4.59704 30.9835C4.59704 31.1674 4.59704 31.2594 4.68898 31.3513ZM5.51643 41.5565C5.60837 41.5565 5.60837 41.4646 5.7003 41.4646L5.60837 41.3727C5.51643 41.3727 5.51643 41.4646 5.42449 41.4646L5.51643 41.5565ZM6.71163 60.3121L6.80357 60.2201L6.71163 60.0363L6.61969 60.1282C6.61969 60.1282 6.61969 60.2201 6.71163 60.3121ZM7.8149 39.35L7.90684 39.2581C7.90684 39.1661 7.8149 39.1661 7.8149 39.0742L7.72296 39.1661C7.72296 39.2581 7.8149 39.2581 7.8149 39.35ZM7.8149 21.238C7.8149 21.1461 7.90684 21.1461 7.90684 21.1461C7.90684 21.0541 7.8149 20.9622 7.8149 20.9622L7.72296 21.0541C7.72296 21.1461 7.8149 21.1461 7.8149 21.238ZM8.64235 37.3273C8.73429 37.3273 8.73429 37.3273 8.73429 37.2354C8.73429 37.2354 8.73429 37.1435 8.64235 37.0515L8.55041 37.1435L8.64235 37.3273ZM9.01011 26.2947C9.01011 25.9269 9.10205 25.6511 9.10205 25.3753C9.10205 25.1914 9.10205 25.0075 9.10205 24.8236C9.10205 24.7317 8.91817 24.6398 8.91817 24.6398L8.82623 24.7317C8.82623 24.9156 8.82623 25.0995 8.82623 25.2833C8.91817 25.6511 8.64235 26.0188 9.01011 26.2947ZM9.56174 58.2894L9.65368 58.1055L9.56174 57.7378C9.4698 57.8297 9.37786 57.9217 9.37786 57.9217C9.37786 58.1055 9.4698 58.1975 9.56174 58.2894ZM9.83756 30.248L10.0214 29.1448C9.83756 28.6851 10.1134 28.2254 9.74562 27.7657C9.65368 28.2254 9.65368 28.6851 9.65368 29.1448C9.74562 29.5125 9.4698 29.9722 9.83756 30.248ZM10.1134 31.4432L10.4811 31.3513C10.3892 31.2594 10.2973 31.1674 10.2053 31.1674C10.1134 31.1674 10.0214 31.1674 10.0214 31.2594L10.1134 31.4432ZM10.5731 24.8236C10.665 24.8236 10.7569 24.8236 10.7569 24.7317C10.7569 24.6398 10.7569 24.4559 10.7569 24.3639C10.665 24.4559 10.4811 24.4559 10.4811 24.4559C10.5731 24.6398 10.5731 24.7317 10.5731 24.8236ZM11.2166 38.2467C11.2166 38.1548 11.3086 38.1548 11.3086 38.1548C11.3086 38.0628 11.2166 37.9709 11.2166 37.9709C11.2166 37.9709 11.1247 37.9709 11.1247 38.0628C11.1247 38.0628 11.2166 38.1548 11.2166 38.2467ZM11.7683 62.2428C11.8602 62.2428 11.8602 62.1509 11.8602 62.0589C11.8602 62.0589 11.8602 62.0589 11.7683 61.967L11.6763 62.1509L11.7683 62.2428ZM0.919479 7.72299C1.1953 6.0681 1.37917 5.79228 0.735601 4.50513C0.643662 4.4132 0.551723 4.22931 0.643662 4.13738C0.919479 3.40186 0.82754 2.48247 1.37917 1.93084C1.65499 1.65502 1.83887 1.28727 2.29856 1.37921C2.48244 1.47115 2.75826 1.19533 2.94214 1.19533C3.67765 1.19533 4.32122 0.459817 5.05673 1.10339C5.7003 1.01145 6.25194 1.28727 6.89551 1.01145C7.35521 0.735635 7.8149 0.827573 8.27459 1.01145C8.91817 1.37921 9.74562 1.19533 10.2053 0.735635C10.3892 0.55176 10.5731 0.459817 10.8489 0.55176C11.0328 0.55176 11.3086 0.643698 11.4005 0.827573C11.8602 1.47115 12.3199 2.02278 12.8715 2.48247C12.9635 2.57441 13.0554 2.75829 13.0554 2.94217C13.0554 3.12605 12.9635 3.30993 12.8715 3.4938L12.7796 3.58574C11.8602 4.50513 11.7683 4.59707 12.5957 5.6084C13.0554 6.0681 13.0554 6.52779 12.7796 6.89554C12.136 7.63106 11.8602 8.27463 12.6877 9.10208C12.9635 9.46984 12.8715 10.0215 12.5957 10.2973C12.0441 10.757 11.5844 11.2167 11.1247 11.6764C10.9408 11.7683 10.7569 11.8602 10.5731 11.8602C9.83756 11.8602 9.19398 11.8602 8.55041 11.8602V11.9522C7.26327 11.8602 5.88418 11.6764 4.59704 11.5844C4.22928 11.5844 3.95346 11.6764 3.67765 11.7683C2.75826 12.1361 1.74693 11.6764 1.28723 10.757C0.82754 9.83759 0.643662 8.73432 0.919479 7.72299ZM10.3892 10.757C10.2053 10.757 10.1134 10.757 10.0214 10.8489C10.0214 10.9409 10.0214 11.0328 10.1134 11.0328C10.2053 11.0328 10.3892 11.0328 10.4811 10.9409C10.3892 10.8489 10.3892 10.757 10.3892 10.757ZM62.3117 57.2781C62.9553 57.8297 62.9553 57.8297 62.4036 58.4733C62.1278 58.6572 62.0359 59.0249 62.0359 59.3927C61.944 59.7604 62.1278 60.0363 62.4036 60.3121C62.4956 60.496 62.6795 60.7718 62.7714 60.9556C62.7714 61.1395 62.7714 61.3234 62.6795 61.4153C62.4956 61.6912 62.2198 61.967 62.0359 62.1509C61.852 62.3347 61.6681 62.6105 61.6681 62.8864C61.7601 63.2541 61.5762 63.7138 61.3004 64.0816C60.9326 64.3574 60.4729 64.5413 60.1052 64.5413C59.1858 64.5413 58.3583 64.6332 57.5309 64.5413C57.2551 64.5413 56.9792 64.4493 56.7034 64.5413C55.784 64.909 54.6808 64.909 53.7614 64.5413C53.2098 64.4493 52.6581 64.4493 52.1065 64.5413C51.9226 64.5413 51.6468 64.5413 51.5549 64.4493C51.371 63.8977 51.0032 63.438 50.7274 63.0702C50.1758 62.4267 50.4516 61.967 50.7274 61.4153C51.1871 60.7718 51.0952 59.8524 50.5435 59.2088C50.3596 59.0249 50.3596 58.6572 50.4516 58.3814C50.8193 57.8297 50.6355 57.37 50.7274 56.8184C50.7274 56.6345 50.7274 56.5426 50.7274 56.3587C50.3596 55.4393 50.3596 55.3474 50.7274 54.7038C51.0952 54.1522 51.0952 53.4167 50.6355 52.957C50.3596 52.5892 49.9919 52.1295 50.5435 51.4859C50.7274 51.1182 50.9113 50.6585 51.0032 50.1988C51.0032 50.1068 50.9113 49.923 50.8193 49.831C50.3596 49.5552 50.2677 48.9116 50.5435 48.4519C50.7274 47.9923 50.7274 47.5326 50.7274 47.0729C50.6355 46.2454 50.7274 45.418 50.9113 44.5905C51.0032 44.0389 51.0032 43.3953 50.8193 42.9356C50.6355 41.9243 50.6355 41.0049 50.7274 40.0855C51.0032 39.0742 51.0032 38.0628 50.7274 37.0515C50.7274 36.6838 50.6355 36.316 50.7274 35.9483C50.6355 35.3966 50.8193 34.845 50.2677 34.3853C50.0838 34.2014 50.1758 33.6498 50.2677 33.374C50.3596 33.1901 50.4516 33.0062 50.4516 32.8223C50.3596 32.6384 50.2677 32.4546 50.0838 32.3626C49.9919 32.1788 49.9 31.9949 49.9 31.9029C49.2564 30.7997 48.5209 29.7883 47.6015 28.9609C47.5095 28.777 46.9579 28.869 46.866 28.5931C46.4982 28.1334 45.8546 28.777 45.4869 28.3173C45.2111 27.9496 44.5675 27.9496 44.1078 27.6737C43.5562 27.4899 43.0045 27.4899 42.4529 27.6737C41.9013 27.9496 41.2577 27.9496 40.6141 27.7657C40.2464 27.5818 40.1544 27.7657 39.9705 27.8576C39.6947 28.2254 39.5108 28.6851 39.235 28.869C38.7753 28.9609 38.3156 29.0528 37.8559 28.9609C37.3963 28.869 36.8446 29.0528 36.5688 29.4206C35.8333 30.1561 35.0978 30.8916 34.3623 31.5352C34.0865 31.811 34.0865 32.2707 34.2703 32.5465C34.5461 33.1901 34.5461 33.374 33.9026 33.5578C33.0751 34.0175 32.5235 34.845 32.5235 35.7644C32.3396 36.1321 32.2477 36.4079 32.2477 36.7757C32.2477 37.0515 32.5235 37.3273 32.4316 37.6032C32.4316 38.3387 32.2477 38.9822 32.0638 39.6258C32.0638 39.8097 31.8799 39.9016 31.9719 39.9936C32.2477 41.2807 32.3396 42.6598 32.1557 44.0389C32.2477 44.7744 31.9719 45.5099 31.9719 46.2454C31.9719 47.2567 32.1557 48.1761 32.2477 49.1875C32.7993 49.4633 32.4316 49.923 32.2477 50.1988C31.8799 50.7504 31.8799 51.4859 31.9719 52.1295C31.9719 52.3134 32.0638 52.4053 32.2477 52.4973C32.3396 52.6811 32.5235 52.6811 32.6154 52.6811C32.8912 52.5892 33.0751 52.6811 33.0751 53.0489C33.0751 53.2328 33.0751 53.4167 32.7074 53.5086C32.5235 53.5086 32.2477 53.8763 32.2477 54.0602C32.2477 54.5199 31.9719 55.0716 32.4316 55.4393C32.6154 55.6232 32.8912 55.8071 32.9832 56.0829C33.0751 56.2668 33.259 56.6345 32.7993 56.8184C32.5235 56.9103 32.3396 57.0942 32.1557 57.2781C31.9719 57.462 31.8799 57.6458 32.0638 57.8297C32.1557 58.0136 32.1557 58.1975 32.2477 58.2894C32.5235 58.7491 33.0751 59.1169 32.9832 59.4846C32.9832 59.8524 32.4316 60.2201 32.1557 60.5879C31.8799 61.0476 31.8799 61.5073 32.1557 61.875C32.9832 62.8864 32.9832 62.8864 31.8799 63.7138C31.5122 63.8977 31.2363 64.2654 31.1444 64.6332C30.8686 65.1848 30.5928 65.1848 30.0411 64.909C29.3976 64.5413 28.6621 64.1735 27.9265 64.8171C27.3749 64.7251 26.7313 65.001 26.0878 64.6332C25.8119 64.4493 25.4442 64.4493 25.1684 64.5413C24.5248 64.909 23.7893 64.909 23.1457 64.6332C22.3183 64.3574 21.8586 63.6219 21.3069 63.0702C21.215 62.9783 21.215 62.8864 21.215 62.7025C21.215 62.0589 21.1231 61.4153 20.9392 60.7718C20.8472 60.496 21.0311 60.1282 21.215 59.7604C21.5828 59.1169 21.4908 58.1975 20.8472 57.6458C20.5714 57.462 20.5714 57.2781 20.8472 57.0023C21.3069 56.3587 21.3069 55.3474 20.8472 54.7038C20.5714 54.428 20.5714 53.9683 20.7553 53.6925C20.9392 53.4167 21.1231 53.1408 21.1231 52.7731C21.215 52.1295 21.3069 51.4859 20.5714 51.1182C20.2037 50.8424 20.2956 50.5665 20.5714 50.2907C20.7553 50.1988 20.9392 50.0149 21.1231 49.831C21.4908 49.2794 21.4908 48.9116 21.0311 48.2681C20.9392 48.0842 20.8472 47.9003 20.7553 47.7164C20.6634 47.5326 20.6634 47.2567 20.6634 47.2567C21.3069 46.7051 21.4908 45.8777 21.1231 45.2341C20.8472 44.4066 20.9392 43.4872 21.3069 42.7517C21.3989 42.5679 21.3989 42.292 21.3069 42.2001C20.9392 41.3727 20.8472 40.3613 21.1231 39.5339C21.3069 38.6145 21.3069 37.6951 21.0311 36.8676C20.9392 35.9483 20.8472 34.9369 20.9392 34.0175C21.3989 33.6498 21.215 33.1901 21.215 32.7304C21.215 32.0868 21.215 31.3513 21.215 30.7077C21.215 30.4319 21.3069 30.1561 21.215 29.9722C20.5714 29.3286 21.215 28.6851 21.215 28.0415C21.8586 27.3979 21.3069 26.8463 20.9392 26.3866C20.5714 25.743 20.5714 25.743 20.9392 25.1914C21.3069 24.4559 21.3069 23.7204 20.9392 23.0768C20.5714 22.709 20.6634 22.5252 20.8472 22.1574C21.1231 21.7897 21.215 21.33 21.215 20.8703C21.1231 20.4106 21.3069 20.0428 21.4908 19.6751C21.6747 19.4912 21.8586 19.3073 22.0425 19.3073C22.5941 19.2154 23.0538 19.1234 23.6054 18.9395C24.249 18.5718 25.0764 18.6637 25.6281 19.1234C25.8119 19.2154 25.9958 19.2154 26.0878 19.1234C26.8233 19.0315 27.5588 18.5718 28.2943 18.7557C29.1217 18.9395 30.1331 19.0315 31.0525 19.0315C31.2363 18.9395 31.3283 19.0315 31.5122 19.1234C31.6041 19.2154 31.696 19.3992 31.696 19.5831C31.6041 20.0428 31.5122 20.5025 31.5122 20.8703C31.6041 21.33 32.0638 21.7897 31.8799 22.2493C31.788 22.709 32.1557 22.9849 32.5235 23.2607C32.6154 23.3526 32.7074 23.4446 32.8912 23.4446C33.0751 23.4446 33.259 23.3526 33.3509 23.2607C33.9026 22.4332 35.0058 22.2493 35.3736 21.238C35.4655 20.9622 35.8333 20.7783 36.1091 20.7783C36.5688 20.5944 36.9366 20.3186 37.1204 19.9509C37.3043 19.4912 37.6721 19.3073 38.1318 19.3073C38.8673 19.2154 39.6028 19.0315 40.2464 18.8476C41.1657 18.6637 41.9932 18.3879 42.8207 17.9282C43.4642 17.7443 44.1997 17.7443 44.8433 17.9282C45.7627 18.1121 46.774 18.204 47.7854 18.1121C47.9692 18.1121 48.1531 17.8363 48.5209 17.8363C48.6128 17.8363 48.7047 17.8363 48.7967 17.8363C49.2564 18.0202 49.7161 18.204 50.1758 18.296C51.0032 18.4799 51.6468 19.1234 52.4742 18.4799C52.5662 18.3879 52.842 18.4799 52.9339 18.5718C53.8533 19.4912 54.8647 20.3186 55.9679 20.9622C56.7034 21.5138 57.4389 22.0655 58.0825 22.709C58.91 23.6284 59.6455 24.8236 60.1052 26.0188C60.1052 26.1108 60.1971 26.2947 60.2891 26.4785C60.381 27.0302 60.9326 27.2141 61.1165 27.6737C61.3004 28.0415 61.0246 28.6851 61.3004 29.0528C61.4843 29.6045 61.4843 30.1561 61.3923 30.6158C61.3923 31.1674 61.5762 31.7191 62.0359 32.0868C62.6795 32.7304 62.7714 32.8223 62.2198 33.6498C61.944 34.2014 61.852 34.845 62.1278 35.3966C62.2198 35.6724 62.3117 36.0402 62.2198 36.316C61.852 37.2354 61.852 38.3387 62.2198 39.2581C62.3117 39.4419 62.1278 39.8097 62.0359 39.9936C61.7601 40.6371 61.3923 41.2807 61.944 42.0162C62.0359 43.2114 62.0359 44.4986 61.852 45.7857C61.6681 46.4293 61.6681 47.1648 61.852 47.9003C62.0359 48.9116 62.0359 49.923 61.852 50.9343C61.5762 51.7618 61.6681 52.5892 62.0359 53.3247C62.1278 53.6005 62.2198 53.7844 62.3117 53.8763C62.9553 54.5199 62.9553 54.428 62.4956 55.0716C62.2198 55.2554 62.1278 55.4393 62.0359 55.7151C61.6681 56.5426 61.6681 56.5426 62.3117 57.2781ZM21.8586 44.3147L21.9505 44.2228C21.9505 44.2228 21.8586 44.1308 21.8586 44.0389L21.7666 44.1308L21.8586 44.3147ZM22.9618 41.5565L23.0538 41.3727L22.9618 41.2807C22.9618 41.3727 22.8699 41.4646 22.8699 41.4646L22.9618 41.5565ZM27.6507 25.835L27.7427 25.743L27.6507 25.5592L27.5588 25.6511C27.5588 25.743 27.6507 25.743 27.6507 25.835ZM28.4782 25.0075L28.5701 24.8236L28.4782 24.7317C28.4782 24.8236 28.3862 24.8236 28.3862 24.9156L28.4782 25.0075ZM28.754 40.7291L28.8459 40.6371C28.8459 40.5452 28.754 40.5452 28.6621 40.5452C28.6621 40.5452 28.6621 40.5452 28.5701 40.6371L28.754 40.7291ZM29.3056 56.1748C29.3056 56.1748 29.3976 56.0829 29.3976 55.9909L29.3056 55.899L29.2137 56.0829L29.3056 56.1748ZM29.5814 40.4533L29.6734 40.2694L29.5814 40.1774C29.5814 40.2694 29.4895 40.2694 29.4895 40.3613L29.5814 40.4533ZM34.2703 23.9042L34.3623 23.7204L34.2703 23.6284C34.2703 23.6284 34.1784 23.7204 34.1784 23.8123L34.2703 23.9042ZM37.5801 20.8703L37.6721 20.6864L37.5801 20.5944C37.5801 20.6864 37.4882 20.6864 37.4882 20.7783L37.5801 20.8703ZM45.4869 24.6398L45.5788 24.7317C45.6708 24.7317 45.7627 24.7317 45.9466 24.7317V24.4559C45.7627 24.4559 45.6708 24.4559 45.4869 24.4559V24.6398ZM46.4982 22.6171V22.5252C46.4982 22.5252 46.4063 22.5252 46.3143 22.6171C46.3143 22.6171 46.4063 22.709 46.4063 22.801L46.4982 22.6171ZM46.6821 22.5252C46.6821 22.5252 46.774 22.4332 46.774 22.3413L46.6821 22.2493L46.4982 22.4332L46.6821 22.5252ZM47.5095 27.7657C47.5095 27.6737 47.6015 27.6737 47.6015 27.5818L47.5095 27.4899L47.4176 27.6737L47.5095 27.7657ZM47.8773 25.835C47.7854 26.0188 47.6934 26.1108 47.6934 26.2027L47.8773 26.2947L48.2451 25.9269C48.0612 25.9269 47.8773 25.835 47.8773 25.835ZM48.0612 28.869C48.4289 28.6851 48.6128 28.3173 48.4289 27.9496C48.4289 27.8576 48.337 27.8576 48.337 27.7657C48.0612 27.9496 47.8773 28.2254 47.6934 28.4093C47.6015 28.5012 47.6934 28.6851 47.6934 28.869C47.7854 28.869 47.9692 28.869 48.0612 28.869ZM49.1644 23.9042C49.2564 23.8123 49.2564 23.7204 49.3483 23.5365C49.3483 23.4446 49.2564 23.4446 49.1644 23.3526L49.0725 23.6284L49.1644 23.9042ZM51.9226 28.869L52.0145 28.777L51.9226 28.5931L51.8307 28.6851C51.9226 28.777 51.9226 28.777 51.9226 28.869ZM53.3017 54.2441L53.3936 54.1522C53.3936 54.0602 53.3936 53.9683 53.3017 53.9683L53.2098 54.0602C53.3017 54.0602 53.3017 54.1522 53.3017 54.2441ZM53.3017 50.5665V50.6585C53.3017 50.5665 53.3936 50.5665 53.4856 50.4746L53.3936 50.3827L53.2098 50.4746C53.2098 50.5665 53.2098 50.5665 53.3017 50.5665ZM53.3936 34.845L53.4856 34.753C53.3936 34.753 53.3017 34.753 53.3017 34.6611C53.2098 34.6611 53.2098 34.753 53.2098 34.753L53.3936 34.845ZM55.2324 48.4519C55.2324 48.36 55.3243 48.36 55.3243 48.2681L55.2324 48.1761L55.1405 48.36L55.2324 48.4519ZM55.3243 34.6611C55.3243 34.5692 55.3243 34.3853 55.3243 34.2014C55.3243 34.2014 55.2324 34.2014 55.2324 34.1095C55.1405 34.2014 55.1405 34.3853 55.1405 34.4772C55.1405 34.5692 55.2324 34.5692 55.3243 34.6611ZM56.3357 49.2794L56.4276 49.1875L56.3357 49.0036L56.2437 49.0955C56.2437 49.0955 56.3357 49.1875 56.3357 49.2794ZM59.0938 34.3853C59.0938 34.4772 59.0019 34.4772 59.0019 34.4772C59.0019 34.4772 59.0938 34.5692 59.0938 34.6611L59.1858 34.5692L59.0938 34.3853ZM58.2664 53.4167L58.3583 53.3247L58.2664 53.1408L58.1745 53.2328C58.1745 53.2328 58.2664 53.3247 58.2664 53.4167ZM59.0938 53.1408L59.1858 52.957L59.0938 52.865C59.0938 52.865 59.0019 52.957 59.0019 53.0489C59.0019 53.0489 59.0938 53.0489 59.0938 53.1408ZM59.0938 51.4859L59.1858 51.3021L59.0938 51.2101C59.0938 51.2101 59.0019 51.3021 59.0019 51.394C59.0019 51.394 59.0938 51.394 59.0938 51.4859ZM59.0938 42.292V42.384C59.0938 42.292 59.1858 42.292 59.2777 42.2001L59.0938 42.1082L59.0019 42.2001C59.0019 42.292 59.0019 42.292 59.0938 42.292ZM59.3697 36.5918L59.4616 36.4999C59.4616 36.4079 59.3697 36.316 59.3697 36.316L59.2777 36.4079C59.2777 36.4079 59.3697 36.4999 59.3697 36.5918ZM61.0246 34.6611L61.1165 34.5692L61.0246 34.3853L60.9326 34.4772C60.9326 34.4772 61.0246 34.5692 61.0246 34.6611ZM112.918 63.1622C113.654 64.3574 113.286 65.4607 111.815 65.6445C111.08 65.7365 110.528 65.9203 109.884 66.2881C109.241 66.5639 109.241 66.6559 108.873 66.0123C108.781 65.7365 108.597 65.4607 108.229 65.4607C107.77 65.4607 107.31 65.2768 106.942 65.7365C106.85 65.9203 106.758 66.0123 106.666 66.1042C106.115 66.6559 106.115 66.6559 105.471 66.1042C104.92 65.6445 104 65.5526 103.357 66.0123C102.621 66.472 102.253 66.38 101.794 65.7365C101.702 65.5526 101.518 65.1848 101.334 65.0929C100.139 64.3574 99.2194 63.2541 98.6678 61.967C98.4839 61.5992 98.2081 61.2315 97.8404 61.0476C97.4726 60.9556 97.1968 60.5879 97.2887 60.1282C97.2887 59.5766 97.4726 59.0249 96.6452 58.933C96.5532 58.933 96.4613 58.7491 96.4613 58.6572C96.829 57.8297 95.8177 57.462 95.6338 56.9103C95.358 56.3587 94.8983 55.899 94.7144 55.3474C94.4386 54.7038 93.887 54.428 93.887 53.6925C93.887 53.3247 93.4273 52.865 93.0595 52.5892C92.6918 52.2214 92.416 51.7618 92.2321 51.2101C92.1401 51.0262 91.9563 50.7504 91.7724 50.7504C91.1288 50.5665 90.6691 50.0149 90.7611 49.2794C90.853 48.9116 90.4852 48.8197 90.0256 48.7278C89.4739 48.5439 89.4739 48.4519 89.6578 47.8084C89.7497 47.6245 89.7497 47.3487 89.6578 47.1648C89.5659 46.9809 89.382 46.797 89.1981 46.797C88.7384 46.5212 88.2787 46.2454 88.2787 45.6938C88.2787 45.1421 88.1868 45.0502 87.6351 45.0502C86.9916 44.9583 86.348 45.2341 86.0722 45.6938C85.8883 46.0615 85.6125 46.3374 85.4286 46.6132C85.2447 46.797 84.877 46.889 84.6931 47.0729C84.2334 47.4406 83.9576 47.9923 83.4979 48.2681C82.6704 49.0036 81.9349 49.7391 81.2914 50.4746C80.7397 50.9343 80.5558 51.7618 80.7397 52.4053C80.8317 53.0489 80.7397 53.6925 80.5558 54.336C80.372 55.4393 80.372 56.5426 80.5558 57.5539C80.5558 58.1975 80.9236 58.841 81.3833 59.2088C81.6591 59.4846 81.5672 59.7604 81.1994 60.0363C81.0155 60.2201 80.8317 60.3121 80.6478 60.496C80.4639 60.6798 80.28 60.9556 80.372 61.3234C80.372 61.5992 80.5558 61.875 80.8317 62.0589C81.6591 62.7025 81.6591 62.7025 81.0155 63.5299C80.8317 63.6219 80.7397 63.8058 80.6478 64.0816C80.372 65.001 79.5445 65.6445 78.5332 65.6445C78.2574 65.7365 77.9815 65.9203 77.7977 66.1962C77.4299 66.6559 77.246 66.6559 76.8783 66.38C76.7863 66.2881 76.7863 66.1042 76.6944 66.0123C76.5105 65.8284 76.3266 65.4607 76.0508 65.4607C75.5911 65.3687 75.1314 65.2768 74.7637 65.7365C74.6717 65.9203 74.4879 66.1042 74.304 66.2881C73.8443 66.6559 73.5685 66.7478 73.1088 66.1962C72.6491 65.6445 71.7297 65.4607 71.0861 66.0123C70.1667 66.38 70.1667 66.2881 69.8909 65.3687C69.707 64.6332 69.6151 63.8977 69.6151 63.1622C69.5232 62.7944 69.4312 62.5186 69.3393 62.1509C69.2473 61.7831 69.3393 61.5073 69.1554 61.1395C68.8796 60.7718 68.9715 60.3121 69.2473 59.9443C69.3393 59.8524 69.4312 59.6685 69.4312 59.4846C69.6151 59.1169 69.6151 58.6572 69.5232 58.2894C69.4312 57.9217 68.8796 57.6458 68.7877 57.1861C68.6957 56.9103 69.1554 56.5426 69.3393 56.1748C69.4312 55.8071 69.4312 55.5312 69.3393 55.1635C69.1554 54.7038 68.7877 54.1522 68.7877 53.6925C68.8796 53.3247 69.3393 52.957 69.6151 52.4973C69.707 52.3134 69.6151 52.1295 69.5232 51.9456C68.5118 50.9343 69.2473 49.831 69.5232 48.7278C69.6151 48.4519 69.6151 48.0842 69.4312 47.8084C69.1554 47.3487 68.6957 46.889 69.3393 46.2454C69.4312 46.0615 69.3393 45.6938 69.3393 45.418C69.2473 44.4066 69.3393 43.3953 69.6151 42.384C69.707 42.0162 69.707 41.6485 69.6151 41.2807C69.2473 40.1774 69.2473 38.9822 69.5232 37.879C69.707 36.9596 69.6151 35.9483 69.4312 35.1208C69.2473 34.2934 69.2473 33.4659 69.4312 32.6384C69.8909 31.2594 69.6151 29.7883 68.8796 28.5931C68.6957 28.4093 68.8796 28.2254 68.8796 28.0415C69.0635 27.4899 69.6151 27.1221 69.6151 26.4785C69.6151 25.835 69.0635 25.5592 68.8796 25.0075C68.7877 24.7317 68.8796 24.7317 69.0635 24.5478C69.3393 23.9042 69.4312 23.1687 69.3393 22.5252C69.2473 22.3413 69.1554 22.0655 68.9715 21.9735C68.6957 21.6977 68.6957 21.4219 68.9715 21.1461C69.1554 21.0541 69.2473 20.9622 69.2473 20.8703C69.4312 20.5944 69.5232 20.3186 69.6151 20.0428C69.6151 19.767 69.707 19.5831 69.799 19.3073C69.2473 19.3992 69.4312 18.9395 69.1554 18.7557C68.6957 18.3879 68.6038 18.0202 69.0635 17.6524C69.5232 17.1927 69.0635 16.4572 69.5232 15.9975C69.6151 15.9056 69.4312 15.3539 69.2473 15.17C68.9715 14.8023 69.0635 14.5265 69.1554 14.1587C69.3393 13.3313 69.3393 12.5038 69.1554 11.6764C69.0635 11.4925 69.1554 11.1247 69.2473 10.9409C69.6151 10.2053 69.6151 9.46984 69.4312 8.73432C69.1554 7.63106 69.1554 6.52779 69.4312 5.51646C69.6151 4.68901 69.6151 3.86156 69.6151 3.03411C69.5232 2.39054 69.707 1.74696 69.9829 1.19533C70.1667 1.01145 70.3506 0.919511 70.5345 0.919511C70.9942 0.827573 71.4539 0.827573 71.9136 0.919511C72.4652 0.919511 73.0168 0.827573 73.5685 0.643698C74.0282 0.459817 74.6717 0.827573 75.1314 0.919511C75.3153 0.919511 75.4073 1.01145 75.5911 1.01145C76.7863 0.735635 77.9815 0.827573 79.1768 1.19533C79.6365 1.37921 80.0961 1.65502 80.5558 2.02278V2.20666C80.4639 3.03411 80.6478 3.76962 81.0155 4.4132C81.1994 4.59707 81.1994 4.78095 81.1994 5.05676C81.1994 5.33258 81.1075 5.51646 80.8317 5.6084C80.5558 5.88422 80.372 6.16003 80.372 6.52779C80.28 6.89554 80.372 7.2633 80.6478 7.53912C80.8317 7.99881 81.2914 8.55044 80.6478 9.01014C80.6478 9.83759 80.6478 10.757 80.6478 11.5844C80.6478 12.0441 80.8317 12.4119 80.4639 12.8716C80.28 13.2393 80.28 13.6071 80.372 13.9748C80.6478 14.9862 80.6478 15.9056 80.4639 16.9169C80.1881 17.9282 80.28 19.0315 80.6478 20.0428V21.8816C80.28 22.6171 80.1881 23.4446 80.4639 24.1801C80.5558 25.0075 80.6478 25.743 80.6478 26.5705C80.6478 27.1221 80.9236 26.8463 81.0155 26.6624C81.1994 26.8463 81.3833 27.0302 81.4752 27.2141C81.5672 27.3979 81.6591 27.6737 81.2914 27.7657C81.0155 27.8576 80.7397 28.0415 80.6478 28.2254C80.4639 28.5012 80.372 28.777 80.372 29.0528C80.372 29.3286 80.5558 29.5125 80.7397 29.6964C81.751 30.4319 81.751 30.4319 81.0155 31.2594C80.6478 31.7191 80.4639 32.7304 80.9236 33.1901C81.6591 33.8337 81.0155 34.2934 80.8317 34.845C80.7397 35.1208 80.1881 35.2127 80.4639 35.5805C80.7397 36.0402 80.9236 36.5918 81.4752 36.7757C81.751 36.7757 81.9349 36.7757 82.1188 36.5918C83.1301 35.5805 84.2334 34.5692 85.2447 33.4659C85.3367 33.282 85.4286 33.0981 85.5205 32.9143C85.5205 32.8223 85.5205 32.6384 85.6125 32.5465C86.7157 32.0868 87.0835 30.8916 88.0948 30.34C88.3706 30.1561 88.5545 29.8803 88.6465 29.6045C88.9223 29.1448 89.0142 28.4093 89.8417 28.5931C90.1175 28.3173 90.3933 27.9496 90.5772 27.5818C90.6691 27.1221 90.853 26.9382 91.4046 26.8463C91.6805 26.8463 91.8643 26.6624 91.9563 26.3866C92.2321 25.835 92.6918 25.4672 93.2434 25.1914C93.4273 25.0075 93.6112 24.8236 93.795 24.6398C94.1628 24.1801 94.6225 23.8123 94.9903 23.4446C95.45 23.0768 95.8177 22.709 96.1855 22.2493L97.4726 20.9622C97.9323 20.5944 98.3001 20.1348 98.6678 19.767C99.2194 19.2154 99.955 18.8476 100.69 18.9395C101.518 18.9395 102.437 18.8476 103.357 18.6637C104.368 18.7557 105.379 18.8476 106.391 18.9395C106.942 19.0315 107.586 18.9395 108.046 18.5718C108.413 18.296 108.965 18.296 109.333 18.5718C109.7 18.7557 110.16 18.8476 110.528 18.9395C110.988 19.0315 111.355 19.3073 111.539 19.767C111.723 20.3186 111.447 20.8703 110.896 21.0541C110.068 21.6058 109.333 22.3413 108.689 23.0768C107.954 23.8123 107.218 24.5478 106.575 25.3753C105.747 26.3866 104.828 27.306 103.816 28.1334C103.724 28.3173 103.357 28.777 102.989 28.4093C102.805 28.4093 102.713 28.5012 102.621 28.5931C102.437 28.9609 102.805 28.777 102.897 28.869C102.897 28.9609 102.897 29.0528 102.897 29.1448C102.621 29.5125 102.253 29.7883 101.886 30.1561C101.794 30.34 101.702 30.5239 101.61 30.7077C101.61 31.0755 101.702 31.6271 101.61 31.811C101.426 31.9949 100.874 31.9029 100.507 31.9949C100.231 31.9949 99.955 32.2707 99.955 32.6384C99.6791 33.6498 99.6791 33.6498 98.7598 33.6498C98.3001 33.6498 98.2081 33.8337 98.2081 34.2014C98.2081 35.2127 98.1162 35.3047 97.1968 35.3966C97.1048 35.3966 97.1048 35.3966 97.0129 35.3966C96.6452 35.3047 96.5532 35.3966 96.5532 35.8563C96.4613 36.2241 96.7371 36.7757 96.3693 37.1435C96.2774 37.2354 96.2774 37.5112 96.3693 37.6032C96.921 38.3387 97.3807 39.0742 97.6565 39.9016C98.0242 40.7291 98.5759 41.4646 99.2194 42.1082C99.7711 42.5679 99.5872 43.3034 100.139 43.7631C100.599 44.0389 100.782 44.6825 101.058 45.1421C101.334 45.5099 101.518 45.9696 101.978 46.0615C102.253 46.0615 102.529 46.2454 102.621 46.4293C102.805 46.7051 102.897 46.9809 102.805 47.2567C102.713 47.6245 102.805 47.9003 103.265 47.9003C103.633 47.9003 103.908 48.0842 104.184 48.2681C104.368 48.36 104.46 48.6358 104.46 48.7278C103.724 49.923 104.644 50.6585 105.195 51.4859C105.931 52.6811 106.85 53.7844 107.494 55.0716C108.229 55.899 108.781 56.8184 109.333 57.8297C109.333 58.0136 109.517 58.1975 109.7 58.1975C110.436 58.3814 110.896 59.2088 110.712 59.9443C110.712 60.3121 110.896 60.5879 111.447 60.5879C111.907 60.5879 112.183 60.9556 112.091 61.4153C112.091 61.967 112.275 62.6105 112.734 62.9783C112.826 63.0702 112.826 63.1622 112.918 63.1622ZM106.023 20.4106C106.023 20.4106 105.931 20.5025 105.931 20.5944C105.931 20.5944 106.023 20.5944 106.023 20.6864L106.115 20.5025L106.023 20.4106ZM102.989 26.9382C102.897 27.0302 102.805 27.1221 102.805 27.2141C102.805 27.2141 102.805 27.306 102.897 27.3979L103.081 27.306L102.989 26.9382ZM101.794 19.4912C101.794 19.5831 101.702 19.5831 101.702 19.5831C101.702 19.6751 101.794 19.767 101.794 19.767C101.794 19.767 101.886 19.767 101.886 19.6751C101.886 19.6751 101.794 19.5831 101.794 19.4912ZM100.047 20.6864L99.955 20.7783L100.139 20.8703L100.231 20.7783C100.139 20.7783 100.139 20.6864 100.047 20.6864ZM99.2194 29.9722C99.2194 30.0642 99.1275 30.0642 99.1275 30.1561C99.0356 30.5239 99.2194 30.9835 99.5872 31.0755C99.6791 31.1674 99.863 31.0755 100.139 30.9835L99.2194 29.9722ZM98.9436 26.8463C98.9436 26.9382 98.8517 26.9382 98.8517 26.9382C98.8517 27.0302 98.9436 27.1221 98.9436 27.1221C98.9436 27.1221 99.0356 27.1221 99.0356 27.0302C99.0356 27.0302 99.0356 26.9382 98.9436 26.8463ZM99.0356 29.7883C99.0356 29.7883 98.9436 29.7883 98.8517 29.7883L98.9436 29.9722H99.1275C99.0356 29.8803 99.0356 29.8803 99.0356 29.7883ZM96.3693 31.7191L96.2774 31.811C96.3693 31.811 96.3693 31.9029 96.3693 31.9949L96.4613 31.9029L96.3693 31.7191ZM69.8909 34.6611C69.9829 34.5692 69.8909 34.4772 69.8909 34.3853C69.8909 34.2014 69.8909 34.0175 69.8909 33.8337C69.8909 33.7417 69.799 33.7417 69.707 33.7417V34.753C69.799 34.753 69.8909 34.6611 69.8909 34.6611ZM70.0748 32.8223L70.2587 32.4546L70.0748 31.9949C69.9829 32.0868 69.9829 32.1788 69.8909 32.3626C69.9829 32.5465 69.9829 32.6384 70.0748 32.8223ZM70.9023 64.2654L70.9942 64.0816L70.9023 63.9896C70.9023 63.9896 70.8103 64.0816 70.8103 64.1735L70.9023 64.2654ZM70.8103 61.2315C70.8103 61.3234 70.9023 61.3234 70.9023 61.4153L70.9942 61.3234C70.9942 61.2315 70.9023 61.2315 70.9023 61.1395L70.8103 61.2315ZM70.9023 11.1247L71.27 10.9409C71.1781 10.8489 71.1781 10.757 71.0861 10.757C70.9942 10.757 70.9023 10.8489 70.8103 10.8489L70.9023 11.1247ZM72.9249 1.93084C72.833 2.02278 72.833 2.02278 72.833 2.02278C72.833 2.11472 72.833 2.20666 72.9249 2.20666L73.0168 2.11472L72.9249 1.93084ZM72.833 26.8463C72.9249 26.8463 73.0168 26.7544 73.0168 26.7544L72.9249 26.6624L72.741 26.7544C72.833 26.7544 72.833 26.8463 72.833 26.8463ZM73.7524 63.0702L73.9362 62.9783C73.8443 62.9783 73.8443 62.8864 73.8443 62.8864C73.7524 62.8864 73.6604 62.9783 73.5685 62.9783L73.7524 63.0702ZM74.1201 11.8602L74.2121 11.7683C74.1201 11.6764 74.0282 11.6764 74.0282 11.6764C73.9362 11.6764 73.9362 11.6764 73.9362 11.7683L74.1201 11.8602ZM75.4073 12.4119C75.5911 12.228 75.6831 12.0441 75.775 11.7683C75.775 11.7683 75.6831 11.5844 75.4992 11.4925C75.3153 11.6764 75.0395 11.7683 75.0395 11.8602C75.1314 12.0441 75.2234 12.228 75.4073 12.4119ZM75.6831 41.2807L75.867 41.1888L75.775 41.0968C75.6831 41.0968 75.6831 41.0968 75.5911 41.1888L75.6831 41.2807ZM75.775 7.07942C75.867 7.07942 76.0508 7.07942 76.1428 6.98749C76.0508 6.89554 76.0508 6.8036 76.0508 6.8036C75.867 6.8036 75.775 6.8036 75.6831 6.89554C75.6831 6.89554 75.6831 7.07942 75.775 7.07942ZM76.8783 17.5605C76.8783 17.4685 76.9702 17.3766 76.9702 17.2846C76.9702 17.1927 76.9702 17.1008 76.8783 16.9169C76.8783 17.0088 76.7863 17.1008 76.7863 17.1927C76.7863 17.2846 76.7863 17.4685 76.8783 17.5605ZM77.7057 37.0515L77.7977 36.9596L77.7057 36.7757C77.7057 36.8676 77.6138 36.8676 77.6138 36.8676C77.7057 36.9596 77.7057 37.0515 77.7057 37.0515ZM77.9815 16.0894C78.0735 16.0894 78.0735 16.0894 78.0735 15.9975C78.0735 15.9975 78.0735 15.9056 77.9815 15.8136C77.9815 15.9056 77.8896 15.9056 77.8896 15.9056C77.9815 15.9975 77.9815 16.0894 77.9815 16.0894ZM78.9009 29.1448L78.9929 28.9609L78.9009 28.869C78.809 28.9609 78.809 28.9609 78.809 29.0528C78.809 29.0528 78.809 29.1448 78.9009 29.1448ZM80.0042 29.1448L80.0961 29.0528C80.0961 28.9609 80.0042 28.9609 79.9123 28.9609C79.9123 28.869 79.9123 28.9609 79.8203 29.0528L80.0042 29.1448ZM83.1301 42.9356C83.1301 42.9356 83.2221 42.9356 83.2221 42.8437L83.0382 42.7517L82.9463 42.8437C83.0382 42.9356 83.1301 42.9356 83.1301 42.9356ZM88.5545 38.4306V38.5225C88.6465 38.4306 88.8303 38.4306 88.9223 38.3387L88.6465 38.1548L88.3706 38.3387C88.4626 38.4306 88.4626 38.4306 88.5545 38.4306ZM90.2094 38.2467C90.2094 38.1548 90.3014 38.1548 90.3014 38.0628C90.2094 38.0628 90.2094 37.9709 90.2094 37.879L90.1175 38.0628L90.2094 38.2467ZM90.9449 30.248C91.0369 30.248 91.1288 30.1561 91.2208 30.1561C91.1288 30.0642 91.1288 30.0642 91.1288 30.0642C91.0369 30.0642 90.9449 30.0642 90.853 30.1561C90.9449 30.1561 90.9449 30.248 90.9449 30.248ZM91.9563 43.2114V43.3034C91.9563 43.1195 92.0482 43.0276 92.0482 42.8437C91.9563 42.7517 91.9563 42.5679 91.8643 42.4759L91.6805 42.9356L91.9563 43.2114ZM93.0595 50.3827H92.9676C93.0595 50.3827 93.0595 50.2907 93.1515 50.2907C93.0595 50.1988 93.0595 50.1068 93.0595 50.1068C92.9676 50.1068 92.9676 50.1988 92.9676 50.1988C92.9676 50.2907 92.9676 50.2907 93.0595 50.3827ZM93.887 41.0049C93.887 41.0049 93.887 40.913 93.9789 40.821C93.887 40.7291 93.7031 40.7291 93.6112 40.7291C93.5192 40.7291 93.5192 40.821 93.5192 40.913C93.6112 41.0049 93.7031 41.0049 93.887 41.0049ZM95.9096 45.2341C96.0016 45.1421 96.0016 44.9583 96.0016 44.8663C96.0016 44.7744 95.9096 44.7744 95.8177 44.7744C95.7258 44.8663 95.7258 44.9583 95.7258 45.1421C95.7258 45.1421 95.8177 45.1421 95.9096 45.2341ZM96.0935 23.1687C96.1855 23.0768 96.1855 23.0768 96.2774 23.0768L96.1855 22.8929L96.0016 23.0768L96.0935 23.1687ZM97.2887 41.0049C97.1968 41.0968 97.1968 41.0968 97.1968 41.0968C97.1968 41.1888 97.1968 41.2807 97.2887 41.2807L97.3807 41.1888C97.3807 41.0968 97.2887 41.0968 97.2887 41.0049ZM97.1968 44.0389V44.1308C97.2887 44.0389 97.3807 44.0389 97.3807 43.9469C97.3807 43.9469 97.3807 43.855 97.2887 43.855C97.2887 43.9469 97.1968 43.9469 97.1048 43.9469C97.1968 44.0389 97.1968 44.0389 97.1968 44.0389ZM98.1162 58.2894L98.2081 58.1975L98.1162 58.0136L98.0242 58.1055C98.0242 58.1975 98.1162 58.1975 98.1162 58.2894ZM99.7711 55.1635C99.863 55.1635 99.863 55.1635 99.863 55.0716C99.863 54.9796 99.863 54.9796 99.7711 54.8877V54.9796C99.7711 55.0716 99.7711 55.0716 99.7711 55.1635ZM104.092 62.2428V62.3347C104.092 62.2428 104.184 62.2428 104.184 62.1509C104.092 62.0589 104.092 62.0589 104.092 61.967C104 61.967 104 62.0589 104 62.0589C104 62.1509 104 62.1509 104.092 62.2428ZM104.092 61.1395L104.184 61.0476C104.092 60.9556 104.092 60.8637 104.092 60.8637C104 60.8637 104 60.9556 104 60.9556C104 61.0476 104 61.0476 104.092 61.1395ZM104.092 58.2894L104.184 58.1975C104.184 58.1055 104.092 58.1055 104 58.1055C104 58.0136 103.908 58.1055 103.908 58.1975L104.092 58.2894ZM105.195 54.8877C105.195 54.9796 105.104 54.9796 105.104 55.0716L105.195 55.1635L105.287 54.9796L105.195 54.8877ZM104.92 65.0929L105.012 65.001L104.92 64.8171C104.92 64.8171 104.828 64.8171 104.828 64.909C104.828 64.909 104.92 65.001 104.92 65.0929ZM105.195 61.4153L105.287 61.3234C105.287 61.2315 105.195 61.1395 105.195 61.1395C105.195 61.1395 105.104 61.1395 105.104 61.2315C105.104 61.2315 105.195 61.3234 105.195 61.4153ZM105.104 57.37V57.462C105.195 57.37 105.287 57.37 105.379 57.2781C105.287 57.2781 105.287 57.1861 105.287 57.1861C105.195 57.1861 105.104 57.2781 105.012 57.2781C105.104 57.2781 105.104 57.37 105.104 57.37ZM106.023 62.5186C106.023 62.5186 106.207 62.4267 106.207 62.3347C106.207 62.2428 106.115 62.0589 106.115 61.967C106.023 62.0589 105.931 62.0589 105.931 62.0589C105.931 62.2428 105.931 62.3347 106.023 62.5186ZM109.241 63.0702L109.333 62.6105L109.149 62.3347C109.057 62.4267 109.057 62.5186 109.057 62.7025C109.057 62.7944 109.149 62.9783 109.241 63.0702ZM129.941 59.8524C129.849 60.404 130.125 60.9556 130.585 61.2315C130.953 61.5073 130.953 61.7831 130.585 62.0589C130.401 62.1509 130.309 62.4267 130.125 62.5186C129.758 62.5186 129.758 62.6105 129.758 62.8864C129.666 63.2541 129.666 63.7138 129.758 64.0816C129.849 64.8171 129.849 64.8171 129.206 65.0929C128.011 65.3687 126.815 65.4607 125.712 65.1848C125.161 65.001 124.701 65.001 124.149 65.0929C123.322 65.3687 122.31 65.3687 121.391 65.0929C121.207 65.0929 121.023 65.001 120.839 65.001C120.38 65.001 119.828 65.0929 119.552 64.8171C119.001 64.3574 118.357 63.9896 118.081 63.2541C117.989 62.8864 117.622 62.7025 117.989 62.4267C118.173 62.2428 118.357 61.967 118.357 61.6912C118.909 60.7718 118.817 60.5879 118.081 59.7604C117.897 59.5766 117.805 59.3927 117.989 59.0249C118.541 58.1975 118.633 57.2781 118.173 56.4506C117.989 55.9909 118.081 55.6232 118.357 55.2554C118.817 54.6119 118.817 53.6925 118.357 52.957C118.173 52.6811 118.081 52.5892 118.265 52.2214C118.449 51.9456 118.357 51.4859 118.357 51.1182C118.541 50.1068 118.173 49.0955 118.633 48.0842C118.725 47.9923 118.725 47.8084 118.633 47.7164C118.357 46.7051 118.357 45.6018 118.633 44.6825C118.909 43.7631 118.817 42.7517 118.357 41.9243C118.357 41.0968 118.449 40.2694 118.541 39.4419C118.725 38.6145 118.817 37.6951 118.633 36.8676C118.357 35.5805 118.357 34.2014 118.633 32.9143C118.817 32.4546 118.725 31.811 118.357 31.3513C117.897 30.8916 118.081 30.248 118.173 29.6964C118.357 29.3286 118.449 29.0528 118.541 28.6851C118.725 28.4093 118.725 28.0415 118.449 27.8576C117.989 27.4899 117.897 26.8463 118.173 26.2947C118.449 25.6511 118.449 24.9156 118.173 24.272C117.989 23.7204 117.897 23.1687 118.265 22.801C118.725 22.4332 118.817 21.8816 118.633 21.4219C118.357 20.7783 118.265 20.1348 118.357 19.5831C118.357 18.8476 118.357 18.1121 118.357 17.4685C118.173 16.733 118.633 16.0894 118.449 15.3539C118.173 14.7104 118.173 13.9748 118.357 13.2393C118.725 12.3199 118.817 11.3086 118.541 10.2973C118.449 9.37789 118.357 8.45851 118.357 7.53912C118.725 6.61973 118.817 5.51646 118.541 4.50513C118.449 3.9535 118.357 3.30993 118.357 2.66635C118.265 1.74696 118.817 1.01145 119.736 0.735635C120.012 0.643698 120.288 0.55176 120.564 0.459817C121.023 0.459817 121.575 0.459817 122.31 0.459817C122.954 0.55176 123.873 0.643698 124.885 0.735635C125.069 0.827573 125.436 0.919511 125.528 0.735635C126.264 0.000122441 127.091 0.367879 127.919 0.55176C128.746 0.643698 129.574 0.919511 129.666 2.02278C129.849 2.48247 130.033 2.94217 130.309 3.30993C130.585 3.4938 130.585 3.86156 130.401 4.13738C129.758 4.87289 129.758 5.97615 130.401 6.71167C130.769 7.2633 130.033 7.35524 130.217 7.72299C129.39 8.45851 129.574 9.28596 130.033 10.0215C130.217 10.2973 130.309 10.757 130.125 11.0328C130.033 11.4006 129.941 11.7683 129.941 12.1361C129.849 13.1474 130.217 14.2507 129.666 15.262C129.666 15.3539 129.666 15.6297 129.758 15.7217C130.125 16.5491 130.125 17.4685 129.849 18.296C129.574 19.1234 129.574 19.9509 129.758 20.7783C129.941 21.7897 129.941 22.801 129.758 23.8123C129.574 24.6398 129.574 25.4672 129.758 26.2027C129.941 26.6624 129.941 27.1221 129.941 27.4899C129.849 28.0415 130.125 28.5931 130.493 28.9609C130.953 29.3286 130.861 29.8803 130.401 29.9722C129.574 30.0642 129.666 30.5239 129.666 30.9835C129.574 31.4432 129.849 31.811 130.217 31.9949C130.953 32.4546 130.953 32.6384 130.401 33.282C130.217 33.5578 130.125 33.7417 129.941 33.9256C129.758 34.2014 129.758 34.4772 129.941 34.753C130.125 34.9369 130.125 35.3047 130.309 35.5805C130.677 35.9483 130.585 36.2241 130.217 36.5918C129.758 37.3273 129.849 38.2467 130.309 38.8903C130.585 39.2581 130.585 39.4419 130.309 39.7177C130.217 39.8097 130.217 40.0855 130.125 40.1774C129.574 40.6371 129.482 41.4646 129.941 42.0162C130.125 42.292 130.309 42.6598 130.217 42.8437C129.941 44.1308 129.849 45.418 129.941 46.7051C129.941 46.889 129.941 47.0729 129.849 47.2567C129.666 47.4406 129.666 47.6245 129.849 47.8084C129.941 47.9003 129.941 48.0842 129.941 48.1761C129.849 48.7278 129.758 49.1875 129.849 49.7391C129.941 50.1988 129.941 50.6585 129.758 51.1182C129.666 51.8537 129.666 52.5892 129.849 53.3247C130.125 54.2441 130.125 55.2554 129.849 56.1748C129.758 57.0023 129.666 57.8297 129.666 58.6572C130.125 58.933 130.033 59.3927 129.941 59.8524ZM129.941 29.7883C129.849 29.6964 129.758 29.7883 129.758 29.7883L129.849 29.9722H130.033C129.941 29.8803 129.941 29.7883 129.941 29.7883ZM118.817 19.4912L118.909 19.3992C118.909 19.3073 118.817 19.3073 118.817 19.2154L118.725 19.3073C118.725 19.3992 118.725 19.3992 118.817 19.4912ZM119.644 59.9443L119.736 59.8524L119.644 59.6685C119.644 59.7604 119.552 59.7604 119.552 59.7604C119.552 59.8524 119.644 59.9443 119.644 59.9443ZM120.748 57.0942C120.839 57.0942 120.839 57.0023 120.931 57.0023L120.839 56.9103C120.748 56.9103 120.748 57.0023 120.656 57.0023L120.748 57.0942ZM123.046 28.869C123.046 28.777 123.138 28.777 123.138 28.777C123.138 28.6851 123.046 28.5931 123.046 28.5012L122.954 28.6851L123.046 28.869ZM123.873 22.6171L123.965 22.5252L123.873 22.3413L123.782 22.4332C123.873 22.4332 123.873 22.5252 123.873 22.6171ZM124.793 8.64239L124.885 8.55044C124.793 8.55044 124.793 8.55044 124.701 8.45851L124.609 8.55044L124.793 8.64239ZM125.896 43.3034C125.896 43.3034 125.804 43.3034 125.804 43.3953C125.804 43.3953 125.804 43.4872 125.896 43.5792L125.988 43.4872L125.896 43.3034ZM125.896 59.1169L125.988 59.0249L125.896 58.841L125.804 58.933C125.804 59.0249 125.804 59.0249 125.896 59.1169ZM125.804 48.7278L125.896 48.9116L125.988 48.8197C125.988 48.7278 125.896 48.7278 125.896 48.6358L125.804 48.7278ZM125.804 44.0389L125.988 43.9469C125.988 43.9469 125.988 43.855 125.896 43.855C125.896 43.9469 125.804 43.9469 125.712 43.9469L125.804 44.0389ZM126.264 26.8463C126.356 26.8463 126.54 26.7544 126.632 26.7544C126.54 26.6624 126.448 26.5705 126.356 26.5705C126.264 26.5705 126.172 26.6624 125.988 26.7544C126.08 26.7544 126.172 26.8463 126.264 26.8463ZM126.724 29.4206L126.815 29.3286L126.724 29.1448C126.724 29.1448 126.632 29.1448 126.632 29.2367C126.632 29.2367 126.724 29.3286 126.724 29.4206ZM127.827 35.5805L128.011 35.4886L127.919 35.3966C127.827 35.3966 127.827 35.4886 127.735 35.4886L127.827 35.5805ZM150.143 59.4846C150.143 59.8524 150.327 60.1282 150.603 60.3121C151.062 60.5879 151.062 60.8637 150.786 61.2315C150.694 61.3234 150.511 61.5073 150.327 61.5992C149.775 62.0589 149.591 62.7944 149.959 63.438C150.051 63.5299 150.143 63.8058 150.051 63.8977C149.683 64.1735 149.223 64.2654 148.948 64.5413C148.58 64.8171 148.212 64.8171 147.844 64.7251C147.017 64.5413 146.189 64.5413 145.362 64.7251C144.535 64.909 143.615 64.909 142.788 64.7251C142.052 64.6332 141.225 64.5413 140.489 64.5413C139.018 64.5413 138.834 64.4493 138.559 62.9783C138.467 62.7944 138.467 62.6105 138.375 62.6105C137.639 62.1509 138.099 61.5073 138.375 61.2315C138.65 60.9556 138.834 60.5879 138.834 60.2201C138.834 59.7604 138.742 59.3927 138.467 59.1169C138.191 58.7491 138.191 58.2894 138.283 57.8297C138.559 57.0023 138.559 56.1748 138.283 55.3474C138.191 55.1635 138.191 54.8877 138.283 54.7957C138.742 54.336 138.467 53.6925 138.559 53.2328C138.65 52.2214 138.283 51.3021 138.834 50.2907C138.926 50.0149 138.926 49.6472 138.834 49.3713C138.467 48.1761 138.467 46.889 138.559 45.6938C139.11 44.8663 138.742 44.0389 138.834 43.2114C138.375 42.7517 138.559 42.1082 138.559 41.4646C138.65 40.5452 138.742 39.6258 138.834 38.6145C138.926 38.1548 138.834 37.6032 138.559 37.2354C138.283 36.8676 138.191 36.4079 138.375 35.9483C138.559 35.4886 138.742 35.0289 138.834 34.5692C138.834 34.2934 138.926 33.9256 138.742 33.7417C138.467 33.4659 138.559 33.0981 138.559 32.7304C138.559 32.2707 138.926 31.9029 138.559 31.3513C138.375 31.0755 138.559 30.5239 138.283 30.0642C138.099 29.6045 138.099 29.1448 138.467 28.777C138.742 28.5012 138.926 28.2254 138.926 27.8576C138.926 27.4899 138.742 27.2141 138.467 26.9382C138.099 26.5705 138.191 26.0188 138.283 25.6511C138.467 24.7317 138.467 23.9042 138.283 22.9849C138.191 22.709 138.375 22.4332 138.559 22.1574C138.65 21.6977 139.018 21.33 138.65 20.7783C138.375 20.3186 138.559 19.5831 138.559 18.9395C138.559 18.8476 138.65 18.7557 138.742 18.6637C139.294 18.3879 139.938 18.0202 140.489 17.7443C140.765 17.4685 141.133 17.3766 141.501 17.5605C142.052 18.0202 142.604 17.7443 143.064 17.8363C143.339 17.8363 143.523 17.7443 143.707 17.5605C144.443 17.1008 144.443 17.1008 145.086 17.7443C145.454 18.0202 145.73 18.296 146.281 17.9282C146.465 17.7443 146.833 17.6524 147.109 17.5605C147.477 17.4685 147.936 17.4685 148.304 17.5605C148.856 17.9282 149.407 18.296 149.867 18.7557C149.867 18.8476 149.867 18.9395 149.867 19.0315C149.867 20.3186 150.051 21.6058 150.235 22.8929C150.143 23.6284 150.051 24.3639 149.867 25.0075C149.683 25.835 150.143 26.6624 150.143 27.4899C150.143 27.6737 150.419 27.8576 150.603 28.0415C151.154 28.4093 151.154 28.5012 150.786 28.9609C150.603 29.2367 150.327 29.3286 150.143 29.6045C149.683 30.1561 149.775 30.7077 150.419 31.1674C150.511 31.1674 150.694 31.2594 150.786 31.3513C151.062 31.5352 151.154 31.7191 150.878 31.9949C150.419 32.3626 150.143 33.0062 150.143 33.5578C150.143 33.8337 150.235 34.2014 150.419 34.4772C150.878 34.9369 150.786 35.3047 150.327 35.8563C150.051 36.1321 149.867 36.4999 149.867 36.9596C149.867 37.3273 150.051 37.787 150.327 37.9709C150.694 38.3387 150.97 38.6145 150.511 39.0742C150.051 39.6258 149.867 40.5452 150.235 41.2807C150.419 41.6485 150.419 42.1082 150.235 42.5679C150.051 43.2114 149.959 44.0389 150.235 44.6825C150.419 45.2341 150.327 45.8777 150.051 46.3374C149.867 46.7051 149.775 47.1648 149.867 47.6245C150.143 48.9116 150.143 50.1988 149.867 51.394C149.775 52.2214 149.775 53.0489 150.051 53.8763C150.235 54.7038 150.235 55.6232 150.051 56.4506C149.775 57.462 149.775 58.5652 150.143 59.4846ZM139.202 63.438C139.294 63.3461 139.294 63.2541 139.294 63.2541C139.294 63.1622 139.294 63.1622 139.202 63.1622L139.11 63.3461L139.202 63.438ZM139.202 35.1208L139.386 34.9369L139.202 34.845C139.202 34.845 139.202 34.9369 139.11 35.0289C139.11 35.0289 139.202 35.0289 139.202 35.1208ZM139.478 59.4846C139.57 59.3927 139.57 59.3927 139.57 59.3927C139.57 59.3007 139.57 59.2088 139.478 59.1169C139.478 59.2088 139.478 59.2088 139.478 59.2088C139.478 59.3007 139.478 59.3927 139.478 59.4846ZM139.478 20.1348V20.0428C139.57 20.0428 139.57 20.0428 139.57 20.0428C139.57 19.9509 139.57 19.8589 139.478 19.8589C139.478 19.8589 139.478 19.8589 139.478 19.9509C139.478 19.9509 139.478 20.0428 139.478 20.1348ZM142.328 31.9949L142.42 31.811L142.328 31.7191C142.328 31.811 142.328 31.811 142.236 31.9029L142.328 31.9949ZM142.328 31.3513L142.512 31.2594C142.512 31.1674 142.512 30.9835 142.42 30.8916C142.328 30.8916 142.236 30.9835 142.236 30.9835C142.236 31.1674 142.236 31.2594 142.328 31.3513ZM143.155 41.5565C143.247 41.5565 143.247 41.4646 143.339 41.4646L143.247 41.3727C143.155 41.3727 143.155 41.4646 143.064 41.4646L143.155 41.5565ZM144.351 60.3121L144.443 60.2201L144.351 60.0363L144.259 60.1282C144.259 60.1282 144.259 60.2201 144.351 60.3121ZM145.454 39.35L145.546 39.2581C145.546 39.1661 145.454 39.1661 145.454 39.0742L145.362 39.1661C145.362 39.2581 145.454 39.2581 145.454 39.35ZM145.454 21.238C145.454 21.1461 145.546 21.1461 145.546 21.1461C145.546 21.0541 145.454 20.9622 145.454 20.9622L145.362 21.0541C145.362 21.1461 145.454 21.1461 145.454 21.238ZM146.281 37.3273C146.373 37.3273 146.373 37.3273 146.373 37.2354C146.373 37.2354 146.373 37.1435 146.281 37.0515L146.189 37.1435L146.281 37.3273ZM146.649 26.2947C146.649 25.9269 146.741 25.6511 146.741 25.3753C146.741 25.1914 146.741 25.0075 146.741 24.8236C146.741 24.7317 146.557 24.6398 146.557 24.6398L146.465 24.7317C146.465 24.9156 146.465 25.0995 146.465 25.2833C146.557 25.6511 146.281 26.0188 146.649 26.2947ZM147.201 58.2894L147.293 58.1055L147.201 57.7378C147.109 57.8297 147.017 57.9217 147.017 57.9217C147.017 58.1055 147.109 58.1975 147.201 58.2894ZM147.477 30.248L147.66 29.1448C147.477 28.6851 147.752 28.2254 147.385 27.7657C147.293 28.2254 147.293 28.6851 147.293 29.1448C147.385 29.5125 147.109 29.9722 147.477 30.248ZM147.752 31.4432L148.12 31.3513C148.028 31.2594 147.936 31.1674 147.844 31.1674C147.752 31.1674 147.66 31.1674 147.66 31.2594L147.752 31.4432ZM148.212 24.8236C148.304 24.8236 148.396 24.8236 148.396 24.7317C148.396 24.6398 148.396 24.4559 148.396 24.3639C148.304 24.4559 148.12 24.4559 148.12 24.4559C148.212 24.6398 148.212 24.7317 148.212 24.8236ZM148.856 38.2467C148.856 38.1548 148.948 38.1548 148.948 38.1548C148.948 38.0628 148.856 37.9709 148.856 37.9709C148.856 37.9709 148.764 37.9709 148.764 38.0628C148.764 38.0628 148.856 38.1548 148.856 38.2467ZM149.407 62.2428C149.499 62.2428 149.499 62.1509 149.499 62.0589C149.499 62.0589 149.499 62.0589 149.407 61.967L149.315 62.1509L149.407 62.2428ZM138.559 7.72299C138.834 6.0681 139.018 5.79228 138.375 4.50513C138.283 4.4132 138.191 4.22931 138.283 4.13738C138.559 3.40186 138.467 2.48247 139.018 1.93084C139.294 1.65502 139.478 1.28727 139.938 1.37921C140.121 1.47115 140.397 1.19533 140.581 1.19533C141.317 1.19533 141.96 0.459817 142.696 1.10339C143.339 1.01145 143.891 1.28727 144.535 1.01145C144.994 0.735635 145.454 0.827573 145.914 1.01145C146.557 1.37921 147.385 1.19533 147.844 0.735635C148.028 0.55176 148.212 0.459817 148.488 0.55176C148.672 0.55176 148.948 0.643698 149.04 0.827573C149.499 1.47115 149.959 2.02278 150.511 2.48247C150.603 2.57441 150.694 2.75829 150.694 2.94217C150.694 3.12605 150.603 3.30993 150.511 3.4938L150.419 3.58574C149.499 4.50513 149.407 4.59707 150.235 5.6084C150.694 6.0681 150.694 6.52779 150.419 6.89554C149.775 7.63106 149.499 8.27463 150.327 9.10208C150.603 9.46984 150.511 10.0215 150.235 10.2973C149.683 10.757 149.223 11.2167 148.764 11.6764C148.58 11.7683 148.396 11.8602 148.212 11.8602C147.477 11.8602 146.833 11.8602 146.189 11.8602V11.9522C144.902 11.8602 143.523 11.6764 142.236 11.5844C141.868 11.5844 141.593 11.6764 141.317 11.7683C140.397 12.1361 139.386 11.6764 138.926 10.757C138.467 9.83759 138.283 8.73432 138.559 7.72299ZM148.028 10.757C147.844 10.757 147.752 10.757 147.66 10.8489C147.66 10.9409 147.66 11.0328 147.752 11.0328C147.844 11.0328 148.028 11.0328 148.12 10.9409C148.028 10.8489 148.028 10.757 148.028 10.757ZM199.951 57.2781C200.594 57.8297 200.594 57.8297 200.043 58.4733C199.767 58.6572 199.675 59.0249 199.675 59.3927C199.583 59.7604 199.767 60.0363 200.043 60.3121C200.135 60.496 200.319 60.7718 200.41 60.9556C200.41 61.1395 200.41 61.3234 200.319 61.4153C200.135 61.6912 199.859 61.967 199.675 62.1509C199.491 62.3347 199.307 62.6105 199.307 62.8864C199.399 63.2541 199.215 63.7138 198.939 64.0816C198.572 64.3574 198.112 64.5413 197.744 64.5413C196.825 64.5413 195.997 64.6332 195.17 64.5413C194.894 64.5413 194.618 64.4493 194.342 64.5413C193.423 64.909 192.32 64.909 191.4 64.5413C190.849 64.4493 190.297 64.4493 189.746 64.5413C189.562 64.5413 189.286 64.5413 189.194 64.4493C189.01 63.8977 188.642 63.438 188.366 63.0702C187.815 62.4267 188.091 61.967 188.366 61.4153C188.826 60.7718 188.734 59.8524 188.183 59.2088C187.999 59.0249 187.999 58.6572 188.091 58.3814C188.458 57.8297 188.275 57.37 188.366 56.8184C188.366 56.6345 188.366 56.5426 188.366 56.3587C187.999 55.4393 187.999 55.3474 188.366 54.7038C188.734 54.1522 188.734 53.4167 188.275 52.957C187.999 52.5892 187.631 52.1295 188.183 51.4859C188.366 51.1182 188.55 50.6585 188.642 50.1988C188.642 50.1068 188.55 49.923 188.458 49.831C187.999 49.5552 187.907 48.9116 188.183 48.4519C188.366 47.9923 188.366 47.5326 188.366 47.0729C188.275 46.2454 188.366 45.418 188.55 44.5905C188.642 44.0389 188.642 43.3953 188.458 42.9356C188.275 41.9243 188.275 41.0049 188.366 40.0855C188.642 39.0742 188.642 38.0628 188.366 37.0515C188.366 36.6838 188.275 36.316 188.366 35.9483C188.275 35.3966 188.458 34.845 187.907 34.3853C187.723 34.2014 187.815 33.6498 187.907 33.374C187.999 33.1901 188.091 33.0062 188.091 32.8223C187.999 32.6384 187.907 32.4546 187.723 32.3626C187.631 32.1788 187.539 31.9949 187.539 31.9029C186.895 30.7997 186.16 29.7883 185.241 28.9609C185.149 28.777 184.597 28.869 184.505 28.5931C184.137 28.1334 183.494 28.777 183.126 28.3173C182.85 27.9496 182.207 27.9496 181.747 27.6737C181.195 27.4899 180.644 27.4899 180.092 27.6737C179.54 27.9496 178.897 27.9496 178.253 27.7657C177.885 27.5818 177.793 27.7657 177.61 27.8576C177.334 28.2254 177.15 28.6851 176.874 28.869C176.414 28.9609 175.955 29.0528 175.495 28.9609C175.035 28.869 174.484 29.0528 174.208 29.4206C173.472 30.1561 172.737 30.8916 172.001 31.5352C171.726 31.811 171.726 32.2707 171.909 32.5465C172.185 33.1901 172.185 33.374 171.542 33.5578C170.714 34.0175 170.163 34.845 170.163 35.7644C169.979 36.1321 169.887 36.4079 169.887 36.7757C169.887 37.0515 170.163 37.3273 170.071 37.6032C170.071 38.3387 169.887 38.9822 169.703 39.6258C169.703 39.8097 169.519 39.9016 169.611 39.9936C169.887 41.2807 169.979 42.6598 169.795 44.0389C169.887 44.7744 169.611 45.5099 169.611 46.2454C169.611 47.2567 169.795 48.1761 169.887 49.1875C170.438 49.4633 170.071 49.923 169.887 50.1988C169.519 50.7504 169.519 51.4859 169.611 52.1295C169.611 52.3134 169.703 52.4053 169.887 52.4973C169.979 52.6811 170.163 52.6811 170.254 52.6811C170.53 52.5892 170.714 52.6811 170.714 53.0489C170.714 53.2328 170.714 53.4167 170.346 53.5086C170.163 53.5086 169.887 53.8763 169.887 54.0602C169.887 54.5199 169.611 55.0716 170.071 55.4393C170.254 55.6232 170.53 55.8071 170.622 56.0829C170.714 56.2668 170.898 56.6345 170.438 56.8184C170.163 56.9103 169.979 57.0942 169.795 57.2781C169.611 57.462 169.519 57.6458 169.703 57.8297C169.795 58.0136 169.795 58.1975 169.887 58.2894C170.163 58.7491 170.714 59.1169 170.622 59.4846C170.622 59.8524 170.071 60.2201 169.795 60.5879C169.519 61.0476 169.519 61.5073 169.795 61.875C170.622 62.8864 170.622 62.8864 169.519 63.7138C169.151 63.8977 168.875 64.2654 168.783 64.6332C168.508 65.1848 168.232 65.1848 167.68 64.909C167.037 64.5413 166.301 64.1735 165.566 64.8171C165.014 64.7251 164.37 65.001 163.727 64.6332C163.451 64.4493 163.083 64.4493 162.807 64.5413C162.164 64.909 161.428 64.909 160.785 64.6332C159.957 64.3574 159.498 63.6219 158.946 63.0702C158.854 62.9783 158.854 62.8864 158.854 62.7025C158.854 62.0589 158.762 61.4153 158.578 60.7718C158.486 60.496 158.67 60.1282 158.854 59.7604C159.222 59.1169 159.13 58.1975 158.486 57.6458C158.21 57.462 158.21 57.2781 158.486 57.0023C158.946 56.3587 158.946 55.3474 158.486 54.7038C158.21 54.428 158.21 53.9683 158.394 53.6925C158.578 53.4167 158.762 53.1408 158.762 52.7731C158.854 52.1295 158.946 51.4859 158.21 51.1182C157.843 50.8424 157.935 50.5665 158.21 50.2907C158.394 50.1988 158.578 50.0149 158.762 49.831C159.13 49.2794 159.13 48.9116 158.67 48.2681C158.578 48.0842 158.486 47.9003 158.394 47.7164C158.302 47.5326 158.302 47.2567 158.302 47.2567C158.946 46.7051 159.13 45.8777 158.762 45.2341C158.486 44.4066 158.578 43.4872 158.946 42.7517C159.038 42.5679 159.038 42.292 158.946 42.2001C158.578 41.3727 158.486 40.3613 158.762 39.5339C158.946 38.6145 158.946 37.6951 158.67 36.8676C158.578 35.9483 158.486 34.9369 158.578 34.0175C159.038 33.6498 158.854 33.1901 158.854 32.7304C158.854 32.0868 158.854 31.3513 158.854 30.7077C158.854 30.4319 158.946 30.1561 158.854 29.9722C158.21 29.3286 158.854 28.6851 158.854 28.0415C159.498 27.3979 158.946 26.8463 158.578 26.3866C158.21 25.743 158.21 25.743 158.578 25.1914C158.946 24.4559 158.946 23.7204 158.578 23.0768C158.21 22.709 158.302 22.5252 158.486 22.1574C158.762 21.7897 158.854 21.33 158.854 20.8703C158.762 20.4106 158.946 20.0428 159.13 19.6751C159.314 19.4912 159.498 19.3073 159.682 19.3073C160.233 19.2154 160.693 19.1234 161.244 18.9395C161.888 18.5718 162.715 18.6637 163.267 19.1234C163.451 19.2154 163.635 19.2154 163.727 19.1234C164.462 19.0315 165.198 18.5718 165.933 18.7557C166.761 18.9395 167.772 19.0315 168.692 19.0315C168.875 18.9395 168.967 19.0315 169.151 19.1234C169.243 19.2154 169.335 19.3992 169.335 19.5831C169.243 20.0428 169.151 20.5025 169.151 20.8703C169.243 21.33 169.703 21.7897 169.519 22.2493C169.427 22.709 169.795 22.9849 170.163 23.2607C170.254 23.3526 170.346 23.4446 170.53 23.4446C170.714 23.4446 170.898 23.3526 170.99 23.2607C171.542 22.4332 172.645 22.2493 173.013 21.238C173.105 20.9622 173.472 20.7783 173.748 20.7783C174.208 20.5944 174.576 20.3186 174.759 19.9509C174.943 19.4912 175.311 19.3073 175.771 19.3073C176.506 19.2154 177.242 19.0315 177.885 18.8476C178.805 18.6637 179.632 18.3879 180.46 17.9282C181.103 17.7443 181.839 17.7443 182.482 17.9282C183.402 18.1121 184.413 18.204 185.424 18.1121C185.608 18.1121 185.792 17.8363 186.16 17.8363C186.252 17.8363 186.344 17.8363 186.436 17.8363C186.895 18.0202 187.355 18.204 187.815 18.296C188.642 18.4799 189.286 19.1234 190.113 18.4799C190.205 18.3879 190.481 18.4799 190.573 18.5718C191.492 19.4912 192.504 20.3186 193.607 20.9622C194.342 21.5138 195.078 22.0655 195.722 22.709C196.549 23.6284 197.285 24.8236 197.744 26.0188C197.744 26.1108 197.836 26.2947 197.928 26.4785C198.02 27.0302 198.572 27.2141 198.756 27.6737C198.939 28.0415 198.664 28.6851 198.939 29.0528C199.123 29.6045 199.123 30.1561 199.031 30.6158C199.031 31.1674 199.215 31.7191 199.675 32.0868C200.319 32.7304 200.41 32.8223 199.859 33.6498C199.583 34.2014 199.491 34.845 199.767 35.3966C199.859 35.6724 199.951 36.0402 199.859 36.316C199.491 37.2354 199.491 38.3387 199.859 39.2581C199.951 39.4419 199.767 39.8097 199.675 39.9936C199.399 40.6371 199.031 41.2807 199.583 42.0162C199.675 43.2114 199.675 44.4986 199.491 45.7857C199.307 46.4293 199.307 47.1648 199.491 47.9003C199.675 48.9116 199.675 49.923 199.491 50.9343C199.215 51.7618 199.307 52.5892 199.675 53.3247C199.767 53.6005 199.859 53.7844 199.951 53.8763C200.594 54.5199 200.594 54.428 200.135 55.0716C199.859 55.2554 199.767 55.4393 199.675 55.7151C199.307 56.5426 199.307 56.5426 199.951 57.2781ZM159.498 44.3147L159.59 44.2228C159.59 44.2228 159.498 44.1308 159.498 44.0389L159.406 44.1308L159.498 44.3147ZM160.601 41.5565L160.693 41.3727L160.601 41.2807C160.601 41.3727 160.509 41.4646 160.509 41.4646L160.601 41.5565ZM165.29 25.835L165.382 25.743L165.29 25.5592L165.198 25.6511C165.198 25.743 165.29 25.743 165.29 25.835ZM166.117 25.0075L166.209 24.8236L166.117 24.7317C166.117 24.8236 166.025 24.8236 166.025 24.9156L166.117 25.0075ZM166.393 40.7291L166.485 40.6371C166.485 40.5452 166.393 40.5452 166.301 40.5452C166.301 40.5452 166.301 40.5452 166.209 40.6371L166.393 40.7291ZM166.945 56.1748C166.945 56.1748 167.037 56.0829 167.037 55.9909L166.945 55.899L166.853 56.0829L166.945 56.1748ZM167.221 40.4533L167.312 40.2694L167.221 40.1774C167.221 40.2694 167.129 40.2694 167.129 40.3613L167.221 40.4533ZM171.909 23.9042L172.001 23.7204L171.909 23.6284C171.909 23.6284 171.817 23.7204 171.817 23.8123L171.909 23.9042ZM175.219 20.8703L175.311 20.6864L175.219 20.5944C175.219 20.6864 175.127 20.6864 175.127 20.7783L175.219 20.8703ZM183.126 24.6398L183.218 24.7317C183.31 24.7317 183.402 24.7317 183.586 24.7317V24.4559C183.402 24.4559 183.31 24.4559 183.126 24.4559V24.6398ZM184.137 22.6171V22.5252C184.137 22.5252 184.045 22.5252 183.953 22.6171C183.953 22.6171 184.045 22.709 184.045 22.801L184.137 22.6171ZM184.321 22.5252C184.321 22.5252 184.413 22.4332 184.413 22.3413L184.321 22.2493L184.137 22.4332L184.321 22.5252ZM185.149 27.7657C185.149 27.6737 185.241 27.6737 185.241 27.5818L185.149 27.4899L185.057 27.6737L185.149 27.7657ZM185.516 25.835C185.424 26.0188 185.332 26.1108 185.332 26.2027L185.516 26.2947L185.884 25.9269C185.7 25.9269 185.516 25.835 185.516 25.835ZM185.7 28.869C186.068 28.6851 186.252 28.3173 186.068 27.9496C186.068 27.8576 185.976 27.8576 185.976 27.7657C185.7 27.9496 185.516 28.2254 185.332 28.4093C185.241 28.5012 185.332 28.6851 185.332 28.869C185.424 28.869 185.608 28.869 185.7 28.869ZM186.803 23.9042C186.895 23.8123 186.895 23.7204 186.987 23.5365C186.987 23.4446 186.895 23.4446 186.803 23.3526L186.712 23.6284L186.803 23.9042ZM189.562 28.869L189.654 28.777L189.562 28.5931L189.47 28.6851C189.562 28.777 189.562 28.777 189.562 28.869ZM190.941 54.2441L191.033 54.1522C191.033 54.0602 191.033 53.9683 190.941 53.9683L190.849 54.0602C190.941 54.0602 190.941 54.1522 190.941 54.2441ZM190.941 50.5665V50.6585C190.941 50.5665 191.033 50.5665 191.125 50.4746L191.033 50.3827L190.849 50.4746C190.849 50.5665 190.849 50.5665 190.941 50.5665ZM191.033 34.845L191.125 34.753C191.033 34.753 190.941 34.753 190.941 34.6611C190.849 34.6611 190.849 34.753 190.849 34.753L191.033 34.845ZM192.871 48.4519C192.871 48.36 192.963 48.36 192.963 48.2681L192.871 48.1761L192.78 48.36L192.871 48.4519ZM192.963 34.6611C192.963 34.5692 192.963 34.3853 192.963 34.2014C192.963 34.2014 192.871 34.2014 192.871 34.1095C192.78 34.2014 192.78 34.3853 192.78 34.4772C192.78 34.5692 192.871 34.5692 192.963 34.6611ZM193.975 49.2794L194.067 49.1875L193.975 49.0036L193.883 49.0955C193.883 49.0955 193.975 49.1875 193.975 49.2794ZM196.733 34.3853C196.733 34.4772 196.641 34.4772 196.641 34.4772C196.641 34.4772 196.733 34.5692 196.733 34.6611L196.825 34.5692L196.733 34.3853ZM195.905 53.4167L195.997 53.3247L195.905 53.1408L195.814 53.2328C195.814 53.2328 195.905 53.3247 195.905 53.4167ZM196.733 53.1408L196.825 52.957L196.733 52.865C196.733 52.865 196.641 52.957 196.641 53.0489C196.641 53.0489 196.733 53.0489 196.733 53.1408ZM196.733 51.4859L196.825 51.3021L196.733 51.2101C196.733 51.2101 196.641 51.3021 196.641 51.394C196.641 51.394 196.733 51.394 196.733 51.4859ZM196.733 42.292V42.384C196.733 42.292 196.825 42.292 196.917 42.2001L196.733 42.1082L196.641 42.2001C196.641 42.292 196.641 42.292 196.733 42.292ZM197.009 36.5918L197.101 36.4999C197.101 36.4079 197.009 36.316 197.009 36.316L196.917 36.4079C196.917 36.4079 197.009 36.4999 197.009 36.5918ZM198.664 34.6611L198.756 34.5692L198.664 34.3853L198.572 34.4772C198.572 34.4772 198.664 34.5692 198.664 34.6611ZM252.304 64.5413C252.212 64.6332 252.028 64.8171 251.845 64.909C251.661 65.0929 251.569 65.2768 251.569 65.4607C251.569 65.6445 251.661 65.9203 251.845 66.0123C252.028 66.1962 252.12 66.38 252.212 66.5639C252.58 67.2994 252.58 67.3914 252.028 67.8511C251.569 68.2188 251.569 68.7705 251.385 69.2302C251.109 69.6898 251.661 70.0576 251.937 70.2415C252.12 70.5173 252.028 70.977 251.753 70.977C251.477 70.8851 251.201 70.977 250.925 71.1609C250.741 71.3447 250.557 71.7125 250.557 71.9883C250.465 72.7238 250.19 73.3674 249.73 73.919C249.362 74.4707 249.086 75.2062 248.719 75.7578C248.535 76.0336 248.443 76.3094 248.535 76.6772C248.443 77.5966 248.535 77.6885 247.523 77.7805C247.156 77.7805 246.88 78.0563 246.788 78.424C246.788 78.9757 246.328 79.4354 245.777 79.5273C245.409 79.5273 245.041 79.8951 245.133 80.2628C245.133 80.4467 245.041 80.6306 244.857 80.8145C244.673 80.9064 244.489 80.9983 244.306 80.9064C244.122 80.9064 243.938 80.9064 243.662 80.9064C243.018 80.9983 242.926 81.0903 243.11 81.9177C243.202 82.1935 243.11 82.3774 242.743 82.3774C242.651 82.2855 242.467 82.2855 242.283 82.1935C241.731 82.0097 241.18 82.0097 240.72 82.2855C240.444 82.5613 239.984 82.6532 239.617 82.6532C238.973 82.6532 238.513 83.2049 238.054 83.6646C237.686 84.0323 237.41 84.2162 236.859 83.8484C236.583 83.7565 236.123 83.6646 235.939 83.8484C235.387 84.3081 234.836 84.0323 234.376 84.0323C233.549 84.0323 232.813 84.0323 232.354 84.7678C232.17 85.0436 231.986 84.9517 231.802 84.7678C231.434 84.492 231.066 84.3081 230.607 84.3081C230.147 84.3081 229.779 84.584 229.503 84.8598C228.86 85.4114 228.676 85.3195 228.124 84.584C227.94 84.2162 227.573 84.0323 227.205 84.0323C226.837 84.0323 226.469 84.2162 226.194 84.492C226.102 84.6759 225.918 84.8598 225.734 84.9517C225.366 85.2275 225.182 85.2275 224.906 84.9517C224.539 84.584 224.171 84.2162 223.711 84.0323C223.343 83.8484 223.16 83.6646 222.7 83.9404C222.608 84.0323 222.148 84.1243 222.148 84.0323C221.597 83.2049 220.585 83.7565 219.85 83.2049C219.574 83.1129 219.206 82.9291 218.838 82.9291C218.471 82.8371 218.103 82.4694 217.643 82.9291C217.459 83.1129 216.908 82.9291 216.632 82.8371C216.264 82.7452 216.264 82.3774 216.172 82.0097C216.172 81.8258 215.896 81.6419 215.621 81.55C214.517 80.9064 213.506 80.0789 212.679 79.1596C212.311 78.8837 212.127 78.424 211.851 78.1482C211.575 77.8724 211.116 77.6885 210.84 77.4127C210.38 76.953 209.92 76.4014 209.645 75.7578C209.461 75.1142 209.093 74.4707 208.541 74.011C208.174 73.7352 208.266 73.4593 208.266 73.0916C208.357 72.54 208.266 71.8964 207.898 71.4367C207.622 70.6092 207.622 69.7818 207.806 68.9543C207.898 68.4946 208.357 68.1269 208.817 68.2188C209.461 68.3108 210.104 68.1269 210.656 67.7591C210.748 67.6672 210.932 67.5752 211.116 67.6672C212.035 68.1269 212.954 67.8511 213.874 67.943C214.425 68.0349 215.069 67.7591 215.529 68.2188C215.988 67.8511 216.632 67.943 217.184 67.943C217.827 67.8511 218.471 68.2188 218.747 68.8624C218.838 69.0463 218.838 69.2302 218.93 69.3221C219.666 69.8737 220.126 70.8851 219.942 71.8044C219.942 71.9883 220.218 72.448 220.31 72.448C220.769 72.3561 221.137 72.6319 221.229 72.9996C221.229 73.1835 221.597 73.1835 221.781 73.3674C221.964 73.5513 222.056 73.6432 222.24 73.3674C222.608 73.5513 223.16 73.7352 223.252 74.1029C223.435 74.6545 223.803 74.7465 224.171 74.8384C224.815 75.0223 225.458 75.2981 226.102 75.5739C226.469 75.6659 226.837 75.6659 227.205 75.482C227.573 75.2062 228.032 75.1142 228.492 75.2981C229.595 75.8498 230.607 75.3901 231.71 75.5739C231.802 75.5739 231.894 75.5739 232.078 75.482C232.813 75.1142 233.641 74.8384 234.468 74.7465C235.02 74.5626 235.571 74.2868 236.031 73.919C237.226 72.9996 238.238 71.8964 239.065 70.7012C239.433 70.1495 239.709 69.5979 239.709 68.9543C239.709 68.4027 239.801 67.8511 240.076 67.3914C240.444 66.8397 240.168 66.2881 240.26 65.8284C240.168 65.0929 240.352 64.3574 240.628 63.7138C240.812 63.5299 240.904 63.2541 240.904 62.9783C240.812 62.7025 240.72 62.5186 240.536 62.3347C239.893 61.875 239.709 61.3234 240.26 60.6798C240.352 60.5879 240.352 60.404 240.26 60.3121C240.168 60.1282 239.893 60.0363 239.893 60.0363C239.157 60.6798 238.054 60.5879 237.594 61.5992C237.042 62.2428 236.399 62.7944 235.755 63.2541C235.479 63.3461 235.296 63.438 235.112 63.438C234.376 63.5299 234.192 63.7138 234.008 64.4493C234.008 64.6332 233.916 64.909 233.733 65.001C233.457 65.1848 233.273 65.1848 232.997 65.0929C232.262 64.7251 231.342 64.7251 230.515 65.001C230.331 65.0929 230.147 65.0929 229.963 65.0929C228.676 64.909 227.389 65.4607 226.01 65.3687C225.642 65.3687 225.458 65.6445 225.274 65.8284C224.906 66.2881 224.723 66.38 224.355 66.0123C224.263 66.0123 224.263 65.9203 224.171 65.8284C223.803 65.4607 223.619 64.909 222.976 65.0929C222.424 65.1848 221.964 65.001 221.505 65.5526C221.321 65.8284 221.137 65.7365 220.953 65.3687C220.769 64.8171 220.31 64.4493 219.666 64.5413C219.114 64.3574 218.655 64.1735 218.195 63.8058C217.735 63.5299 217.276 63.3461 216.816 63.438C216.54 63.5299 216.356 63.438 216.172 63.3461C215.896 63.2541 215.804 63.0702 215.713 62.7944C215.621 62.4267 215.161 62.6105 214.885 62.6105C214.425 62.6105 214.058 62.4267 213.966 61.967C213.782 61.6912 213.598 61.4153 213.322 61.2315C212.862 60.8637 212.403 60.3121 212.127 59.7604C212.035 59.4846 211.667 59.3927 211.391 59.1169C211.116 59.0249 210.932 58.841 210.748 58.6572C209.92 57.462 209.001 56.3587 208.082 55.4393C207.806 55.1635 207.622 54.8877 207.714 54.5199C207.714 53.9683 207.622 53.4167 207.346 52.957C207.254 52.865 207.162 52.6811 207.162 52.4973C207.07 51.8537 206.886 51.3021 206.611 50.7504C206.059 49.923 206.059 48.8197 205.415 47.9923C205.323 47.8084 205.323 47.6245 205.415 47.4406C206.151 46.3374 205.599 45.6018 204.864 44.8663C204.588 44.5905 204.588 44.4066 204.864 43.9469C205.232 43.2114 205.323 42.292 205.14 41.4646C204.68 41.0049 205.048 40.6371 205.14 40.2694C205.323 39.5339 205.323 38.7984 205.14 38.1548C204.864 37.787 204.864 37.2354 205.323 36.8676C205.783 36.2241 205.967 35.3047 205.599 34.5692C205.507 34.2014 205.323 33.9256 205.599 33.6498C206.519 33.0981 206.427 31.9949 206.886 31.0755C206.978 30.7997 207.162 30.5239 207.07 30.248C206.886 29.0528 207.622 28.5012 208.266 27.8576C208.449 27.6737 208.725 27.5818 208.725 27.3979C209.093 26.1108 210.196 25.4672 210.932 24.6398C211.299 24.1801 211.575 23.8123 211.851 23.4446C212.035 23.1687 212.219 22.709 212.495 22.5252C213.23 21.8816 214.058 21.33 214.885 20.8703C215.896 20.4106 216.908 19.767 217.827 19.1234C218.563 18.6637 219.298 18.4799 220.126 18.3879C221.137 18.296 222.148 18.1121 223.068 17.8363C223.895 17.4685 224.815 17.4685 225.55 17.7443C225.826 17.8363 226.01 17.8363 226.286 17.7443C226.929 17.5605 227.757 17.5605 228.492 17.7443C229.136 17.8363 229.779 17.8363 230.423 17.8363C230.791 17.8363 231.158 17.7443 231.434 18.204C231.71 18.7557 232.262 18.6637 232.721 18.6637C233.365 18.6637 234.1 18.5718 234.468 19.3073C234.56 19.3992 234.744 19.4912 234.928 19.4912C235.387 19.4912 235.847 19.6751 236.123 20.1348C236.95 20.9622 237.87 21.8816 238.789 22.709C238.973 22.8929 239.341 23.1687 239.617 23.2607C240.352 23.7204 240.536 23.6284 240.536 22.801C240.536 22.3413 240.444 21.8816 240.996 21.4219C241.18 21.238 241.088 20.7783 241.088 20.4106C241.18 19.6751 241.731 19.1234 242.375 18.9395C242.467 18.9395 242.559 19.0315 242.651 18.9395C243.202 18.7557 243.754 18.5718 244.306 18.3879C244.857 18.8476 245.501 18.6637 246.144 18.6637C246.788 18.6637 247.34 18.6637 247.983 18.6637C248.535 18.8476 249.086 18.9395 249.73 18.9395C249.914 18.9395 250.098 19.0315 250.282 18.9395C251.385 18.7557 251.569 18.8476 251.845 19.767C251.937 20.0428 251.937 20.4106 252.12 20.5944C252.396 20.7783 252.672 20.9622 252.672 21.238C252.672 21.5138 252.304 21.6977 252.12 21.9735C251.937 22.2493 251.753 22.6171 251.661 23.0768C251.661 23.3526 251.937 23.6284 252.12 23.9042C252.212 24.0881 252.396 24.1801 252.488 24.3639C252.672 24.4559 252.764 24.6398 252.764 24.8236C252.764 25.0075 252.672 25.1914 252.488 25.2833C252.12 25.6511 251.753 25.9269 251.845 26.5705C251.937 26.8463 251.845 27.1221 252.304 27.306C252.856 27.4899 252.856 28.2254 252.396 28.777L252.304 28.869C252.028 29.1448 251.661 29.4206 251.661 29.6964C251.661 29.9722 252.028 30.248 252.212 30.5239C252.488 30.7997 252.58 31.0755 252.672 31.4432C252.672 31.7191 252.488 32.0868 252.304 32.2707C252.212 32.4546 252.12 32.4546 251.937 32.6384C251.569 33.0981 251.385 33.374 251.937 33.8337C252.672 34.5692 252.488 35.2127 252.028 35.8563C251.753 36.316 251.753 36.8676 251.937 37.3273C252.304 38.0628 252.212 38.8903 251.845 39.5339C251.569 39.8097 251.569 40.2694 251.845 40.6371C252.304 41.5565 252.304 42.6598 252.028 43.6711C251.845 44.5905 251.845 45.6018 252.028 46.5212C252.212 47.3487 252.212 48.1761 252.028 48.9116C251.845 50.1068 251.845 51.3021 251.937 52.4053C251.937 52.6811 252.304 52.957 252.488 53.1408C252.764 53.4167 252.856 53.6005 252.58 53.8763C252.028 54.2441 251.753 54.9796 251.845 55.7151C251.845 55.9909 252.028 56.3587 252.396 56.4506C252.856 56.7265 252.856 57.0942 252.488 57.5539C252.212 57.9217 251.845 58.1975 251.845 58.7491C251.937 59.1169 251.937 59.3927 252.396 59.5766C252.58 59.6685 252.764 59.9443 252.764 60.2201C252.856 60.496 252.672 60.7718 252.488 60.9556C252.212 61.3234 251.661 61.6912 251.661 62.0589C251.661 62.4267 252.12 62.7944 252.304 63.1622C252.488 63.3461 252.672 63.5299 252.672 63.7138C252.672 63.9896 252.488 64.2654 252.304 64.5413ZM252.12 20.7783V20.6864C252.12 20.6864 252.028 20.6864 251.937 20.7783C251.937 20.7783 252.028 20.8703 252.028 20.9622L252.12 20.7783ZM207.162 31.9949C207.254 31.9949 207.346 31.9029 207.438 31.9029L207.07 31.7191L206.886 31.9029C206.978 31.9029 207.07 31.9949 207.162 31.9949ZM208.725 48.1761C208.725 48.0842 208.817 48.0842 208.817 48.0842C208.725 47.9923 208.725 47.9003 208.725 47.9003C208.633 47.9003 208.633 47.9003 208.633 47.9923C208.633 47.9923 208.633 48.0842 208.725 48.1761ZM209.461 31.3513C209.553 31.3513 209.645 31.3513 209.737 31.2594C209.645 31.2594 209.645 31.1674 209.645 31.1674C209.553 31.2594 209.461 31.2594 209.369 31.2594C209.461 31.3513 209.461 31.3513 209.461 31.3513ZM212.679 23.8123C212.679 23.9042 212.587 23.9042 212.495 23.9042C212.587 23.9962 212.587 23.9962 212.587 23.9962C212.679 23.9962 212.771 23.9962 212.771 23.9042C212.771 23.9042 212.771 23.8123 212.679 23.8123ZM211.391 26.4785C211.391 26.7544 211.208 27.2141 211.575 27.3979L211.667 26.5705C211.575 26.2027 211.851 25.835 211.483 25.5592C211.391 25.835 211.391 26.1108 211.391 26.4785ZM211.575 46.1535L211.667 46.0615L211.575 45.8777C211.483 45.8777 211.483 45.9696 211.483 45.9696C211.483 46.0615 211.483 46.0615 211.575 46.1535ZM211.851 58.841L211.943 58.7491L211.759 58.6572L211.667 58.7491C211.759 58.7491 211.759 58.841 211.851 58.841ZM212.127 30.6158C212.127 30.7077 212.127 30.7997 212.127 30.8916C212.219 30.7997 212.403 30.7997 212.495 30.7077C212.587 30.7077 212.495 30.5239 212.587 30.34L212.403 29.9722C212.311 30.1561 212.311 30.248 212.219 30.34C212.219 30.4319 212.127 30.5239 212.127 30.6158ZM212.679 32.3626L213.046 32.0868C212.954 32.0868 212.771 31.9949 212.679 31.9949C212.495 32.0868 212.403 32.0868 212.311 32.1788L212.679 32.3626ZM213.874 39.0742L213.966 38.8903C213.874 38.8903 213.782 38.8903 213.782 38.8903C213.69 38.7984 213.69 38.8903 213.69 38.8903L213.874 39.0742ZM214.701 39.0742L214.885 38.7064L214.609 38.5225C214.609 38.6145 214.517 38.7064 214.517 38.7984C214.517 38.8903 214.609 38.9822 214.701 39.0742ZM216.632 57.462L216.724 57.37C216.724 57.2781 216.632 57.2781 216.54 57.2781C216.54 57.2781 216.54 57.2781 216.448 57.37L216.632 57.462ZM235.939 26.1108C235.847 26.1108 235.755 26.2027 235.755 26.2027L235.847 26.2947C235.939 26.2947 235.939 26.2027 236.031 26.2027L235.939 26.1108ZM232.721 25.835L232.629 25.9269C232.721 25.9269 232.721 26.0188 232.813 26.0188L232.905 25.9269L232.721 25.835ZM229.687 22.6171V22.709C229.595 22.709 229.595 22.709 229.595 22.709C229.595 22.801 229.595 22.8929 229.687 22.9849L229.779 22.801L229.687 22.6171ZM227.665 25.0075H227.573C227.573 25.0075 227.573 25.0075 227.481 25.0995L227.665 25.1914L227.848 25.0995C227.757 25.0075 227.665 25.0075 227.665 25.0075ZM226.837 22.9849C226.745 22.9849 226.745 23.0768 226.745 23.1687C226.745 23.1687 226.745 23.1687 226.837 23.2607L226.929 23.0768L226.837 22.9849ZM222.24 26.9382C222.148 26.9382 222.056 26.9382 221.872 27.0302C221.964 27.0302 221.964 27.2141 222.056 27.2141C222.148 27.2141 222.332 27.1221 222.424 27.1221C222.332 27.0302 222.332 26.9382 222.24 26.9382ZM219.758 22.6171V22.709H219.666C219.666 22.801 219.666 22.8929 219.758 22.9849L219.85 22.801L219.758 22.6171ZM218.838 28.9609C218.838 28.9609 218.747 28.9609 218.747 29.0528L218.93 29.1448L219.022 29.0528C218.93 28.9609 218.93 28.9609 218.838 28.9609ZM221.689 59.4846C221.781 59.3927 221.781 59.3927 221.781 59.3927C221.781 59.3007 221.781 59.2088 221.689 59.2088L221.597 59.3007L221.689 59.4846ZM225.642 64.2654C225.734 64.2654 225.734 64.1735 225.734 64.1735C225.734 64.0816 225.734 64.0816 225.642 63.9896V64.0816C225.642 64.1735 225.642 64.1735 225.642 64.2654ZM231.894 62.2428C231.894 62.2428 231.986 62.1509 232.078 62.1509C231.986 62.1509 231.986 62.0589 231.986 62.0589C231.894 62.0589 231.802 62.1509 231.802 62.1509C231.802 62.1509 231.802 62.2428 231.894 62.2428ZM239.065 53.2328L239.157 53.0489C239.065 53.0489 238.973 53.0489 238.973 53.0489C238.881 52.957 238.881 53.0489 238.881 53.0489L239.065 53.2328ZM240.536 43.5792C240.628 43.3034 240.996 42.9356 240.812 42.6598C240.536 41.8323 240.444 40.913 240.536 39.9936C240.536 39.4419 240.536 38.7984 240.536 38.2467C240.628 37.6951 240.444 37.2354 240.076 36.8676C239.801 36.4999 239.617 36.0402 239.709 35.5805C239.709 34.9369 239.617 34.2014 239.249 33.6498C238.421 31.811 237.042 30.248 235.387 29.0528C234.652 28.3173 233.641 27.8576 232.537 27.7657C231.986 27.7657 231.526 27.6737 230.974 27.4899C230.239 27.2141 229.503 27.2141 228.768 27.4899C228.492 27.4899 228.308 27.4899 228.032 27.4899C227.389 27.4899 226.745 27.4899 226.102 27.4899C225.274 27.4899 224.539 27.7657 223.987 28.3173C223.619 28.6851 223.16 29.0528 222.7 29.1448C222.332 29.2367 222.148 29.6045 222.148 29.8803C222.148 30.4319 221.872 30.6158 221.321 30.6158C220.769 30.5239 220.493 30.7997 220.401 31.3513C220.401 31.9029 220.034 32.2707 219.574 32.2707C219.022 32.2707 219.022 32.5465 218.93 32.8223C218.838 33.1901 218.655 33.5578 218.379 33.8337C217.827 34.4772 217.735 35.3966 218.195 36.0402C218.563 36.6838 218.379 36.8676 217.919 37.1435C217 37.5112 216.908 38.3387 216.816 39.2581C216.816 39.35 216.908 39.6258 217 39.6258C217.643 39.8097 217.367 40.1774 217.276 40.4533C216.908 41.3727 216.816 42.292 217.643 42.9356C218.103 43.2114 217.919 43.4872 217.643 43.7631C216.908 44.4986 216.816 44.9583 217.367 45.6018C217.827 46.1535 218.011 46.889 217.919 47.5326C218.011 48.6358 218.287 49.6472 218.838 50.5665C219.298 51.3021 219.85 51.9456 220.493 52.5892C221.229 53.3247 222.056 53.9683 222.976 54.428C223.252 54.7957 223.711 54.9796 224.171 54.8877C224.906 54.7957 225.642 55.0716 226.194 55.6232C226.745 56.2668 227.205 56.1748 228.032 55.7151C228.216 55.5312 228.4 55.5312 228.584 55.5312C228.952 55.4393 229.411 55.5312 229.687 55.7151C230.331 56.1748 230.607 56.0829 231.25 55.6232C231.526 55.3474 231.986 55.1635 232.354 55.1635C233.733 55.1635 235.112 54.6119 236.031 53.6005C236.307 53.4167 236.399 53.0489 236.675 53.0489C237.41 52.865 237.594 52.1295 237.962 51.5779C238.421 51.1182 238.697 50.3827 238.605 49.7391C238.513 49.2794 238.881 49.1875 239.065 48.9116C239.525 48.5439 239.893 47.9923 240.076 47.3487C240.168 47.0729 240.26 46.7051 240.26 46.3374C240.26 45.418 240.352 44.4986 240.536 43.5792ZM215.804 71.6206L215.896 71.4367L215.804 71.0689C215.713 71.1609 215.621 71.2528 215.621 71.2528C215.713 71.4367 215.713 71.5286 215.804 71.6206ZM217.092 80.4467L217.551 80.3548C217.367 80.1709 217.184 79.987 217 79.8951C217 79.8031 216.816 79.987 216.724 80.0789L217.092 80.4467ZM219.758 74.1949L219.85 74.011L219.758 73.919C219.666 74.011 219.666 74.011 219.666 74.1029C219.666 74.1029 219.666 74.1949 219.758 74.1949ZM235.847 75.2981C235.939 75.2981 235.939 75.2981 235.939 75.2062C235.939 75.1142 235.939 75.1142 235.847 75.0223L235.755 75.1142L235.847 75.2981ZM239.801 71.0689L239.984 70.8851L239.801 70.7931C239.801 70.8851 239.801 70.8851 239.801 70.977C239.709 70.977 239.801 71.0689 239.801 71.0689ZM240.72 69.3221L240.812 69.2302L240.628 69.1382L240.536 69.2302C240.628 69.2302 240.72 69.3221 240.72 69.3221ZM240.996 40.1774L241.088 39.9936L240.996 39.9016C240.904 39.9936 240.904 40.0855 240.904 40.0855C240.904 40.0855 240.904 40.1774 240.996 40.1774ZM242.651 60.3121C242.743 60.2201 242.743 60.2201 242.743 60.1282C242.743 60.1282 242.743 60.0363 242.651 60.0363L242.559 60.2201L242.651 60.3121ZM243.57 50.3827H243.478C243.57 50.3827 243.57 50.2907 243.57 50.1988C243.662 50.1988 243.57 50.1068 243.57 50.1068L243.386 50.2907L243.57 50.3827ZM243.754 80.3548C243.846 80.3548 243.846 80.3548 243.938 80.2628L243.846 80.1709C243.754 80.1709 243.754 80.2628 243.662 80.2628L243.754 80.3548ZM244.673 75.2981L244.765 75.2062L244.673 75.0223C244.673 75.1142 244.581 75.1142 244.581 75.1142C244.581 75.2062 244.581 75.2981 244.673 75.2981ZM244.949 63.0702L245.041 62.9783C245.041 62.9783 244.949 62.9783 244.857 62.8864C244.857 62.8864 244.857 62.9783 244.765 62.9783L244.949 63.0702ZM245.777 24.0881C245.869 23.9962 245.96 23.9042 245.96 23.9042C245.869 23.7204 245.869 23.6284 245.777 23.5365L245.593 23.7204L245.777 24.0881ZM246.604 23.2607C246.696 23.1687 246.696 23.1687 246.696 23.1687C246.696 23.0768 246.696 22.9849 246.604 22.9849L246.512 23.0768L246.604 23.2607ZM246.972 39.35L247.064 39.2581C246.972 39.1661 246.972 39.1661 246.88 39.1661C246.88 39.1661 246.788 39.1661 246.788 39.2581L246.972 39.35ZM247.523 55.2554L247.615 55.1635L247.523 54.9796C247.431 54.9796 247.431 54.9796 247.431 55.0716C247.431 55.0716 247.431 55.1635 247.523 55.2554ZM247.799 39.0742L247.891 38.8903L247.799 38.7984C247.707 38.8903 247.707 38.9822 247.707 38.9822C247.707 38.9822 247.707 39.0742 247.799 39.0742ZM249.73 26.9382L249.822 26.8463L249.73 26.6624C249.73 26.6624 249.638 26.6624 249.638 26.7544C249.73 26.7544 249.73 26.8463 249.73 26.9382ZM250.925 40.1774L251.017 40.0855C250.925 40.0855 250.925 39.9936 250.833 39.9936L250.741 40.0855L250.925 40.1774ZM250.833 24.9156C250.925 24.8236 250.925 24.8236 251.017 24.8236C251.017 24.7317 250.925 24.7317 250.925 24.7317C250.833 24.7317 250.833 24.7317 250.741 24.8236L250.833 24.9156ZM300.566 53.7844C300.383 54.2441 300.474 54.7038 300.75 55.1635C300.842 55.2554 300.842 55.4393 300.842 55.6232C300.842 55.8071 300.75 55.9909 300.566 56.0829C300.015 56.6345 299.555 57.2781 299.279 57.9217C298.636 59.0249 297.9 59.9443 297.073 60.7718C296.705 61.0476 296.429 61.3234 296.797 61.875C297.073 62.2428 296.613 62.7025 296.153 62.4267C295.694 62.0589 295.418 62.2428 294.958 62.4267C293.763 62.9783 292.568 63.6219 291.464 64.3574C291.373 64.4493 291.189 64.4493 291.097 64.4493C290.453 64.4493 290.085 64.6332 289.993 65.3687C289.993 65.6445 289.81 65.8284 289.534 65.9203C289.258 65.9203 288.982 65.8284 288.89 65.6445C288.155 64.8171 287.511 65.001 286.684 65.3687C286.592 65.4607 286.408 65.5526 286.224 65.5526C285.397 65.5526 284.477 65.6445 283.65 65.8284C283.374 65.9203 283.006 65.9203 282.73 65.7365C281.995 65.4607 281.167 65.4607 280.432 65.6445C279.88 65.7365 279.329 65.8284 278.777 65.9203C278.593 65.9203 278.317 65.9203 278.133 66.0123C277.858 66.1962 277.582 66.5639 277.398 66.5639C277.122 66.5639 276.846 66.1962 276.662 65.9203C275.835 65.0929 275.651 65.0929 274.732 65.8284C274.456 65.9203 274.272 66.1042 273.996 66.1042C273.904 66.1962 273.628 66.0123 273.628 65.9203C273.628 65.4607 273.628 65.2768 273.169 65.2768C272.709 65.2768 272.341 65.0929 271.973 65.001C271.606 64.8171 271.146 64.7251 270.778 64.5413C270.319 64.3574 269.859 64.4493 269.491 64.7251C269.031 65.001 268.572 64.7251 268.296 64.1735C268.02 63.8058 267.652 63.438 267.193 63.2541C266.549 62.8864 265.905 62.4267 265.354 61.967C264.71 61.4153 263.791 61.2315 263.331 60.496C262.32 60.7718 262.412 60.0363 262.136 59.3927C261.952 58.841 261.4 58.4733 261.217 58.0136C260.941 57.37 260.573 56.7265 260.297 56.0829C260.205 55.9909 260.113 55.8071 260.021 55.6232C260.021 55.0716 259.654 54.5199 259.194 54.1522C258.55 53.5086 258.55 53.5086 258.918 52.6811C259.102 52.4973 259.194 52.2214 259.194 51.9456C259.102 51.394 259.378 50.9343 259.47 50.3827C259.562 49.923 259.837 49.7391 260.297 49.7391C261.033 49.831 261.952 49.7391 262.688 49.4633C262.963 49.3713 263.331 49.6472 263.699 49.6472C264.342 49.7391 264.986 49.7391 265.63 49.6472C266.089 49.4633 266.641 49.4633 267.193 49.6472C267.928 49.7391 268.664 49.831 269.399 49.7391C270.41 49.7391 270.594 49.923 270.502 50.8424C270.502 51.8537 270.778 52.865 271.054 53.7844C271.054 53.8763 271.146 53.9683 271.146 53.9683C271.973 54.6119 272.617 55.4393 273.444 55.9909C274.088 56.5426 274.915 56.8184 275.835 56.9103C276.386 56.9103 276.938 57.0942 277.398 57.462C277.766 57.6458 278.041 57.8297 278.501 57.462C278.685 57.37 279.053 57.37 279.237 57.2781C279.42 57.0942 279.696 57.0023 279.972 57.0942C280.248 57.0942 280.432 57.2781 280.616 57.462C280.8 57.7378 281.259 57.8297 281.627 57.6458C282.179 57.2781 282.73 57.462 283.19 57.37C284.845 57.462 286.408 56.8184 287.603 55.7151C287.787 55.5312 288.063 55.5312 288.155 55.4393C288.614 55.0716 288.89 54.6119 289.166 54.1522C289.35 53.3247 289.442 52.5892 289.442 51.8537C289.626 51.2101 289.35 50.5665 288.706 50.3827C288.247 50.1988 287.971 49.7391 288.063 49.2794C288.063 48.8197 287.787 48.5439 287.235 48.6358C286.592 48.6358 286.04 48.6358 286.04 47.7164C286.04 47.5326 285.856 47.3487 285.764 47.2567C285.029 46.9809 284.293 46.797 283.558 46.7051C282.546 46.7051 281.535 46.5212 280.524 46.0615C280.34 45.9696 280.064 45.7857 279.88 45.7857C279.512 45.9696 279.145 46.1535 278.869 46.4293C278.409 46.7051 278.225 46.7051 277.949 46.2454C277.858 46.1535 277.858 45.8777 277.766 45.7857C277.49 45.6018 277.214 45.2341 276.938 45.2341C276.478 45.2341 275.835 44.9583 275.375 45.5099C275.099 45.8777 274.915 45.8777 274.732 45.326C274.456 44.7744 273.72 44.8663 273.169 44.6825C272.985 44.5905 272.709 44.5905 272.525 44.4986C271.79 44.1308 271.054 43.7631 270.319 44.3147C270.043 44.4986 269.675 44.3147 269.491 44.1308C268.756 43.1195 267.376 43.0276 266.457 42.2001C266.365 42.1082 266.089 42.1082 265.814 42.1082C265.262 42.1082 264.71 42.292 264.71 41.3727C264.618 40.913 264.067 40.6371 263.607 40.7291C263.239 40.821 262.871 40.5452 262.871 40.0855C262.871 39.5339 262.504 39.35 262.228 39.0742C261.768 38.7064 261.86 38.7064 261.4 37.6951C260.849 36.7757 260.573 35.6724 260.573 34.4772C260.573 34.3853 260.481 34.2934 260.389 34.2014C259.929 33.5578 259.654 32.8223 259.746 31.9949C259.746 30.7997 259.929 29.5125 260.297 28.3173C260.389 27.8576 260.389 27.3979 260.205 26.9382C260.205 26.4785 260.297 26.0188 260.481 25.6511C261.768 24.1801 262.963 22.801 264.251 21.4219C264.618 20.9622 265.078 20.5944 265.63 20.3186C265.905 19.9509 266.273 19.6751 266.733 19.4912C267.376 19.3073 267.928 18.8476 268.572 18.6637C269.215 18.4799 269.491 17.8363 270.227 18.0202C270.778 18.204 271.33 17.8363 271.881 17.7443C272.433 17.5605 272.985 17.5605 273.536 17.4685C273.628 17.4685 273.812 17.4685 273.904 17.3766C274.272 16.825 274.824 16.9169 275.375 16.9169C275.835 16.9169 276.295 16.9169 276.846 16.9169C277.214 17.0088 277.582 16.825 277.858 16.6411C277.949 16.3653 278.225 16.2733 278.501 16.2733C278.777 16.2733 278.961 16.4572 279.145 16.6411C279.329 16.9169 279.696 17.1927 280.064 17.1927C280.432 17.2846 280.8 17.1927 281.075 16.9169C281.351 16.733 281.719 16.733 282.087 16.5491C282.179 16.4572 282.271 16.3653 282.454 16.5491C283.19 17.2846 284.109 16.9169 284.937 16.733C285.213 16.733 285.397 16.6411 285.58 16.825C286.132 17.6524 287.051 18.0202 287.971 17.7443C288.43 17.7443 288.982 17.8363 289.35 18.204C289.718 18.5718 290.545 18.5718 291.005 18.9395C291.373 19.3073 291.924 19.5831 292.476 19.6751C292.936 19.767 293.303 19.9509 293.579 20.2267C293.855 20.7783 294.407 20.9622 294.958 20.8703C295.418 20.7783 295.51 21.0541 295.418 21.33C295.418 21.5138 295.418 21.6058 295.418 21.7897C295.51 22.3413 295.694 22.5252 296.153 22.5252C296.797 22.6171 297.349 22.5252 297.165 23.3526C297.441 23.8123 297.716 24.3639 298.176 24.4559C298.728 24.6398 298.636 25.0995 298.452 25.2833C298.084 25.743 298.36 26.1108 298.544 26.4785C298.636 26.7544 298.82 26.9382 298.82 27.1221C298.82 27.8576 299.187 28.5931 299.831 29.0528C300.75 29.9722 300.75 30.0642 299.831 31.0755C299.555 31.4432 299.279 31.811 298.912 32.1788C298.544 32.3626 298.084 32.5465 297.716 32.6384C297.349 32.8223 296.981 32.9143 296.797 33.374C296.521 34.2014 296.061 34.1095 295.694 33.374C295.602 33.0062 295.326 32.8223 295.05 32.7304C294.131 32.5465 294.131 32.5465 293.579 33.0981L293.119 33.4659C293.119 33.5578 292.936 33.6498 292.844 33.6498C292.752 33.6498 292.66 33.5578 292.568 33.4659C292.2 32.9143 291.556 32.6384 290.913 32.7304C290.269 32.8223 289.81 32.5465 289.442 32.0868C289.074 31.4432 288.43 30.8916 288.614 29.9722C288.798 29.3286 288.155 28.9609 287.879 28.5012C286.959 27.3979 285.764 26.4785 284.385 25.835C284.201 25.743 283.925 25.743 283.742 25.9269C283.006 26.4785 282.638 26.3866 282.087 25.6511C281.995 25.3753 281.719 25.1914 281.351 25.0995C281.075 25.0995 280.708 25.1914 280.524 25.4672C280.432 25.5592 280.248 25.743 280.156 25.835C279.972 25.9269 279.88 26.0188 279.696 26.0188C279.512 26.0188 279.42 25.9269 279.237 25.835C278.869 25.4672 278.593 24.7317 277.949 24.9156C277.582 25.0075 277.214 25.4672 276.754 25.6511C276.386 25.835 276.019 26.2027 275.559 25.835C275.099 25.3753 274.732 25.9269 274.272 26.0188C273.536 26.1108 272.893 26.5705 272.341 27.1221C271.973 27.8576 271.606 28.5931 271.33 29.4206C271.33 29.5125 271.422 29.6964 271.422 29.8803C271.514 30.0642 271.698 30.34 271.606 30.34C270.962 31.0755 271.422 31.9029 271.698 32.5465C271.973 33.1901 272.709 33.6498 273.353 34.2014C273.812 34.6611 274.456 34.845 275.099 34.753C275.651 34.6611 276.203 34.845 276.57 35.3047C277.03 35.6724 277.674 35.9483 278.317 35.8563C278.869 35.8563 279.512 35.7644 279.972 36.316C280.064 36.4999 280.524 36.4079 280.892 36.4079C281.811 36.4079 282.73 36.5918 283.558 36.8676C284.661 37.2354 285.764 37.4193 286.959 37.2354C287.143 37.2354 287.419 36.9596 287.603 37.0515C287.879 37.1435 288.063 37.4193 288.247 37.6032C288.798 37.9709 289.442 38.2467 290.177 38.4306C291.097 38.6145 291.924 39.1661 292.936 38.9822H293.027C293.671 39.9936 295.142 39.9016 295.786 40.913C296.061 41.3727 296.613 41.6485 297.073 41.5565C297.441 41.4646 297.532 41.8323 297.716 42.1082C297.992 42.6598 298.176 43.3034 298.912 43.4872C299.003 43.4872 299.095 43.5792 299.095 43.6711C299.095 44.5905 299.831 45.1421 300.015 45.9696C300.015 46.3374 300.199 46.7051 300.291 47.1648C300.383 47.5326 300.566 47.9003 300.842 48.1761C301.21 48.5439 301.026 49.0036 301.118 49.4633C301.118 49.831 301.118 50.1988 301.118 50.9343C301.21 51.9456 301.026 52.957 300.566 53.7844ZM283.65 21.4219L283.558 21.5138L283.65 21.6977C283.742 21.6977 283.742 21.6058 283.742 21.6058C283.742 21.5138 283.742 21.5138 283.65 21.4219ZM278.593 17.4685C278.501 17.5605 278.409 17.5605 278.409 17.6524C278.501 17.8363 278.501 17.9282 278.593 18.0202L278.777 17.7443L278.593 17.4685ZM272.617 20.5944C272.525 20.5944 272.525 20.6864 272.525 20.6864L272.709 20.7783L272.801 20.6864C272.709 20.6864 272.617 20.6864 272.617 20.5944ZM262.688 38.1548L262.871 38.0628L262.688 37.879C262.688 37.879 262.596 37.879 262.596 37.9709C262.688 37.9709 262.688 38.0628 262.688 38.1548ZM266.089 40.913C266.181 40.913 266.181 40.821 266.273 40.821L266.181 40.7291L265.997 40.821L266.089 40.913ZM269.767 41.1888C269.859 41.1888 269.859 41.0968 269.951 41.0968L269.859 41.0049C269.767 41.0049 269.767 41.0968 269.675 41.0968L269.767 41.1888ZM279.696 38.6145C279.696 38.6145 279.788 38.6145 279.88 38.5225C279.788 38.5225 279.788 38.4306 279.788 38.4306C279.696 38.5225 279.604 38.5225 279.604 38.5225C279.604 38.6145 279.604 38.6145 279.696 38.6145ZM265.538 50.2907C265.63 50.2907 265.63 50.1988 265.63 50.1988C265.63 50.1068 265.63 50.1068 265.538 50.0149L265.446 50.1068C265.538 50.1988 265.538 50.1988 265.538 50.2907ZM268.388 62.1509L268.48 61.967L268.388 61.875C268.388 61.967 268.296 62.0589 268.296 62.0589C268.296 62.1509 268.388 62.1509 268.388 62.1509ZM278.593 62.1509C278.685 62.1509 278.685 62.0589 278.685 62.0589L278.501 61.967L278.409 62.0589C278.501 62.0589 278.593 62.1509 278.593 62.1509ZM281.627 62.7025C281.719 62.7025 281.811 62.6105 281.811 62.6105L281.719 62.5186C281.627 62.5186 281.627 62.6105 281.535 62.6105L281.627 62.7025ZM288.706 59.3927H288.798C288.798 59.3007 288.89 59.3007 288.798 59.3007C288.798 59.2088 288.798 59.1169 288.706 59.0249C288.706 59.1169 288.706 59.1169 288.706 59.1169C288.706 59.2088 288.706 59.3007 288.706 59.3927ZM289.626 59.9443C289.626 59.8524 289.718 59.8524 289.718 59.8524C289.626 59.7604 289.626 59.6685 289.626 59.6685C289.534 59.6685 289.534 59.6685 289.534 59.7604C289.534 59.7604 289.534 59.8524 289.626 59.9443ZM292.66 54.2441C292.752 54.1522 292.844 54.1522 292.844 54.1522L292.752 53.9683L292.568 54.1522L292.66 54.2441Z" fill="black"/>
</svg>
