<svg width="240" height="24" viewBox="0 0 6422 124" fill="none" xmlns="http://www.w3.org/2000/svg">
<path d="M3263.07 218.882C3268.56 221.947 3279.54 223.48 3290.52 223.48C3301.49 223.48 3312.47 221.947 3317.96 218.882C3334.43 212.751 3356.38 209.685 3383.82 208.153C3411.27 206.62 3438.71 209.685 3460.67 214.284C3477.13 218.882 3504.58 218.882 3521.04 214.284C3559.47 206.62 3608.86 206.62 3647.29 212.751C3658.26 215.816 3680.22 217.349 3691.2 217.349C3707.66 214.284 3729.62 209.685 3746.08 205.087C3757.06 202.022 3762.55 197.423 3768.04 194.358C3789.99 189.76 3817.44 185.162 3822.93 177.498C3828.42 172.9 3806.46 165.236 3789.99 159.105C3773.53 152.974 3773.53 145.311 3784.51 139.18C3806.46 129.983 3828.42 120.787 3795.48 108.525C3784.5 105.46 3795.48 99.3287 3795.48 94.7305C3795.48 71.7396 3795.48 47.2159 3795.48 24.2249C3795.48 18.094 3795.48 13.4958 3784.51 8.89759C3762.55 1.23394 3757.06 -1.83152 3729.62 2.76667C3685.71 11.9631 3625.33 13.4958 3581.42 4.2994C3570.44 1.23394 3548.49 -0.298791 3543 1.23394C3510.07 8.89759 3477.13 4.2994 3438.71 5.83213C3394.8 5.83213 3345.4 5.83213 3296 8.89759C3263.07 11.9631 3224.65 10.4303 3191.72 7.36486C3142.32 4.2994 3092.92 4.2994 3049.01 8.89759C2994.12 11.9631 2944.72 11.9631 2895.32 8.89759C2840.44 5.83213 2785.55 5.83213 2730.66 8.89759C2681.26 11.9631 2631.86 11.9631 2576.98 8.89759C2544.04 5.83213 2505.62 10.4303 2472.69 1.23394C2472.69 -0.298791 2450.73 1.23394 2445.25 2.76667C2401.34 16.5612 2351.94 11.9631 2308.03 5.83213C2280.58 1.23394 2253.14 1.23394 2225.7 4.2994C2181.79 8.8976 2132.39 7.36486 2093.96 2.76667C2077.5 -0.298791 2055.54 1.23394 2044.57 4.2994C2006.14 11.9631 1956.75 13.4958 1918.32 5.83213C1890.88 -0.298791 1852.46 -0.298791 1825.02 5.83213C1792.08 13.4958 1742.68 13.4958 1709.75 5.83213C1693.28 1.23394 1671.33 -0.298791 1649.37 1.23394C1610.95 5.83213 1578.02 7.36486 1539.6 5.83213C1495.69 4.2994 1457.27 5.83213 1418.85 10.4303C1396.89 11.9631 1369.45 11.9631 1347.49 10.4303C1287.12 5.83213 1221.25 5.83213 1160.87 8.89759C1116.96 11.9631 1067.57 10.4303 1018.17 7.36486C974.256 4.2994 919.368 2.76667 875.458 5.83213C837.037 8.8976 793.127 10.4303 754.705 10.4303C743.728 10.4303 732.75 13.4958 721.773 13.4958C716.284 13.4958 710.795 7.36486 705.307 5.83213C666.885 4.2994 622.975 7.36486 584.554 1.23394C579.065 -0.298791 568.087 1.23394 562.599 2.76667C535.155 15.0285 491.244 8.89759 452.823 10.4303C441.846 10.4303 430.868 8.8976 425.379 5.83213C408.913 1.23394 375.981 -1.83152 354.025 1.23394C304.627 7.36486 255.228 7.36486 205.829 1.23394C200.34 1.23394 189.362 1.23394 183.874 1.23394C139.964 8.89759 74.0983 8.8976 41.1658 24.2249C35.6768 27.2904 35.6768 30.3558 35.6768 33.4213C35.6768 45.6831 35.6768 56.4122 35.6768 68.6741C35.6768 80.9359 35.6768 93.1978 35.6768 105.46C30.1881 111.591 19.2107 116.189 19.2107 122.32C19.2107 126.918 24.6994 131.516 35.6768 136.114C68.6096 146.843 41.1658 154.507 24.6994 163.703C-8.23313 175.965 -8.23313 180.563 24.6994 189.76C41.1658 194.358 57.6319 198.956 74.0983 203.554C96.0534 209.685 118.009 218.882 161.918 208.153C172.896 206.62 200.34 209.685 216.806 208.153C271.694 206.62 337.559 212.751 392.447 203.554C397.936 203.554 419.891 208.153 436.357 208.153C480.267 208.153 529.666 206.62 579.065 205.087C628.464 202.022 683.352 202.022 732.75 206.62C782.149 211.218 826.06 211.218 869.969 206.62C908.391 203.554 946.812 202.022 979.745 205.087C1018.17 206.62 1040.12 214.284 1062.08 200.489L1073.05 203.554C1078.54 205.087 1089.52 208.153 1095.01 208.153C1138.92 205.087 1182.83 211.218 1210.27 220.414C1221.25 225.013 1232.23 221.947 1243.21 218.882C1248.69 217.349 1248.69 215.816 1254.18 214.284C1281.63 202.022 1314.56 200.489 1347.49 209.685C1369.45 214.283 1380.42 225.013 1413.36 221.947C1435.31 220.414 1451.78 214.284 1468.25 211.218C1479.22 209.685 1495.69 208.153 1501.18 206.62C1517.64 203.554 1528.62 203.554 1539.6 206.62C1550.58 209.685 1567.04 211.218 1578.02 214.284C1599.98 218.882 1616.44 218.882 1638.4 214.284C1682.31 205.087 1742.68 206.62 1786.59 215.816C1803.06 220.414 1814.04 218.882 1814.04 212.751C1819.53 211.218 1819.53 209.685 1825.02 209.685C1857.95 218.882 1868.93 197.423 1901.86 203.554C1918.32 206.62 1934.79 205.087 1951.26 206.62C1984.19 211.218 2011.63 217.349 2050.05 209.685C2066.52 206.62 2099.45 208.153 2121.41 208.153C2214.72 208.153 2302.54 209.685 2395.85 208.153C2423.29 208.153 2450.73 205.087 2478.18 205.087C2511.11 203.554 2538.55 203.554 2566 205.087C2615.4 208.153 2664.8 209.685 2708.71 208.153C2736.15 209.685 2758.11 209.685 2780.06 205.087C2796.53 202.022 2829.46 203.554 2851.41 205.087C2878.86 205.087 2895.32 218.882 2928.26 212.751C2955.7 208.153 2977.66 209.685 3005.1 209.685C3032.54 208.153 3059.99 211.218 3076.45 217.349C3103.9 225.013 3114.88 225.013 3131.34 214.284C3147.81 208.153 3158.79 203.554 3186.23 205.087C3197.21 205.087 3213.67 206.62 3219.16 208.153C3235.63 211.218 3252.09 215.816 3263.07 218.882ZM3499.09 13.4958C3493.6 13.4958 3488.11 15.0285 3482.62 15.0285C3477.13 15.0285 3471.65 15.0285 3460.67 13.4958C3471.65 11.9631 3471.65 10.4303 3477.13 10.4303C3482.62 11.9631 3493.6 11.9631 3499.09 13.4958ZM3597.89 18.094L3575.93 21.1594L3548.49 18.094C3553.98 16.5612 3559.47 16.5612 3570.44 15.0285C3575.93 16.5612 3586.91 16.5612 3597.89 18.094ZM3707.66 30.3558L3702.17 34.954L3680.22 31.8886C3685.71 31.8886 3691.2 30.3558 3696.68 30.3558C3702.17 28.8231 3707.66 30.3558 3707.66 30.3558ZM957.79 50.2813L952.301 51.8141L941.323 50.2813L946.812 48.7486C952.301 48.7486 952.301 50.2813 957.79 50.2813ZM3186.23 64.0759C3180.74 64.0759 3180.74 65.6086 3180.74 65.6086C3175.25 65.6086 3169.76 64.0759 3169.76 64.0759C3169.76 64.0759 3169.76 62.5432 3175.25 62.5432C3175.25 62.5432 3180.74 64.0759 3186.23 64.0759ZM1715.24 64.0759C1715.24 64.0759 1715.24 65.6086 1709.75 65.6086C1709.75 65.6086 1704.26 64.0759 1698.77 64.0759L1704.26 62.5432L1715.24 64.0759ZM1007.19 64.0759L1001.7 65.6086C996.211 65.6086 996.211 64.0759 996.211 62.5432C996.211 62.5432 996.211 62.5432 1001.7 61.0104L1007.19 64.0759ZM826.06 64.0759L815.082 65.6086C815.082 65.6086 815.082 64.0759 809.593 62.5432C809.593 62.5432 815.082 62.5432 815.082 61.0104L826.06 64.0759ZM1369.45 96.2633C1369.45 94.7305 1374.94 94.7305 1374.94 94.7305C1380.42 94.7305 1385.91 96.2633 1385.91 96.2633L1380.43 97.796L1369.45 96.2633ZM3647.29 97.796C3652.77 96.2633 3652.77 93.1978 3652.77 94.7305C3663.75 94.7305 3669.24 94.7305 3674.73 96.2633C3674.73 96.2633 3674.73 97.796 3669.24 97.796C3663.75 97.796 3652.77 97.796 3647.29 97.796ZM1896.37 77.8705L1890.88 79.4032L1879.9 77.8705C1885.39 77.8705 1885.39 76.3378 1885.39 76.3378C1890.88 76.3378 1896.37 77.8705 1896.37 77.8705ZM1846.97 82.4687C1846.97 82.4687 1846.97 84.0014 1841.48 84.0014C1841.48 84.0014 1835.99 82.4687 1830.5 82.4687L1835.99 80.9359L1846.97 82.4687ZM628.464 82.4687L622.975 84.0014C617.486 84.0014 617.486 82.4687 611.997 82.4687L617.486 80.9359L628.464 82.4687ZM3707.66 94.7305C3707.66 96.2632 3707.66 97.796 3702.17 97.796L3696.68 96.2633L3702.17 93.1978C3707.66 94.7305 3707.66 94.7305 3707.66 94.7305ZM1929.3 100.861C1929.3 100.861 1929.3 102.394 1923.81 102.394C1923.81 102.394 1918.32 100.861 1912.84 100.861L1918.32 99.3287L1929.3 100.861ZM771.172 113.123C771.172 114.656 771.172 116.189 765.683 117.721L760.194 114.656L765.683 113.123C771.172 113.123 771.172 113.123 771.172 113.123ZM1369.45 128.451L1363.96 129.983L1352.98 128.451L1358.47 126.918C1363.96 126.918 1363.96 128.451 1369.45 128.451ZM68.6096 128.451L57.6319 129.983L52.1432 128.451C52.1432 128.451 57.6319 126.918 63.1206 126.918C63.1206 126.918 63.1206 128.451 68.6096 128.451ZM3120.36 137.647C3114.88 137.647 3114.88 139.18 3114.88 139.18C3109.39 139.18 3103.9 137.647 3103.9 137.647C3103.9 137.647 3103.9 136.114 3109.39 136.114C3109.39 136.114 3114.88 137.647 3120.36 137.647ZM1468.25 146.843L1451.78 149.909L1435.31 146.843C1440.8 145.311 1451.78 145.311 1457.27 145.311C1462.76 145.311 1462.76 146.843 1468.25 146.843ZM1945.77 185.162C1940.28 185.162 1929.3 183.629 1929.3 183.629C1934.79 182.096 1934.79 179.031 1934.79 177.498C1940.28 177.498 1945.77 179.031 1945.77 179.031C1945.77 182.096 1945.77 183.629 1945.77 185.162ZM1429.82 177.498C1440.8 177.498 1446.29 177.498 1451.78 179.031C1446.29 180.563 1446.29 180.563 1440.8 180.563C1429.82 180.563 1424.34 180.563 1418.85 179.031C1424.34 179.031 1429.82 177.498 1429.82 177.498ZM118.009 179.031L128.986 177.498L134.475 179.031C128.986 179.031 123.497 180.563 123.497 180.563C118.009 180.563 118.009 179.031 118.009 179.031ZM1292.6 180.563L1298.09 177.498C1298.09 177.498 1303.58 177.498 1303.58 179.031C1298.09 179.031 1298.09 180.563 1298.09 182.096L1292.6 180.563ZM1589 160.638V159.105C1589 159.105 1589 159.105 1594.49 159.105L1599.98 160.638L1594.49 163.703C1589 162.171 1589 160.638 1589 160.638ZM1665.84 160.638L1660.35 162.171L1649.37 160.638C1654.86 160.638 1654.86 159.105 1654.86 159.105C1660.35 159.105 1665.84 160.638 1665.84 160.638ZM3394.8 165.236V163.703C3383.83 169.834 3361.87 165.236 3334.43 168.302L3285.03 166.769C3301.49 160.638 3323.45 163.703 3339.91 163.703C3361.87 163.703 3378.34 163.703 3394.8 165.236ZM3619.84 182.096V180.563C3575.93 180.563 3537.51 180.563 3493.6 182.096C3488.11 180.563 3488.11 180.563 3482.62 179.031C3488.11 179.031 3488.11 177.498 3493.6 177.498C3515.56 177.498 3532.02 177.498 3553.98 177.498C3575.93 177.498 3592.4 177.498 3619.84 177.498C3619.84 177.498 3625.33 179.031 3630.82 179.031C3625.33 180.563 3619.84 182.096 3619.84 182.096ZM2478.18 183.629V182.096C2483.67 182.096 2489.16 180.563 2494.64 182.096C2500.13 182.096 2500.13 183.629 2505.62 185.162L2483.67 186.694L2478.18 183.629ZM3103.9 183.629L3109.39 182.096L3120.36 183.629C3114.88 183.629 3114.88 185.162 3114.88 185.162C3109.39 185.162 3103.9 183.629 3103.9 183.629ZM3702.17 183.629L3691.2 189.76C3685.71 188.227 3680.22 186.694 3680.22 185.162C3680.22 185.162 3685.71 183.629 3685.71 182.096L3702.17 183.629ZM200.34 192.825L205.829 191.293C211.317 191.293 211.317 192.825 211.317 194.358C211.317 194.358 211.317 194.358 205.829 195.891L200.34 192.825ZM2286.07 194.358C2286.07 194.358 2280.58 192.825 2275.09 192.825L2286.07 191.293L2291.56 192.825C2291.56 192.825 2291.56 194.358 2286.07 194.358ZM3317.96 192.825L3301.49 195.891L3285.03 192.825C3290.52 191.293 3296.01 191.293 3306.98 191.293C3306.98 191.293 3312.47 192.825 3317.96 192.825Z" fill="black"/>
<path d="M5861.29 218.882C5866.77 221.947 5877.75 223.48 5888.73 223.48C5899.71 223.48 5910.69 221.947 5916.17 218.882C5932.64 212.751 5954.59 209.685 5982.04 208.153C6009.48 206.62 6036.93 209.685 6058.88 214.284C6075.35 218.882 6102.79 218.882 6119.26 214.284C6157.68 206.62 6207.08 206.62 6245.5 212.751C6256.48 215.816 6278.43 217.349 6289.41 217.349C6305.88 214.284 6327.83 209.685 6344.3 205.087C6355.27 202.022 6360.76 197.423 6366.25 194.358C6388.21 189.76 6415.65 185.162 6421.14 177.498C6426.63 172.9 6404.67 165.236 6388.21 159.105C6371.74 152.974 6371.74 145.311 6382.72 139.18C6404.67 129.983 6426.63 120.787 6393.7 108.525C6382.72 105.46 6393.7 99.3287 6393.7 94.7305C6393.7 71.7396 6393.7 47.2159 6393.7 24.2249C6393.7 18.094 6393.7 13.4958 6382.72 8.89759C6360.76 1.23394 6355.27 -1.83152 6327.83 2.76667C6283.92 11.9631 6223.54 13.4958 6179.63 4.2994C6168.66 1.23394 6146.7 -0.298791 6141.21 1.23394C6108.28 8.89759 6075.35 4.2994 6036.93 5.83213C5993.02 5.83213 5943.62 5.83213 5894.22 8.89759C5861.29 11.9631 5822.86 10.4303 5789.93 7.36486C5740.53 4.2994 5691.13 4.2994 5647.22 8.89759C5592.34 11.9631 5542.94 11.9631 5493.54 8.89759C5438.65 5.83213 5383.76 5.83213 5328.88 8.89759C5279.48 11.9631 5230.08 11.9631 5175.19 8.89759C5142.26 5.83213 5103.84 10.4303 5070.9 1.23394C5070.9 -0.298791 5048.95 1.23394 5043.46 2.76667C4999.55 16.5612 4950.15 11.9631 4906.24 5.83213C4878.8 1.23394 4851.35 1.23394 4823.91 4.2994C4780 8.8976 4730.6 7.36486 4692.18 2.76667C4675.71 -0.298791 4653.76 1.23394 4642.78 4.2994C4604.36 11.9631 4554.96 13.4958 4516.54 5.83213C4489.09 -0.298791 4450.67 -0.298791 4423.23 5.83213C4390.3 13.4958 4340.9 13.4958 4307.96 5.83213C4291.5 1.23394 4269.54 -0.298791 4247.59 1.23394C4209.17 5.83213 4176.23 7.36486 4137.81 5.83213C4093.9 4.2994 4055.48 5.83213 4017.06 10.4303C3995.1 11.9631 3967.66 11.9631 3945.71 10.4303C3885.33 5.83213 3819.46 5.83213 3759.09 8.89759C3715.18 11.9631 3665.78 10.4303 3616.38 7.36486C3572.47 4.2994 3517.58 2.76667 3473.67 5.83213C3435.25 8.8976 3391.34 10.4303 3352.92 10.4303C3341.94 10.4303 3330.96 13.4958 3319.99 13.4958C3314.5 13.4958 3309.01 7.36486 3303.52 5.83213C3265.1 4.2994 3221.19 7.36486 3182.77 1.23394C3177.28 -0.298791 3166.3 1.23394 3160.81 2.76667C3133.37 15.0285 3089.46 8.89759 3051.04 10.4303C3040.06 10.4303 3029.08 8.8976 3023.59 5.83213C3007.13 1.23394 2974.19 -1.83152 2952.24 1.23394C2902.84 7.36486 2853.44 7.36486 2804.04 1.23394C2798.55 1.23394 2787.58 1.23394 2782.09 1.23394C2738.18 8.89759 2672.31 8.8976 2639.38 24.2249C2633.89 27.2904 2633.89 30.3558 2633.89 33.4213C2633.89 45.6831 2633.89 56.4122 2633.89 68.6741C2633.89 80.9359 2633.89 93.1978 2633.89 105.46C2628.4 111.591 2617.42 116.189 2617.42 122.32C2617.42 126.918 2622.91 131.516 2633.89 136.114C2666.82 146.843 2639.38 154.507 2622.91 163.703C2589.98 175.965 2589.98 180.563 2622.91 189.76C2639.38 194.358 2655.85 198.956 2672.31 203.554C2694.27 209.685 2716.22 218.882 2760.13 208.153C2771.11 206.62 2798.55 209.685 2815.02 208.153C2869.91 206.62 2935.77 212.751 2990.66 203.554C2996.15 203.554 3018.1 208.153 3034.57 208.153C3078.48 208.153 3127.88 206.62 3177.28 205.087C3226.68 202.022 3281.57 202.022 3330.96 206.62C3380.36 211.218 3424.27 211.218 3468.18 206.62C3506.6 203.554 3545.03 202.022 3577.96 205.087C3616.38 206.62 3638.33 214.284 3660.29 200.489L3671.27 203.554C3676.76 205.087 3687.73 208.153 3693.22 208.153C3737.13 205.087 3781.04 211.218 3808.49 220.414C3819.46 225.013 3830.44 221.947 3841.42 218.882C3846.91 217.349 3846.91 215.816 3852.4 214.284C3879.84 202.022 3912.77 200.489 3945.71 209.685C3967.66 214.283 3978.64 225.013 4011.57 221.947C4033.53 220.414 4049.99 214.284 4066.46 211.218C4077.44 209.685 4093.9 208.153 4099.39 206.62C4115.86 203.554 4126.84 203.554 4137.81 206.62C4148.79 209.685 4165.26 211.218 4176.23 214.284C4198.19 218.882 4214.66 218.882 4236.61 214.284C4280.52 205.087 4340.9 206.62 4384.81 215.816C4401.27 220.414 4412.25 218.882 4412.25 212.751C4417.74 211.218 4417.74 209.685 4423.23 209.685C4456.16 218.882 4467.14 197.423 4500.07 203.554C4516.54 206.62 4533 205.087 4549.47 206.62C4582.4 211.218 4609.85 217.349 4648.27 209.685C4664.73 206.62 4697.67 208.153 4719.62 208.153C4812.93 208.153 4900.75 209.685 4994.06 208.153C5021.5 208.153 5048.95 205.087 5076.39 205.087C5109.32 203.554 5136.77 203.554 5164.21 205.087C5213.61 208.153 5263.01 209.685 5306.92 208.153C5334.36 209.685 5356.32 209.685 5378.27 205.087C5394.74 202.022 5427.67 203.554 5449.63 205.087C5477.07 205.087 5493.54 218.882 5526.47 212.751C5553.91 208.153 5575.87 209.685 5603.31 209.685C5630.76 208.153 5658.2 211.218 5674.67 217.349C5702.11 225.013 5713.09 225.013 5729.56 214.284C5746.02 208.153 5757 203.554 5784.44 205.087C5795.42 205.087 5811.89 206.62 5817.38 208.153C5833.84 211.218 5850.31 215.816 5861.29 218.882ZM6097.3 13.4958C6091.81 13.4958 6086.33 15.0285 6080.84 15.0285C6075.35 15.0285 6069.86 15.0285 6058.88 13.4958C6069.86 11.9631 6069.86 10.4303 6075.35 10.4303C6080.84 11.9631 6091.81 11.9631 6097.3 13.4958ZM6196.1 18.094L6174.15 21.1594L6146.7 18.094C6152.19 16.5612 6157.68 16.5612 6168.66 15.0285C6174.15 16.5612 6185.12 16.5612 6196.1 18.094ZM6305.88 30.3558L6300.39 34.954L6278.43 31.8886C6283.92 31.8886 6289.41 30.3558 6294.9 30.3558C6300.39 28.8231 6305.88 30.3558 6305.88 30.3558ZM3556 50.2813L3550.51 51.8141L3539.54 50.2813L3545.03 48.7486C3550.51 48.7486 3550.52 50.2813 3556 50.2813ZM5784.44 64.0759C5778.95 64.0759 5778.95 65.6086 5778.95 65.6086C5773.47 65.6086 5767.98 64.0759 5767.98 64.0759C5767.98 64.0759 5767.98 62.5432 5773.47 62.5432C5773.47 62.5432 5778.95 64.0759 5784.44 64.0759ZM4313.45 64.0759C4313.45 64.0759 4313.45 65.6086 4307.96 65.6086C4307.96 65.6086 4302.48 64.0759 4296.99 64.0759L4302.48 62.5432L4313.45 64.0759ZM3605.4 64.0759L3599.91 65.6086C3594.42 65.6086 3594.42 64.0759 3594.42 62.5432C3594.42 62.5432 3594.42 62.5432 3599.91 61.0104L3605.4 64.0759ZM3424.27 64.0759L3413.3 65.6086C3413.3 65.6086 3413.3 64.0759 3407.81 62.5432C3407.81 62.5432 3413.3 62.5432 3413.3 61.0104L3424.27 64.0759ZM3967.66 96.2633C3967.66 94.7305 3973.15 94.7305 3973.15 94.7305C3978.64 94.7305 3984.13 96.2633 3984.13 96.2633L3978.64 97.796L3967.66 96.2633ZM6245.5 97.796C6250.99 96.2633 6250.99 93.1978 6250.99 94.7305C6261.97 94.7305 6267.46 94.7305 6272.94 96.2633C6272.94 96.2633 6272.94 97.796 6267.46 97.796C6261.97 97.796 6250.99 97.796 6245.5 97.796ZM4494.58 77.8705L4489.09 79.4032L4478.12 77.8705C4483.61 77.8705 4483.61 76.3378 4483.61 76.3378C4489.09 76.3378 4494.58 77.8705 4494.58 77.8705ZM4445.18 82.4687C4445.18 82.4687 4445.18 84.0014 4439.7 84.0014C4439.7 84.0014 4434.21 82.4687 4428.72 82.4687L4434.21 80.9359L4445.18 82.4687ZM3226.68 82.4687L3221.19 84.0014C3215.7 84.0014 3215.7 82.4687 3210.21 82.4687L3215.7 80.9359L3226.68 82.4687ZM6305.88 94.7305C6305.88 96.2632 6305.88 97.796 6300.39 97.796L6294.9 96.2633L6300.39 93.1978C6305.88 94.7305 6305.88 94.7305 6305.88 94.7305ZM4527.52 100.861C4527.52 100.861 4527.52 102.394 4522.03 102.394C4522.03 102.394 4516.54 100.861 4511.05 100.861L4516.54 99.3287L4527.52 100.861ZM3369.39 113.123C3369.39 114.656 3369.39 116.189 3363.9 117.721L3358.41 114.656L3363.9 113.123C3369.39 113.123 3369.39 113.123 3369.39 113.123ZM3967.66 128.451L3962.17 129.983L3951.19 128.451L3956.68 126.918C3962.17 126.918 3962.17 128.451 3967.66 128.451ZM2666.82 128.451L2655.85 129.983L2650.36 128.451C2650.36 128.451 2655.85 126.918 2661.33 126.918C2661.33 126.918 2661.33 128.451 2666.82 128.451ZM5718.58 137.647C5713.09 137.647 5713.09 139.18 5713.09 139.18C5707.6 139.18 5702.11 137.647 5702.11 137.647C5702.11 137.647 5702.11 136.114 5707.6 136.114C5707.6 136.114 5713.09 137.647 5718.58 137.647ZM4066.46 146.843L4049.99 149.909L4033.53 146.843C4039.02 145.311 4049.99 145.311 4055.48 145.311C4060.97 145.311 4060.97 146.843 4066.46 146.843ZM4543.98 185.162C4538.49 185.162 4527.52 183.629 4527.52 183.629C4533 182.096 4533 179.031 4533 177.498C4538.49 177.498 4543.98 179.031 4543.98 179.031C4543.98 182.096 4543.98 183.629 4543.98 185.162ZM4028.04 177.498C4039.02 177.498 4044.5 177.498 4049.99 179.031C4044.5 180.563 4044.5 180.563 4039.02 180.563C4028.04 180.563 4022.55 180.563 4017.06 179.031C4022.55 179.031 4028.04 177.498 4028.04 177.498ZM2716.22 179.031L2727.2 177.498L2732.69 179.031C2727.2 179.031 2721.71 180.563 2721.71 180.563C2716.22 180.563 2716.22 179.031 2716.22 179.031ZM3890.82 180.563L3896.31 177.498C3896.31 177.498 3901.8 177.498 3901.8 179.031C3896.31 179.031 3896.31 180.563 3896.31 182.096L3890.82 180.563ZM4187.21 160.638V159.105C4187.21 159.105 4187.21 159.105 4192.7 159.105L4198.19 160.638L4192.7 163.703C4187.21 162.171 4187.21 160.638 4187.21 160.638ZM4264.05 160.638L4258.57 162.171L4247.59 160.638C4253.08 160.638 4253.08 159.105 4253.08 159.105C4258.57 159.105 4264.05 160.638 4264.05 160.638ZM5993.02 165.236V163.703C5982.04 169.834 5960.08 165.236 5932.64 168.302L5883.24 166.769C5899.71 160.638 5921.66 163.703 5938.13 163.703C5960.08 163.703 5976.55 163.703 5993.02 165.236ZM6218.06 182.096V180.563C6174.15 180.563 6135.72 180.563 6091.81 182.096C6086.33 180.563 6086.33 180.563 6080.84 179.031C6086.33 179.031 6086.33 177.498 6091.81 177.498C6113.77 177.498 6130.24 177.498 6152.19 177.498C6174.15 177.498 6190.61 177.498 6218.06 177.498C6218.06 177.498 6223.54 179.031 6229.03 179.031C6223.54 180.563 6218.06 182.096 6218.06 182.096ZM5076.39 183.629V182.096C5081.88 182.096 5087.37 180.563 5092.86 182.096C5098.35 182.096 5098.35 183.629 5103.84 185.162L5081.88 186.694L5076.39 183.629ZM5702.11 183.629L5707.6 182.096L5718.58 183.629C5713.09 183.629 5713.09 185.162 5713.09 185.162C5707.6 185.162 5702.11 183.629 5702.11 183.629ZM6300.39 183.629L6289.41 189.76C6283.92 188.227 6278.43 186.694 6278.43 185.162C6278.43 185.162 6283.92 183.629 6283.92 182.096L6300.39 183.629ZM2798.55 192.825L2804.04 191.293C2809.53 191.293 2809.53 192.825 2809.53 194.358C2809.53 194.358 2809.53 194.358 2804.04 195.891L2798.55 192.825ZM4884.29 194.358C4884.29 194.358 4878.8 192.825 4873.31 192.825L4884.29 191.293L4889.77 192.825C4889.77 192.825 4889.77 194.358 4884.29 194.358ZM5916.17 192.825L5899.71 195.891L5883.24 192.825C5888.73 191.293 5894.22 191.293 5905.2 191.293C5905.2 191.293 5910.69 192.825 5916.17 192.825Z" fill="black"/>
</svg>
