<svg width="786" height="81" viewBox="0 0 786 81" fill="none" xmlns="http://www.w3.org/2000/svg">
<path d="M399.373 79.3334C400.045 80.4445 401.389 81 402.732 81C404.076 81 405.419 80.4445 406.091 79.3334C408.106 77.1112 410.793 76.0002 414.152 75.4446C417.511 74.8891 420.87 76.0002 423.557 77.6668C425.573 79.3334 428.931 79.3334 430.947 77.6668C435.649 74.8891 441.695 74.8891 446.398 77.1113C447.741 78.2223 450.428 78.7779 451.772 78.7779C453.787 77.6668 456.474 76.0002 458.49 74.3336C459.833 73.2225 460.505 71.5559 461.177 70.4448C463.864 68.7782 467.223 67.1116 467.895 64.3339C468.567 62.6673 465.879 59.8896 463.864 57.6675C461.849 55.4453 461.849 52.6676 463.192 50.4455C465.879 47.1123 468.567 43.7791 464.536 39.3348C463.192 38.2237 464.536 36.0016 464.536 34.335C464.536 26.0019 464.536 17.1133 464.536 8.78028C464.536 6.55814 464.536 4.89153 463.192 3.22492C460.505 0.447241 459.833 -0.663832 456.474 1.00278C451.1 4.33599 443.711 4.89153 438.336 1.55831C436.993 0.447241 434.306 -0.108296 433.634 0.447241C429.603 3.22492 425.573 1.55831 420.87 2.11385C415.496 2.11385 409.45 2.11385 403.404 3.22492C399.373 4.33599 394.671 3.78046 390.64 2.66938C384.594 1.55831 378.548 1.55831 373.174 3.22492C366.456 4.33599 360.41 4.33599 354.364 3.22492C347.646 2.11385 340.928 2.11385 334.211 3.22492C328.164 4.33599 322.118 4.33599 315.401 3.22492C311.37 2.11385 306.668 3.78046 302.637 0.447241C302.637 -0.108296 299.95 0.447241 299.278 1.00278C293.904 6.0026 287.858 4.33599 282.483 2.11385C279.125 0.447241 275.766 0.447241 272.407 1.55831C267.033 3.22492 260.987 2.66938 256.284 1.00278C254.269 -0.108296 251.582 0.447241 250.238 1.55831C245.536 4.33599 239.49 4.89153 234.787 2.11385C231.428 -0.108296 226.726 -0.108296 223.367 2.11385C219.336 4.89153 213.29 4.89153 209.259 2.11385C207.244 0.447241 204.557 -0.108296 201.87 0.447241C197.167 2.11385 193.137 2.66938 188.434 2.11385C183.06 1.55831 178.358 2.11385 173.655 3.78046C170.968 4.33599 167.609 4.33599 164.922 3.78046C157.532 2.11385 149.471 2.11385 142.081 3.22492C136.707 4.33599 130.661 3.78046 124.615 2.66938C119.241 1.55831 112.523 1.00278 107.149 2.11385C102.446 3.22492 97.0722 3.78046 92.3697 3.78046C91.0262 3.78046 89.6826 4.89153 88.3391 4.89153C87.6673 4.89153 86.9955 2.66938 86.3237 2.11385C81.6212 1.55831 76.247 2.66938 71.5446 0.447241C70.8728 -0.108296 69.5292 0.447241 68.8574 1.00278C65.4985 5.44707 60.1243 3.22492 55.4218 3.78046C54.0783 3.78046 52.7347 3.22492 52.0629 2.11385C50.0476 0.447241 46.0169 -0.663832 43.3298 0.447241C37.2838 2.66938 31.2378 2.66938 25.1917 0.447241C24.52 0.447241 23.1764 0.447241 22.5046 0.447241C17.1304 3.22492 9.06902 3.22492 5.03835 8.78028C4.36654 9.89136 4.36654 11.0024 4.36654 12.1135C4.36654 16.5578 4.36654 20.4465 4.36654 24.8908C4.36654 29.3351 4.36654 33.7794 4.36654 38.2237C3.69477 40.4459 2.35123 42.1125 2.35123 44.3346C2.35123 46.0012 3.023 47.6678 4.36654 49.3344C8.39725 53.2232 5.03835 56.0009 3.023 59.3341C-1.00767 63.7784 -1.00767 65.445 3.023 68.7782C5.03835 70.4448 7.05367 72.1114 9.06902 73.778C11.7561 76.0002 14.4433 79.3334 19.8175 75.4446C21.1611 74.8891 24.52 76.0002 26.5353 75.4446C33.2531 74.8891 41.3144 77.1112 48.0323 73.778C48.7041 73.778 51.3912 75.4446 53.4065 75.4446C58.7807 75.4446 64.8268 74.8891 70.8728 74.3336C76.9188 73.2225 83.6366 73.2225 89.6826 74.8891C95.7286 76.5557 101.103 76.5557 106.477 74.8891C111.18 73.778 115.882 73.2225 119.913 74.3336C124.615 74.8891 127.302 77.6668 129.989 72.667L131.333 73.778C132.005 74.3336 133.348 75.4446 134.02 75.4446C139.394 74.3336 144.769 76.5557 148.127 79.8889C149.471 81.5555 150.815 80.4445 152.158 79.3334C152.83 78.7779 152.83 78.2223 153.502 77.6668C156.861 73.2225 160.891 72.667 164.922 76.0002C167.609 77.6668 168.953 81.5555 172.983 80.4445C175.67 79.8889 177.686 77.6668 179.701 76.5557C181.045 76.0002 183.06 75.4446 183.732 74.8891C185.747 73.778 187.091 73.778 188.434 74.8891C189.778 76.0002 191.793 76.5557 193.137 77.6668C195.824 79.3334 197.839 79.3334 200.526 77.6668C205.901 74.3336 213.29 74.8891 218.664 78.2223C220.68 79.8889 222.023 79.3334 222.023 77.1113C222.695 76.5557 222.695 76.0002 223.367 76.0002C227.398 79.3334 228.741 71.5559 232.772 73.778C234.787 74.8891 236.802 74.3336 238.818 74.8891C242.848 76.5557 246.207 78.7778 250.91 76.0002C252.925 74.8891 256.956 75.4446 259.643 75.4446C271.063 75.4446 281.812 76.0002 293.232 75.4446C296.591 75.4446 299.95 74.3336 303.309 74.3336C307.339 73.778 310.698 73.778 314.057 74.3336C320.103 75.4446 326.149 76.0002 331.523 75.4446C334.882 76.0002 337.569 76.0002 340.257 74.3336C342.272 73.2225 346.303 73.778 348.99 74.3336C352.349 74.3336 354.364 79.3334 358.395 77.1113C361.754 75.4446 364.441 76.0002 367.8 76.0002C371.158 75.4446 374.517 76.5557 376.533 78.7779C379.892 81.5555 381.235 81.5555 383.25 77.6668C385.266 75.4446 386.609 73.778 389.968 74.3336C391.312 74.3336 393.327 74.8891 393.999 75.4446C396.014 76.5557 398.03 78.2223 399.373 79.3334ZM428.26 4.89153C427.588 4.89153 426.916 5.44707 426.244 5.44707C425.573 5.44707 424.901 5.44707 423.557 4.89153C424.901 4.33599 424.901 3.78046 425.573 3.78046C426.244 4.33599 427.588 4.33599 428.26 4.89153ZM440.352 6.55814L437.665 7.66921L434.306 6.55814C434.978 6.0026 435.649 6.0026 436.993 5.44707C437.665 6.0026 439.008 6.0026 440.352 6.55814ZM453.787 11.0024L453.116 12.669L450.428 11.558C451.1 11.558 451.772 11.0024 452.444 11.0024C453.116 10.4469 453.787 11.0024 453.787 11.0024ZM117.226 18.2244L116.554 18.7799L115.21 18.2244L115.882 17.6689C116.554 17.6689 116.554 18.2244 117.226 18.2244ZM389.968 23.2242C389.296 23.2242 389.296 23.7798 389.296 23.7798C388.625 23.7798 387.953 23.2242 387.953 23.2242C387.953 23.2242 387.953 22.6687 388.625 22.6687C388.625 22.6687 389.296 23.2242 389.968 23.2242ZM209.931 23.2242C209.931 23.2242 209.931 23.7798 209.259 23.7798C209.259 23.7798 208.588 23.2242 207.916 23.2242L208.588 22.6687L209.931 23.2242ZM123.272 23.2242L122.6 23.7798C121.928 23.7798 121.928 23.2242 121.928 22.6687C121.928 22.6687 121.928 22.6687 122.6 22.1132L123.272 23.2242ZM101.103 23.2242L99.7593 23.7798C99.7593 23.7798 99.7593 23.2242 99.0875 22.6687C99.0875 22.6687 99.7593 22.6687 99.7593 22.1132L101.103 23.2242ZM167.609 34.8905C167.609 34.335 168.281 34.335 168.281 34.335C168.953 34.335 169.624 34.8905 169.624 34.8905L168.953 35.446L167.609 34.8905ZM446.398 35.446C447.07 34.8905 447.07 33.7794 447.07 34.335C448.413 34.335 449.085 34.335 449.757 34.8905C449.757 34.8905 449.757 35.446 449.085 35.446C448.413 35.446 447.07 35.446 446.398 35.446ZM232.1 28.2241L231.428 28.7796L230.085 28.2241C230.756 28.2241 230.756 27.6685 230.756 27.6685C231.428 27.6685 232.1 28.2241 232.1 28.2241ZM226.054 29.8907C226.054 29.8907 226.054 30.4462 225.382 30.4462C225.382 30.4462 224.71 29.8907 224.039 29.8907L224.71 29.3351L226.054 29.8907ZM76.9188 29.8907L76.247 30.4462C75.5752 30.4462 75.5752 29.8907 74.9035 29.8907L75.5752 29.3351L76.9188 29.8907ZM453.787 34.335C453.787 34.8905 453.787 35.446 453.116 35.446L452.444 34.8905L453.116 33.7794C453.787 34.335 453.787 34.335 453.787 34.335ZM236.131 36.5571C236.131 36.5571 236.131 37.1126 235.459 37.1126C235.459 37.1126 234.787 36.5571 234.115 36.5571L234.787 36.0016L236.131 36.5571ZM94.3851 41.0014C94.3851 41.5569 94.3851 42.1125 93.7133 42.668L93.0415 41.5569L93.7133 41.0014C94.3851 41.0014 94.3851 41.0014 94.3851 41.0014ZM167.609 46.5568L166.937 47.1123L165.594 46.5568L166.266 46.0012C166.937 46.0012 166.937 46.5568 167.609 46.5568ZM8.39725 46.5568L7.05367 47.1123L6.3819 46.5568C6.3819 46.5568 7.05367 46.0012 7.72544 46.0012C7.72544 46.0012 7.72544 46.5568 8.39725 46.5568ZM381.907 49.89C381.235 49.89 381.235 50.4455 381.235 50.4455C380.563 50.4455 379.892 49.89 379.892 49.89C379.892 49.89 379.892 49.3344 380.563 49.3344C380.563 49.3344 381.235 49.89 381.907 49.89ZM179.701 53.2232L177.686 54.3343L175.67 53.2232C176.342 52.6676 177.686 52.6676 178.358 52.6676C179.029 52.6676 179.029 53.2232 179.701 53.2232ZM238.146 67.1116C237.474 67.1116 236.131 66.5561 236.131 66.5561C236.802 66.0005 236.802 64.8894 236.802 64.3339C237.474 64.3339 238.146 64.8894 238.146 64.8894C238.146 66.0005 238.146 66.5561 238.146 67.1116ZM174.999 64.3339C176.342 64.3339 177.014 64.3339 177.686 64.8894C177.014 65.445 177.014 65.445 176.342 65.445C174.999 65.445 174.327 65.445 173.655 64.8894C174.327 64.8894 174.999 64.3339 174.999 64.3339ZM14.4433 64.8894L15.7868 64.3339L16.4586 64.8894C15.7868 64.8894 15.115 65.445 15.115 65.445C14.4433 65.445 14.4433 64.8894 14.4433 64.8894ZM158.204 65.445L158.876 64.3339C158.876 64.3339 159.548 64.3339 159.548 64.8894C158.876 64.8894 158.876 65.445 158.876 66.0005L158.204 65.445ZM194.48 58.223V57.6675C194.48 57.6675 194.48 57.6675 195.152 57.6675L195.824 58.223L195.152 59.3341C194.48 58.7785 194.48 58.223 194.48 58.223ZM203.885 58.223L203.213 58.7785L201.87 58.223C202.542 58.223 202.542 57.6675 202.542 57.6675C203.213 57.6675 203.885 58.223 203.885 58.223ZM415.496 59.8896V59.3341C414.152 61.5562 411.465 59.8896 408.106 61.0007L402.06 60.4452C404.076 58.223 406.763 59.3341 408.778 59.3341C411.465 59.3341 413.481 59.3341 415.496 59.8896ZM443.039 66.0005V65.445C437.665 65.445 432.962 65.445 427.588 66.0005C426.916 65.445 426.916 65.445 426.244 64.8894C426.916 64.8894 426.916 64.3339 427.588 64.3339C430.275 64.3339 432.29 64.3339 434.978 64.3339C437.665 64.3339 439.68 64.3339 443.039 64.3339C443.039 64.3339 443.711 64.8894 444.382 64.8894C443.711 65.445 443.039 66.0005 443.039 66.0005ZM303.309 66.5561V66.0005C303.98 66.0005 304.652 65.445 305.324 66.0005C305.996 66.0005 305.996 66.5561 306.668 67.1116L303.98 67.6671L303.309 66.5561ZM379.892 66.5561L380.563 66.0005L381.907 66.5561C381.235 66.5561 381.235 67.1116 381.235 67.1116C380.563 67.1116 379.892 66.5561 379.892 66.5561ZM453.116 66.5561L451.772 68.7782C451.1 68.2227 450.428 67.6671 450.428 67.1116C450.428 67.1116 451.1 66.5561 451.1 66.0005L453.116 66.5561ZM24.52 69.8893L25.1917 69.3337C25.8635 69.3337 25.8635 69.8893 25.8635 70.4448C25.8635 70.4448 25.8635 70.4448 25.1917 71.0003L24.52 69.8893ZM279.796 70.4448C279.796 70.4448 279.125 69.8893 278.453 69.8893L279.796 69.3337L280.468 69.8893C280.468 69.8893 280.468 70.4448 279.796 70.4448ZM406.091 69.8893L404.076 71.0003L402.06 69.8893C402.732 69.3337 403.404 69.3337 404.747 69.3337C404.747 69.3337 405.419 69.8893 406.091 69.8893Z" fill="black"/>
<path d="M717.373 79.3334C718.045 80.4445 719.389 81 720.732 81C722.076 81 723.419 80.4445 724.091 79.3334C726.106 77.1112 728.793 76.0002 732.152 75.4446C735.511 74.8891 738.87 76.0002 741.557 77.6668C743.573 79.3334 746.931 79.3334 748.947 77.6668C753.649 74.8891 759.695 74.8891 764.398 77.1113C765.741 78.2223 768.428 78.7779 769.772 78.7779C771.787 77.6668 774.474 76.0002 776.49 74.3336C777.833 73.2225 778.505 71.5559 779.177 70.4448C781.864 68.7782 785.223 67.1116 785.895 64.3339C786.567 62.6673 783.879 59.8896 781.864 57.6675C779.849 55.4453 779.849 52.6676 781.192 50.4455C783.879 47.1123 786.567 43.7791 782.536 39.3348C781.192 38.2237 782.536 36.0016 782.536 34.335C782.536 26.0019 782.536 17.1133 782.536 8.78028C782.536 6.55814 782.536 4.89153 781.192 3.22492C778.505 0.447241 777.833 -0.663832 774.474 1.00278C769.1 4.33599 761.711 4.89153 756.336 1.55831C754.993 0.447241 752.306 -0.108296 751.634 0.447241C747.603 3.22492 743.573 1.55831 738.87 2.11385C733.496 2.11385 727.45 2.11385 721.404 3.22492C717.373 4.33599 712.671 3.78046 708.64 2.66938C702.594 1.55831 696.548 1.55831 691.174 3.22492C684.456 4.33599 678.41 4.33599 672.364 3.22492C665.646 2.11385 658.928 2.11385 652.211 3.22492C646.164 4.33599 640.118 4.33599 633.401 3.22492C629.37 2.11385 624.668 3.78046 620.637 0.447241C620.637 -0.108296 617.95 0.447241 617.278 1.00278C611.904 6.0026 605.858 4.33599 600.483 2.11385C597.125 0.447241 593.766 0.447241 590.407 1.55831C585.033 3.22492 578.987 2.66938 574.284 1.00278C572.269 -0.108296 569.582 0.447241 568.238 1.55831C563.536 4.33599 557.49 4.89153 552.787 2.11385C549.428 -0.108296 544.726 -0.108296 541.367 2.11385C537.336 4.89153 531.29 4.89153 527.259 2.11385C525.244 0.447241 522.557 -0.108296 519.87 0.447241C515.167 2.11385 511.137 2.66938 506.434 2.11385C501.06 1.55831 496.358 2.11385 491.655 3.78046C488.968 4.33599 485.609 4.33599 482.922 3.78046C475.532 2.11385 467.471 2.11385 460.081 3.22492C454.707 4.33599 448.661 3.78046 442.615 2.66938C437.241 1.55831 430.523 1.00278 425.149 2.11385C420.446 3.22492 415.072 3.78046 410.37 3.78046C409.026 3.78046 407.683 4.89153 406.339 4.89153C405.667 4.89153 404.996 2.66938 404.324 2.11385C399.621 1.55831 394.247 2.66938 389.545 0.447241C388.873 -0.108296 387.529 0.447241 386.857 1.00278C383.499 5.44707 378.124 3.22492 373.422 3.78046C372.078 3.78046 370.735 3.22492 370.063 2.11385C368.048 0.447241 364.017 -0.663832 361.33 0.447241C355.284 2.66938 349.238 2.66938 343.192 0.447241C342.52 0.447241 341.176 0.447241 340.505 0.447241C335.13 3.22492 327.069 3.22492 323.038 8.78028C322.367 9.89136 322.367 11.0024 322.367 12.1135C322.367 16.5578 322.367 20.4465 322.367 24.8908C322.367 29.3351 322.367 33.7794 322.367 38.2237C321.695 40.4459 320.351 42.1125 320.351 44.3346C320.351 46.0012 321.023 47.6678 322.367 49.3344C326.397 53.2232 323.038 56.0009 321.023 59.3341C316.992 63.7784 316.992 65.445 321.023 68.7782C323.038 70.4448 325.054 72.1114 327.069 73.778C329.756 76.0002 332.443 79.3334 337.817 75.4446C339.161 74.8891 342.52 76.0002 344.535 75.4446C351.253 74.8891 359.314 77.1112 366.032 73.778C366.704 73.778 369.391 75.4446 371.406 75.4446C376.781 75.4446 382.827 74.8891 388.873 74.3336C394.919 73.2225 401.637 73.2225 407.683 74.8891C413.729 76.5557 419.103 76.5557 424.477 74.8891C429.18 73.778 433.882 73.2225 437.913 74.3336C442.615 74.8891 445.302 77.6668 447.989 72.667L449.333 73.778C450.005 74.3336 451.348 75.4446 452.02 75.4446C457.394 74.3336 462.769 76.5557 466.128 79.8889C467.471 81.5555 468.815 80.4445 470.158 79.3334C470.83 78.7779 470.83 78.2223 471.502 77.6668C474.861 73.2225 478.891 72.667 482.922 76.0002C485.609 77.6668 486.953 81.5555 490.983 80.4445C493.67 79.8889 495.686 77.6668 497.701 76.5557C499.045 76.0002 501.06 75.4446 501.732 74.8891C503.747 73.778 505.091 73.778 506.434 74.8891C507.778 76.0002 509.793 76.5557 511.137 77.6668C513.824 79.3334 515.839 79.3334 518.526 77.6668C523.901 74.3336 531.29 74.8891 536.664 78.2223C538.68 79.8889 540.023 79.3334 540.023 77.1113C540.695 76.5557 540.695 76.0002 541.367 76.0002C545.398 79.3334 546.741 71.5559 550.772 73.778C552.787 74.8891 554.802 74.3336 556.818 74.8891C560.848 76.5557 564.207 78.7778 568.91 76.0002C570.925 74.8891 574.956 75.4446 577.643 75.4446C589.063 75.4446 599.812 76.0002 611.232 75.4446C614.591 75.4446 617.95 74.3336 621.309 74.3336C625.339 73.778 628.698 73.778 632.057 74.3336C638.103 75.4446 644.149 76.0002 649.523 75.4446C652.882 76.0002 655.569 76.0002 658.257 74.3336C660.272 73.2225 664.303 73.778 666.99 74.3336C670.349 74.3336 672.364 79.3334 676.395 77.1113C679.753 75.4446 682.441 76.0002 685.799 76.0002C689.158 75.4446 692.517 76.5557 694.533 78.7779C697.892 81.5555 699.235 81.5555 701.25 77.6668C703.266 75.4446 704.609 73.778 707.968 74.3336C709.312 74.3336 711.327 74.8891 711.999 75.4446C714.014 76.5557 716.03 78.2223 717.373 79.3334ZM746.26 4.89153C745.588 4.89153 744.916 5.44707 744.244 5.44707C743.573 5.44707 742.901 5.44707 741.557 4.89153C742.901 4.33599 742.901 3.78046 743.573 3.78046C744.244 4.33599 745.588 4.33599 746.26 4.89153ZM758.352 6.55814L755.665 7.66921L752.306 6.55814C752.978 6.0026 753.649 6.0026 754.993 5.44707C755.665 6.0026 757.008 6.0026 758.352 6.55814ZM771.787 11.0024L771.116 12.669L768.428 11.558C769.1 11.558 769.772 11.0024 770.444 11.0024C771.116 10.4469 771.787 11.0024 771.787 11.0024ZM435.226 18.2244L434.554 18.7799L433.21 18.2244L433.882 17.6689C434.554 17.6689 434.554 18.2244 435.226 18.2244ZM707.968 23.2242C707.296 23.2242 707.297 23.7798 707.297 23.7798C706.625 23.7798 705.953 23.2242 705.953 23.2242C705.953 23.2242 705.953 22.6687 706.625 22.6687C706.625 22.6687 707.296 23.2242 707.968 23.2242ZM527.931 23.2242C527.931 23.2242 527.931 23.7798 527.259 23.7798C527.259 23.7798 526.588 23.2242 525.916 23.2242L526.588 22.6687L527.931 23.2242ZM441.272 23.2242L440.6 23.7798C439.928 23.7798 439.928 23.2242 439.928 22.6687C439.928 22.6687 439.928 22.6687 440.6 22.1132L441.272 23.2242ZM419.103 23.2242L417.759 23.7798C417.759 23.7798 417.759 23.2242 417.088 22.6687C417.088 22.6687 417.759 22.6687 417.759 22.1132L419.103 23.2242ZM485.609 34.8905C485.609 34.335 486.281 34.335 486.281 34.335C486.953 34.335 487.624 34.8905 487.624 34.8905L486.953 35.446L485.609 34.8905ZM764.398 35.446C765.07 34.8905 765.07 33.7794 765.07 34.335C766.413 34.335 767.085 34.335 767.757 34.8905C767.757 34.8905 767.757 35.446 767.085 35.446C766.413 35.446 765.07 35.446 764.398 35.446ZM550.1 28.2241L549.428 28.7796L548.085 28.2241C548.756 28.2241 548.756 27.6685 548.756 27.6685C549.428 27.6685 550.1 28.2241 550.1 28.2241ZM544.054 29.8907C544.054 29.8907 544.054 30.4462 543.382 30.4462C543.382 30.4462 542.71 29.8907 542.039 29.8907L542.71 29.3351L544.054 29.8907ZM394.919 29.8907L394.247 30.4462C393.575 30.4462 393.575 29.8907 392.903 29.8907L393.575 29.3351L394.919 29.8907ZM771.787 34.335C771.787 34.8905 771.787 35.446 771.116 35.446L770.444 34.8905L771.116 33.7794C771.787 34.335 771.787 34.335 771.787 34.335ZM554.131 36.5571C554.131 36.5571 554.131 37.1126 553.459 37.1126C553.459 37.1126 552.787 36.5571 552.115 36.5571L552.787 36.0016L554.131 36.5571ZM412.385 41.0014C412.385 41.5569 412.385 42.1125 411.713 42.668L411.042 41.5569L411.713 41.0014C412.385 41.0014 412.385 41.0014 412.385 41.0014ZM485.609 46.5568L484.937 47.1123L483.594 46.5568L484.266 46.0012C484.937 46.0012 484.937 46.5568 485.609 46.5568ZM326.397 46.5568L325.054 47.1123L324.382 46.5568C324.382 46.5568 325.054 46.0012 325.725 46.0012C325.725 46.0012 325.725 46.5568 326.397 46.5568ZM699.907 49.89C699.235 49.89 699.235 50.4455 699.235 50.4455C698.563 50.4455 697.892 49.89 697.892 49.89C697.892 49.89 697.892 49.3344 698.563 49.3344C698.563 49.3344 699.235 49.89 699.907 49.89ZM497.701 53.2232L495.686 54.3343L493.67 53.2232C494.342 52.6676 495.686 52.6676 496.358 52.6676C497.029 52.6676 497.029 53.2232 497.701 53.2232ZM556.146 67.1116C555.474 67.1116 554.131 66.5561 554.131 66.5561C554.802 66.0005 554.802 64.8894 554.802 64.3339C555.474 64.3339 556.146 64.8894 556.146 64.8894C556.146 66.0005 556.146 66.5561 556.146 67.1116ZM492.999 64.3339C494.342 64.3339 495.014 64.3339 495.686 64.8894C495.014 65.445 495.014 65.445 494.342 65.445C492.999 65.445 492.327 65.445 491.655 64.8894C492.327 64.8894 492.999 64.3339 492.999 64.3339ZM332.443 64.8894L333.787 64.3339L334.459 64.8894C333.787 64.8894 333.115 65.445 333.115 65.445C332.443 65.445 332.443 64.8894 332.443 64.8894ZM476.204 65.445L476.876 64.3339C476.876 64.3339 477.548 64.3339 477.548 64.8894C476.876 64.8894 476.876 65.445 476.876 66.0005L476.204 65.445ZM512.48 58.223V57.6675C512.48 57.6675 512.48 57.6675 513.152 57.6675L513.824 58.223L513.152 59.3341C512.48 58.7785 512.48 58.223 512.48 58.223ZM521.885 58.223L521.213 58.7785L519.87 58.223C520.542 58.223 520.542 57.6675 520.542 57.6675C521.213 57.6675 521.885 58.223 521.885 58.223ZM733.496 59.8896V59.3341C732.152 61.5562 729.465 59.8896 726.106 61.0007L720.06 60.4452C722.076 58.223 724.763 59.3341 726.778 59.3341C729.465 59.3341 731.481 59.3341 733.496 59.8896ZM761.039 66.0005V65.445C755.665 65.445 750.962 65.445 745.588 66.0005C744.916 65.445 744.916 65.445 744.244 64.8894C744.916 64.8894 744.916 64.3339 745.588 64.3339C748.275 64.3339 750.29 64.3339 752.978 64.3339C755.665 64.3339 757.68 64.3339 761.039 64.3339C761.039 64.3339 761.711 64.8894 762.382 64.8894C761.711 65.445 761.039 66.0005 761.039 66.0005ZM621.309 66.5561V66.0005C621.98 66.0005 622.652 65.445 623.324 66.0005C623.996 66.0005 623.996 66.5561 624.668 67.1116L621.98 67.6671L621.309 66.5561ZM697.892 66.5561L698.563 66.0005L699.907 66.5561C699.235 66.5561 699.235 67.1116 699.235 67.1116C698.563 67.1116 697.892 66.5561 697.892 66.5561ZM771.116 66.5561L769.772 68.7782C769.1 68.2227 768.428 67.6671 768.428 67.1116C768.428 67.1116 769.1 66.5561 769.1 66.0005L771.116 66.5561ZM342.52 69.8893L343.192 69.3337C343.864 69.3337 343.863 69.8893 343.863 70.4448C343.863 70.4448 343.864 70.4448 343.192 71.0003L342.52 69.8893ZM597.796 70.4448C597.796 70.4448 597.125 69.8893 596.453 69.8893L597.796 69.3337L598.468 69.8893C598.468 69.8893 598.468 70.4448 597.796 70.4448ZM724.091 69.8893L722.076 71.0003L720.06 69.8893C720.732 69.3337 721.404 69.3337 722.747 69.3337C722.747 69.3337 723.419 69.8893 724.091 69.8893Z" fill="black"/>
</svg>
