<svg width="69" height="74" viewBox="0 0 69 74" fill="none" xmlns="http://www.w3.org/2000/svg">
<circle cx="33.7224" cy="39.5255" r="27.5344" transform="rotate(15 33.7224 39.5255)" fill="#3263FE"/>
<path d="M27.0597 30.3915C27.0683 30.3938 27.0769 30.3961 27.0716 30.451C27.0662 30.5059 27.0467 30.6133 27.041 30.6698" stroke="black" stroke-width="4" stroke-linecap="round"/>
<path d="M43.8887 35.0657C43.8849 35.0646 43.881 35.0636 43.8583 35.0161C43.8356 34.9686 43.7941 34.8748 43.8159 34.8543C43.8377 34.8338 43.9241 34.8896 43.8924 34.9803" stroke="black" stroke-width="4" stroke-linecap="round"/>
<path d="M34.361 30.8857C34.3578 30.898 34.2388 31.4051 34.2011 33.0024C34.1751 34.1014 34.5605 35.7756 34.7688 36.8336C34.9771 37.8916 35.1053 38.2799 35.2727 38.6581C35.6056 39.41 36.0595 39.9986 36.4862 40.4512C36.8924 40.8822 37.2908 41.1136 37.4499 41.2486C37.5149 41.3037 36.9993 41.3342 35.9445 41.4038C35.2052 41.4526 34.0581 41.6095 33.4223 41.6838C32.7866 41.758 32.6988 41.7654 32.5709 41.7822C32.443 41.7989 32.2778 41.8247 32.0056 41.8517" stroke="black" stroke-width="2.4" stroke-linecap="round"/>
<path d="M16.7863 35.0114C16.1445 34.8426 15.4875 35.2261 15.3187 35.8678C15.1499 36.5096 15.5334 37.1666 16.1751 37.3354L16.4807 36.1734L16.7863 35.0114ZM17.0725 36.3291L16.767 37.491L16.767 37.4911L17.0725 36.3291ZM19.6699 36.978L19.931 35.8052V35.8052L19.6699 36.978ZM21.5768 37.2967L21.4296 38.4891V38.4891L21.5768 37.2967ZM21.4378 38.4901C22.0964 38.5714 22.6961 38.1034 22.7774 37.4448C22.8586 36.7862 22.3906 36.1865 21.732 36.1052L21.5849 37.2977L21.4378 38.4901ZM47.9203 42.9304C47.2838 42.7427 46.6157 43.1066 46.428 43.743C46.2404 44.3795 46.6042 45.0476 47.2407 45.2353L47.5805 44.0829L47.9203 42.9304ZM49.8477 45.3385L50.6342 44.4302L50.6031 44.4033L50.5702 44.3785L49.8477 45.3385ZM50.643 45.9801L49.998 46.9938L50.0137 47.0038L50.0297 47.0132L50.643 45.9801ZM50.4602 47.23C51.0692 47.4935 51.7765 47.2134 52.04 46.6044C52.3035 45.9954 52.0235 45.2881 51.4145 45.0246L50.9373 46.1273L50.4602 47.23ZM18.2251 36.4871C17.0245 36.4394 17.0245 36.4401 17.0245 36.4408C17.0245 36.4411 17.0244 36.4418 17.0244 36.4424C17.0244 36.4436 17.0243 36.445 17.0242 36.4465C17.0241 36.4497 17.024 36.4536 17.0239 36.4583C17.0236 36.4677 17.0232 36.4801 17.0228 36.4956C17.0221 36.5264 17.0214 36.5692 17.021 36.6233C17.0204 36.7315 17.0213 36.8848 17.0274 37.078C17.0395 37.4639 17.072 38.0104 17.1529 38.6734C17.3144 39.9961 17.6709 41.8013 18.4554 43.727C20.0381 47.6121 23.3611 51.9607 30.1749 53.7864L30.4858 52.6259L30.7968 51.4653C24.8444 49.8704 22.037 46.1496 20.6809 42.8205C19.9959 41.1391 19.6809 39.551 19.5382 38.3822C19.4671 37.7994 19.4393 37.3256 19.4292 37.0026C19.4241 36.8413 19.4235 36.7181 19.424 36.6383C19.4242 36.5984 19.4248 36.5694 19.4252 36.5519C19.4254 36.5432 19.4256 36.5373 19.4256 36.5344C19.4257 36.533 19.4257 36.5323 19.4257 36.5324C19.4257 36.5324 19.4257 36.5326 19.4257 36.533C19.4257 36.5333 19.4257 36.5337 19.4257 36.5338C19.4256 36.5343 19.4256 36.5349 18.2251 36.4871ZM30.4858 52.6259L30.1749 53.7864C36.9886 55.6122 42.0407 53.5077 45.3539 50.9345C46.9962 49.659 48.2075 48.2739 49.0087 47.2091C49.4103 46.6754 49.7117 46.2184 49.9152 45.8902C50.017 45.726 50.0945 45.5937 50.148 45.4997C50.1747 45.4527 50.1955 45.4152 50.2103 45.3881C50.2177 45.3746 50.2236 45.3636 50.2281 45.3553C50.2303 45.3512 50.2321 45.3477 50.2336 45.345C50.2343 45.3436 50.235 45.3423 50.2355 45.3413C50.2358 45.3408 50.2362 45.3401 50.2363 45.3399C50.2366 45.3392 50.2369 45.3387 49.1733 44.7797C48.1098 44.2207 48.11 44.2203 48.1103 44.2198C48.1103 44.2197 48.1105 44.2193 48.1106 44.2192C48.1108 44.2188 48.1109 44.2186 48.1109 44.2186C48.111 44.2185 48.1106 44.2191 48.11 44.2204C48.1086 44.2229 48.1058 44.2281 48.1016 44.2357C48.0933 44.2511 48.0792 44.2765 48.0595 44.3111C48.02 44.3805 47.9578 44.4869 47.8728 44.6241C47.7026 44.8987 47.4416 45.2952 47.0886 45.7643C46.3806 46.7052 45.3138 47.923 43.8799 49.0366C41.0409 51.2417 36.7492 53.0603 30.7968 51.4653L30.4858 52.6259ZM16.4807 36.1734L16.1751 37.3354L16.767 37.491L17.0725 36.3291L17.3781 35.1671L16.7863 35.0114L16.4807 36.1734ZM17.0725 36.3291L16.767 37.4911C17.3465 37.6434 18.5384 37.957 19.4087 38.1508L19.6699 36.978L19.931 35.8052C19.1143 35.6234 17.9699 35.3227 17.3781 35.167L17.0725 36.3291ZM19.6699 36.978L19.4087 38.1508C20.3047 38.3503 20.8323 38.4154 21.4296 38.4891L21.5768 37.2967L21.7239 36.1042C21.1523 36.0337 20.7143 35.9797 19.931 35.8052L19.6699 36.978ZM21.5768 37.2967L21.4296 38.4891L21.4378 38.4901L21.5849 37.2977L21.732 36.1052L21.7239 36.1042L21.5768 37.2967ZM47.5805 44.0829L47.2407 45.2353C47.3759 45.2752 48.1227 45.5439 49.1251 46.2984L49.8477 45.3385L50.5702 44.3785C49.3446 43.456 48.3397 43.0541 47.9203 42.9304L47.5805 44.0829ZM49.8477 45.3385L49.0612 46.2468C49.4253 46.5621 49.7305 46.8236 49.998 46.9938L50.643 45.9801L51.2881 44.9664C51.2022 44.9118 51.0436 44.7847 50.6342 44.4302L49.8477 45.3385ZM50.643 45.9801L50.0297 47.0132C50.1718 47.0976 50.3034 47.1622 50.4602 47.23L50.9373 46.1273L51.4145 45.0246C51.3262 44.9864 51.2899 44.9668 51.2564 44.9469L50.643 45.9801Z" fill="black"/>
<path d="M25.639 19.8966C25.9081 19.8993 26.8122 19.7626 29.929 17.8499C32.2368 16.008 34.3662 13.8288 35.7292 12.0754C36.225 11.422 36.3232 11.2486 36.4243 11.0698" stroke="black" stroke-width="2" stroke-linecap="round"/>
<path d="M33.9552 20.4486C33.9588 20.4353 34.2715 20.2487 34.8172 19.9147C35.0519 19.7603 35.2012 19.6367 35.9401 18.6787C36.679 17.7207 38.0031 15.932 39.4917 13.7303" stroke="black" stroke-width="2" stroke-linecap="round"/>
<path d="M35.0556 23.6864C35.3328 23.7508 36.3303 23.8186 37.4614 23.3269C39.5085 21.393 41.622 18.821 42.2546 17.628C42.6088 16.8911 43.0303 15.8872 43.5164 14.6595" stroke="black" stroke-width="2" stroke-linecap="round"/>
</svg>
