<svg width="59" height="61" viewBox="0 0 59 61" fill="none" xmlns="http://www.w3.org/2000/svg">
<circle cx="31.2056" cy="33.5" r="27.5" fill="#FFC800"/>
<path d="M22.7056 24.0347C22.7145 24.0347 22.7234 24.0347 22.7324 24.089C22.7414 24.1433 22.7503 24.252 22.7595 24.308" stroke="black" stroke-width="4" stroke-linecap="round"/>
<path d="M40.1491 24.1935C40.1451 24.1935 40.1411 24.1935 40.1069 24.1536C40.0727 24.1136 40.0084 24.0338 40.0242 24.0084C40.0399 23.983 40.1377 24.0145 40.1306 24.1102" stroke="black" stroke-width="4" stroke-linecap="round"/>
<path d="M31.9877 24.4517C30.6712 25.7389 28.0141 28.3756 28.0537 28.5606C28.1611 28.6396 28.446 28.6885 29.5689 28.7546C30.6919 28.8208 32.6443 28.9027 34.6558 28.9872" stroke="black" stroke-width="2" stroke-linecap="round"/>
<path d="M16.1082 34.5812C20.2676 34.5812 24.4271 34.5812 29.7433 34.535C35.0596 34.4888 41.4066 34.3965 48.1706 34.1919" stroke="black" stroke-width="2" stroke-linecap="round"/>
<path d="M15.8888 34.9656C15.8888 34.9557 15.9043 35.2484 16.0298 36.1307C16.2382 37.5962 16.8228 39.118 18.0245 41.3472C18.8939 42.9598 20.5468 45.4049 21.5736 46.9263C22.9569 48.9758 23.818 49.7729 24.5342 50.3852C25.871 51.5282 28.0652 52.0316 30.1055 52.4206C32.4029 52.8587 34.5415 52.4747 36.2027 52.0664C37.8432 51.6633 39.5989 50.7162 41.4822 49.4994C42.4237 48.8911 43.2152 48.1233 43.9811 47.2997C45.5165 45.6486 46.4506 44.0458 47.0985 42.5464C47.9681 40.5341 48.1721 38.9862 48.2292 38.257C48.2597 37.788 48.2931 37.1183 48.316 36.3857C48.339 35.6532 48.3505 34.8781 48.3623 34.0796" stroke="black" stroke-width="2" stroke-linecap="round"/>
<path d="M12.9332 9.95639C13.198 10.0647 16.5703 12.2122 19.8145 13.8037C21.7436 14.7501 24.6365 14.6015 27.0315 14.6232C28.9792 14.6409 30.3944 13.8356 32.5455 12.5006C34.2899 11.418 34.9014 9.86722 35.5955 7.87459C35.8793 7.05996 35.8287 6.27756 35.7638 5.50069C35.7062 4.81057 35.3051 4.25777 34.8597 3.84226C33.3941 2.47496 30.1118 3.68241 29.3372 4.1673C28.0811 4.95365 28.4552 9.6086 28.6042 11.5871C28.6916 12.7477 30.6999 13.8724 32.5035 14.803C33.3405 15.2349 36.0112 15.3591 39.4722 15.4256C41.8786 15.4718 44.1332 13.301 45.4849 11.4935C46.4656 10.1821 45.8594 8.57687 45.6451 7.94484C45.5502 7.66498 45.3902 7.50417 45.0934 7.41328C43.7365 6.99768 42.5445 8.07212 41.7657 8.72727C40.7283 9.60006 41.6365 12.2757 41.9629 13.4431C42.2894 14.6108 44.0798 16.0844 46.3501 17.4099C49.0421 18.9817 51.9192 18.3976 53.4416 18.2561C53.6866 18.1864 53.9664 18.084 54.1985 17.9827C54.4306 17.8814 54.6064 17.7844 54.8115 17.6375" stroke="black" stroke-width="2" stroke-linecap="round"/>
<path d="M1 46.5738C1.74097 46.5738 3.29958 46.2603 4.17979 45.5261C6.20153 43.8398 6.73438 40.5821 7.12882 38.3809C7.38661 36.9423 7.06748 35.7748 6.78434 35.1481C6.51365 34.5489 5.94963 33.9976 5.33757 33.4987C4.89312 33.1365 4.16243 33.1234 3.38179 33.1417C2.8374 33.1544 2.46259 33.433 2.12487 33.7222C1.40785 34.3362 1.47881 36.0328 1.77286 37.6424C1.93556 38.533 2.63833 39.0726 3.02689 39.4152C3.74684 40.0499 5.00309 39.8567 6.04382 39.6831C7.53857 39.4338 8.92975 37.0034 10.1738 33.8256C10.701 32.479 10.9365 30.3279 11.1331 28.1067C11.3298 25.8856 11.3067 23.6036 11.1804 21.7948C11.0542 19.9859 10.8255 18.7192 10.5948 17.7067C10.3641 16.6942 10.1383 15.9741 9.86996 15" stroke="black" stroke-width="2" stroke-linecap="round"/>
</svg>
