<svg width="69" height="74" viewBox="0 0 69 74" fill="none" xmlns="http://www.w3.org/2000/svg">
<circle cx="35.2775" cy="39.5256" r="27.5344" transform="rotate(-15 35.2775 39.5256)" fill="#FF5A5A"/>
<path d="M24.9403 34.9467C24.9489 34.9444 24.9575 34.9421 24.9804 34.9923C25.0032 35.0425 25.04 35.1453 25.0633 35.1971" stroke="black" stroke-width="4" stroke-linecap="round"/>
<path d="M41.8518 30.5801C41.848 30.5811 41.8441 30.5821 41.8007 30.5524C41.7573 30.5226 41.6744 30.4621 41.6831 30.4335C41.6917 30.4048 41.7945 30.4099 41.8123 30.5043" stroke="black" stroke-width="4" stroke-linecap="round"/>
<path d="M31.5105 31.7239C31.5138 31.7362 31.6644 32.2349 32.4304 33.637C32.9574 34.6017 34.1283 35.8589 34.8376 36.671C35.547 37.4831 35.8522 37.7554 36.1863 37.9991C36.8505 38.4838 37.5379 38.7666 38.1337 38.9453C38.701 39.1154 39.1617 39.1167 39.367 39.154C39.4508 39.1692 39.0195 39.4534 38.1409 40.0411C37.5251 40.453 36.6101 41.1625 36.0966 41.5447C35.5832 41.9268 35.5108 41.9772 35.4084 42.0556C35.3061 42.134 35.1759 42.239 34.9537 42.3985" stroke="black" stroke-width="2.4" stroke-linecap="round"/>
<path d="M18.3533 44.0845C17.7131 44.2592 17.3358 44.9198 17.5105 45.5599C17.6852 46.2001 18.3458 46.5774 18.986 46.4027L18.6696 45.2436L18.3533 44.0845ZM19.26 45.0824L19.5764 46.2416L19.5764 46.2415L19.26 45.0824ZM21.8338 44.3458L21.4736 43.1996V43.1996L21.8338 44.3458ZM23.6446 43.6683L24.1134 44.7746V44.7746L23.6446 43.6683ZM24.121 44.7714C24.7319 44.5125 25.0173 43.8073 24.7584 43.1963C24.4995 42.5853 23.7943 42.2999 23.1833 42.5589L23.6521 43.6651L24.121 44.7714ZM49.2756 35.3755C48.6306 35.5312 48.2339 36.1803 48.3896 36.8254C48.5453 37.4704 49.1944 37.8671 49.8395 37.7114L49.5576 36.5435L49.2756 35.3755ZM52.1488 36.4973L52.3758 35.3174L52.3354 35.3097L52.2946 35.3047L52.1488 36.4973ZM53.1584 36.6552L53.1067 37.8556L53.1253 37.8564L53.1438 37.8567L53.1584 36.6552ZM53.6251 37.8291C54.2842 37.7528 54.7567 37.1566 54.6804 36.4974C54.6041 35.8383 54.0079 35.3658 53.3487 35.4421L53.4869 36.6356L53.6251 37.8291ZM20.3372 44.6431C19.2736 45.2021 19.2739 45.2026 19.2742 45.2032C19.2744 45.2035 19.2747 45.2042 19.275 45.2047C19.2755 45.2057 19.2762 45.207 19.2769 45.2083C19.2784 45.2111 19.2802 45.2146 19.2825 45.2187C19.2869 45.227 19.2928 45.238 19.3002 45.2515C19.315 45.2786 19.3358 45.3161 19.3625 45.3631C19.416 45.457 19.4935 45.5894 19.5953 45.7536C19.7988 46.0818 20.1002 46.5388 20.5018 47.0725C21.303 48.1373 22.5144 49.5224 24.1566 50.7979C27.4698 53.3711 32.5219 55.4756 39.3356 53.6498L39.0247 52.4893L38.7137 51.3287C32.7613 52.9237 28.4697 51.105 25.6306 48.9C24.1968 47.7864 23.1299 46.5686 22.4219 45.6277C22.0689 45.1585 21.8079 44.7621 21.6377 44.4875C21.5527 44.3503 21.4905 44.2439 21.451 44.1745C21.4313 44.1399 21.4172 44.1145 21.4089 44.0991C21.4047 44.0915 21.4019 44.0863 21.4006 44.0838C21.3999 44.0825 21.3995 44.0819 21.3996 44.082C21.3996 44.082 21.3997 44.0822 21.3999 44.0825C21.4 44.0827 21.4002 44.0831 21.4002 44.0832C21.4005 44.0837 21.4007 44.0841 20.3372 44.6431ZM39.0247 52.4893L39.3356 53.6498C46.1494 51.8241 49.4724 47.4755 51.0551 43.5904C51.8396 41.6647 52.1961 39.8595 52.3576 38.5368C52.4385 37.8738 52.471 37.3273 52.4831 36.9413C52.4892 36.7482 52.4902 36.5949 52.4895 36.4867C52.4891 36.4326 52.4884 36.3898 52.4877 36.359C52.4873 36.3435 52.487 36.3311 52.4867 36.3217C52.4865 36.317 52.4864 36.3131 52.4863 36.3099C52.4862 36.3084 52.4862 36.307 52.4861 36.3058C52.4861 36.3052 52.4861 36.3045 52.4861 36.3042C52.486 36.3035 52.486 36.3028 51.2854 36.3505C50.0849 36.3982 50.0849 36.3977 50.0849 36.3972C50.0848 36.3971 50.0848 36.3966 50.0848 36.3964C50.0848 36.396 50.0848 36.3958 50.0848 36.3958C50.0848 36.3957 50.0848 36.3964 50.0849 36.3978C50.085 36.4007 50.0851 36.4065 50.0853 36.4153C50.0857 36.4328 50.0863 36.4618 50.0865 36.5017C50.087 36.5815 50.0864 36.7047 50.0813 36.866C50.0712 37.1889 50.0434 37.6628 49.9723 38.2456C49.8296 39.4144 49.5146 41.0025 48.8297 42.6839C47.4735 46.013 44.6661 49.7338 38.7137 51.3287L39.0247 52.4893ZM18.6696 45.2436L18.986 46.4027L19.5764 46.2416L19.26 45.0824L18.9437 43.9233L18.3533 44.0845L18.6696 45.2436ZM19.26 45.0824L19.5764 46.2415C20.1545 46.0837 21.3435 45.7593 22.194 45.492L21.8338 44.3458L21.4736 43.1996C20.6754 43.4504 19.5339 43.7622 18.9436 43.9234L19.26 45.0824ZM21.8338 44.3458L22.194 45.492C23.0697 45.2169 23.5593 45.0094 24.1134 44.7746L23.6446 43.6683L23.1758 42.5621C22.6455 42.7868 22.2391 42.959 21.4736 43.1996L21.8338 44.3458ZM23.6446 43.6683L24.1134 44.7746L24.121 44.7714L23.6521 43.6651L23.1833 42.5589L23.1758 42.5621L23.6446 43.6683ZM49.5576 36.5435L49.8395 37.7114C49.9765 37.6784 50.7577 37.5377 52.003 37.6899L52.1488 36.4973L52.2946 35.3047C50.7719 35.1185 49.7007 35.2729 49.2756 35.3755L49.5576 36.5435ZM52.1488 36.4973L51.9218 37.6772C52.3949 37.7682 52.7899 37.842 53.1067 37.8556L53.1584 36.6552L53.2102 35.4549C53.1085 35.4505 52.9077 35.4197 52.3758 35.3174L52.1488 36.4973ZM53.1584 36.6552L53.1438 37.8567C53.309 37.8587 53.4553 37.8488 53.6251 37.8291L53.4869 36.6356L53.3487 35.4421C53.2532 35.4531 53.212 35.4543 53.173 35.4538L53.1584 36.6552Z" fill="black"/>
<path d="M22.6598 21.7514C22.3506 20.5244 21.6812 17.19 21.8835 15.3092C22.2479 11.923 23.9903 9.81974 24.4102 9.30448C25.036 8.5366 26.257 8.0977 26.7472 8.02582C27.8689 7.86134 29.0775 9.90577 30.0725 11.8018C30.3889 12.4046 30.5366 13.232 30.655 13.516C30.884 14.0654 30.8154 11.0069 31.7468 7.59131C32.188 5.97336 33.2789 4.96816 33.9053 4.41768C34.4756 3.91661 35.6945 3.62727 36.8552 3.7903C37.8424 3.92897 38.9269 6.45158 40.1976 9.21906C41.4716 11.9937 41.6995 13.7609 41.7503 14.4687C41.7743 15.013 41.7946 15.9331 41.7984 16.4833C41.8023 17.0334 41.789 17.1858 41.7619 17.3917" stroke="black" stroke-width="2" stroke-linecap="round"/>
<path d="M3.19165 22.2958C3.38253 22.2189 4.42925 21.9989 9.16515 21.8976C13.2507 21.8101 20.7557 21.9989 26.1595 21.6687C31.5634 21.3386 34.6398 20.5731 36.8568 19.8577C39.0739 19.1424 40.3385 18.5003 42.3433 17.1437C44.348 15.7872 47.0546 13.7356 48.6213 12.5122C50.5326 10.9556 51.1699 10.2786 51.9536 9.18358C52.455 8.42236 53.1671 7.24382 53.9007 6.02956" stroke="black" stroke-width="2" stroke-linecap="round"/>
</svg>
