<svg width="68" height="72" viewBox="0 0 68 72" fill="none" xmlns="http://www.w3.org/2000/svg">
<circle cx="34.8621" cy="38.6438" r="26.4435" transform="rotate(-17.3889 34.8621 38.6438)" fill="#FAAAAB"/>
<path d="M24.7598 34.6641C24.768 34.6615 24.7762 34.6589 24.8001 34.7062C24.824 34.7535 24.8634 34.8506 24.8879 34.8994" stroke="black" stroke-width="3.83645" stroke-linecap="round"/>
<path d="M40.8123 29.7973C40.8087 29.7984 40.805 29.7996 40.7622 29.7728C40.7193 29.746 40.6374 29.6912 40.6445 29.6633C40.6517 29.6355 40.7505 29.6363 40.7714 29.7261" stroke="black" stroke-width="3.83645" stroke-linecap="round"/>
<path d="M30.9352 31.3088C30.9389 31.3203 31.1033 31.7928 31.8944 33.1076C32.4387 34.0122 33.6126 35.1717 34.3258 35.9225C35.039 36.6734 35.3427 36.9224 35.673 37.1429C36.3298 37.5814 37.0007 37.8253 37.5795 37.9729C38.1307 38.1134 38.5728 38.0962 38.7713 38.1237C38.8524 38.135 38.4499 38.425 37.6303 39.024C37.0559 39.4439 36.2063 40.1614 35.7289 40.5486C35.2516 40.9359 35.1842 40.9871 35.089 41.0664C34.9939 41.1458 34.8732 41.2517 34.6664 41.4136" stroke="black" stroke-width="2.30187" stroke-linecap="round"/>
<path d="M18.8051 43.6959C18.1978 43.8892 17.8622 44.5381 18.0555 45.1454C18.2488 45.7527 18.8977 46.0883 19.505 45.895L19.1551 44.7954L18.8051 43.6959ZM19.7151 44.6172L20.065 45.7167L20.0651 45.7167L19.7151 44.6172ZM22.1553 43.8073L21.7638 42.7219V42.7219L22.1553 43.8073ZM23.8657 43.0848L24.3598 44.1275V44.1275L23.8657 43.0848ZM24.3669 44.1241C24.9428 43.8512 25.1885 43.1631 24.9156 42.5872C24.6426 42.0113 23.9546 41.7657 23.3787 42.0386L23.8728 43.0814L24.3669 44.1241ZM48.1279 34.1014C47.5152 34.2766 47.1606 34.9153 47.3358 35.5281C47.511 36.1408 48.1498 36.4954 48.7625 36.3202L48.4452 35.2108L48.1279 34.1014ZM50.9298 35.0627L51.1003 33.9215L51.0613 33.9157L51.0219 33.9125L50.9298 35.0627ZM51.9049 35.1739L51.9033 36.3278L51.9211 36.3278L51.939 36.3273L51.9049 35.1739ZM52.3996 36.2816C53.0291 36.182 53.4586 35.591 53.359 34.9615C53.2594 34.3321 52.6684 33.9026 52.0389 34.0022L52.2193 35.1419L52.3996 36.2816ZM20.7311 44.1525C19.7329 44.7314 19.7332 44.732 19.7336 44.7325C19.7337 44.7328 19.7341 44.7334 19.7344 44.7339C19.7349 44.7349 19.7356 44.736 19.7364 44.7373C19.7379 44.7399 19.7398 44.7432 19.7421 44.7471C19.7467 44.7548 19.7528 44.7651 19.7604 44.7778C19.7757 44.8032 19.7972 44.8383 19.8247 44.8823C19.8798 44.9704 19.9595 45.0943 20.0637 45.2478C20.2721 45.5546 20.5796 45.981 20.9863 46.477C21.7977 47.4666 23.0155 48.7472 24.6424 49.9054C27.9246 52.2419 32.8565 54.059 39.3216 52.0343L38.9767 50.9332L38.6319 49.832C32.9841 51.6007 28.7933 50.0275 25.9808 48.0253C24.5604 47.0141 23.4879 45.8883 22.7709 45.0138C22.4134 44.5778 22.1471 44.2078 21.9728 43.9511C21.8857 43.8229 21.8218 43.7233 21.7811 43.6583C21.7608 43.6258 21.7463 43.602 21.7377 43.5876C21.7333 43.5804 21.7305 43.5756 21.7291 43.5732C21.7284 43.572 21.728 43.5715 21.7281 43.5715C21.7281 43.5715 21.7282 43.5717 21.7284 43.5721C21.7285 43.5722 21.7287 43.5726 21.7287 43.5727C21.729 43.5731 21.7293 43.5736 20.7311 44.1525ZM38.9767 50.9332L39.3216 52.0343C45.7866 50.0097 48.8011 45.704 50.1643 41.9127C50.8399 40.0335 51.1098 38.287 51.2118 37.0114C51.2629 36.372 51.2722 35.8463 51.2684 35.4754C51.2664 35.2899 51.2612 35.1427 51.2563 35.039C51.2538 34.9871 51.2513 34.946 51.2494 34.9164C51.2484 34.9016 51.2476 34.8897 51.2469 34.8807C51.2466 34.8762 51.2463 34.8725 51.2461 34.8694C51.246 34.8679 51.2459 34.8666 51.2458 34.8655C51.2457 34.8649 51.2457 34.8642 51.2457 34.8639C51.2456 34.8633 51.2455 34.8626 50.0955 34.9565C48.9454 35.0503 48.9453 35.0498 48.9453 35.0493C48.9453 35.0492 48.9453 35.0488 48.9453 35.0486C48.9452 35.0482 48.9452 35.048 48.9452 35.048C48.9452 35.0479 48.9453 35.0486 48.9454 35.0499C48.9456 35.0527 48.946 35.0583 48.9465 35.0666C48.9476 35.0834 48.9493 35.1112 48.9511 35.1495C48.9548 35.2261 48.9591 35.3443 48.9607 35.4993C48.9639 35.8096 48.9562 36.2654 48.9113 36.8274C48.8212 37.9547 48.5825 39.4911 47.9926 41.1319C46.8245 44.3807 44.2796 48.0633 38.6319 49.832L38.9767 50.9332ZM19.1551 44.7954L19.505 45.895L20.065 45.7167L19.7151 44.6172L19.3651 43.5176L18.8051 43.6959L19.1551 44.7954ZM19.7151 44.6172L20.0651 45.7167C20.6135 45.5422 21.7414 45.1833 22.5468 44.8928L22.1553 43.8073L21.7638 42.7219C21.0079 42.9945 19.9251 43.3394 19.3651 43.5177L19.7151 44.6172ZM22.1553 43.8073L22.5468 44.8928C23.3761 44.5937 23.8375 44.375 24.3598 44.1275L23.8657 43.0848L23.3715 42.042C22.8717 42.2789 22.4887 42.4604 21.7638 42.7219L22.1553 43.8073ZM23.8657 43.0848L24.3598 44.1275L24.3669 44.1241L23.8728 43.0814L23.3787 42.0386L23.3715 42.042L23.8657 43.0848ZM48.4452 35.2108L48.7625 36.3202C48.8927 36.283 49.6366 36.1167 50.8376 36.2129L50.9298 35.0627L51.0219 33.9125C49.5534 33.7949 48.5317 33.9859 48.1279 34.1014L48.4452 35.2108ZM50.9298 35.0627L50.7592 36.204C51.2168 36.2723 51.5988 36.3274 51.9033 36.3278L51.9049 35.1739L51.9065 34.02C51.8088 34.0198 51.6148 33.9984 51.1003 33.9215L50.9298 35.0627ZM51.9049 35.1739L51.939 36.3273C52.0976 36.3226 52.2376 36.3072 52.3996 36.2816L52.2193 35.1419L52.0389 34.0022C51.9477 34.0166 51.9082 34.0194 51.8708 34.0205L51.9049 35.1739Z" fill="black"/>
<path d="M16.6053 20.5662C16.6829 20.0681 16.9974 19.1486 17.9559 17.2203C18.5961 15.9321 19.7248 14.1064 20.7367 12.649C22.5192 10.0817 23.9345 8.87697 24.5236 8.43979C25.703 7.56445 27.7696 7.12998 28.404 7.1225C28.7008 7.119 28.9632 7.3045 29.2138 7.4627C29.7855 7.82358 30.8316 10.5227 31.4116 12.1792C31.744 13.1287 31.2344 15.3068 30.6593 17.1992C30.4093 18.0222 29.7978 18.7322 29.1196 19.5357C27.5081 21.4448 26.1695 21.8716 25.7803 21.9401C24.8261 22.1079 24.831 19.5002 25.0818 17.5639C25.174 16.8518 25.8671 15.8409 27.6013 13.768C28.7549 12.389 30.7755 10.6221 32.0004 9.53664C33.2253 8.45114 33.6729 8.17112 34.6019 7.772C36.8961 6.7863 38.5121 6.32213 38.8403 6.31303C39.6699 6.29003 40.2467 6.77298 40.7168 7.25853C41.8663 8.44594 42.3485 10.3894 42.5702 11.7095C42.8527 13.3922 41.9372 14.5458 41.3116 15.5812C40.4568 16.9958 38.983 17.6717 38.2517 18.026C38.0745 18.1118 37.8255 18.1707 37.6377 18.1689C37.4499 18.1672 37.3229 18.084 37.203 17.8759C36.6405 16.8992 36.9006 15.8455 37.1102 14.9843C37.4016 13.7875 38.168 13.1305 40.9617 11.233C43.458 9.53751 44.8544 9.79526 45.5478 9.96994C46.2302 10.1418 46.6125 11.0889 46.9428 12.0255C47.0619 12.3633 47.0341 12.824 46.8776 13.8835C46.4279 15.8498 45.809 17.7997 45.2318 19.0452C44.9665 19.585 44.7571 19.9372 44.5014 20.3985" stroke="black" stroke-width="1.91822" stroke-linecap="round"/>
</svg>
