<svg width="170" height="170" viewBox="0 0 170 170" fill="none" xmlns="http://www.w3.org/2000/svg">
<path d="M84.5734 17.0332C53.1544 17.0332 27.9339 27.9397 8.95775 42.8034C4.29564 46.4577 3.35476 52.9346 6.21968 57.9456L11.0227 66.3536C14.9096 73.1547 23.9131 74.529 30.1117 70.1383C44.7217 59.7815 63.3526 51.4334 84.5699 51.4334C105.787 51.4334 124.422 59.7851 139.032 70.1383C145.227 74.529 154.23 73.1547 158.117 66.3536L162.924 57.9456C165.785 52.9346 164.848 46.4577 160.186 42.8034C141.202 27.9432 115.992 17.0332 84.5734 17.0332ZM84.4325 121.235C79.8707 121.236 75.4962 123.049 72.2712 126.275C69.0462 129.501 67.2349 133.877 67.2359 138.438C67.2368 143 69.0499 147.375 72.2762 150.6C75.5025 153.825 79.8778 155.636 84.4395 155.635C89.0013 155.634 93.3758 153.821 96.6008 150.595C99.8258 147.368 101.637 142.993 101.636 138.431C101.635 133.87 99.8221 129.495 96.5958 126.27C93.3695 123.045 88.9942 121.234 84.4325 121.235Z" fill="black"/>
<path d="M84.5732 71.0635C65.1742 71.0635 51.7305 76.4374 40.5245 84.9229C35.5559 88.6829 34.9286 95.5898 38.2481 100.569L42.9525 107.627C46.6033 113.107 54.1056 113.773 59.3527 110.528C65.9283 106.461 74.6534 102.976 84.5732 102.976C94.493 102.976 103.215 106.461 109.79 110.528C115.041 113.77 122.54 113.107 126.194 107.627L130.895 100.573C134.218 95.5898 133.587 88.6829 128.622 84.9229C117.412 76.4374 103.969 71.0635 84.5732 71.0635Z" fill="black"/>
</svg>
